<svg xmlns="http://www.w3.org/2000/svg" width="30" height="30" viewBox="0 0 30 30">
  <g id="关闭" transform="translate(-1.498)">
    <path id="路径_7497" data-name="路径 7497" d="M1.5,15a15,15,0,1,0,15-15A15,15,0,0,0,1.5,15Z" transform="translate(0)" fill="#f26359"/>
    <path id="路径_7498" data-name="路径 7498" d="M58.586,43.667a1.1,1.1,0,0,1,0,1.552L44.14,59.185a1.2,1.2,0,0,1-1.606,0,1.1,1.1,0,0,1,0-1.552L56.981,43.667a1.2,1.2,0,0,1,1.606,0Z" transform="translate(-34.205 -36.424)" fill="#fff"/>
    <path id="路径_7499" data-name="路径 7499" d="M44.375,45.225a1.157,1.157,0,0,1,1.553,0L59.9,58.714a1.061,1.061,0,0,1,0,1.5,1.157,1.157,0,0,1-1.553,0L44.375,46.724A1.061,1.061,0,0,1,44.375,45.225Z" transform="translate(-35.759 -37.741)" fill="#fff"/>
  </g>
</svg>
