<svg xmlns="http://www.w3.org/2000/svg" width="30" height="30" viewBox="0 0 30 30">
  <g id="组_15506" data-name="组 15506" transform="translate(-31 -747)">
    <path id="路径_7524" data-name="路径 7524" d="M36.119,13.138a.921.921,0,0,0-.97-.638l-.369.02-.128.064a1.408,1.408,0,0,0-.185.074l-20.737,8.8a1.351,1.351,0,0,0-.98,1.232,1.514,1.514,0,0,0,.772,1.232l8.358,2.705,2.783,8.64.181.195a1.3,1.3,0,0,0,.42.363,1.313,1.313,0,0,0,.6.175,1.1,1.1,0,0,0,.822-.349,2.27,2.27,0,0,0,.406-.634l8.855-20.7a1.388,1.388,0,0,0,.171-1.182Z" transform="translate(21.25 737.5)" fill="#fff"/>
    <rect id="矩形_2935" data-name="矩形 2935" width="30" height="30" transform="translate(31 747)" fill="none"/>
  </g>
</svg>
