<svg xmlns="http://www.w3.org/2000/svg" width="30" height="30" viewBox="0 0 30 30">
  <g id="组_15507" data-name="组 15507" transform="translate(-213 -742)">
    <path id="路径_7523" data-name="路径 7523" d="M-24.333-9.047a10.527,10.527,0,0,0-10.5,10.561,10.543,10.543,0,0,0,3.078,7.468l6.394,6.434a1.449,1.449,0,0,0,2.055,0l6.394-6.434a10.6,10.6,0,0,0,3.078-7.468A10.536,10.536,0,0,0-24.333-9.047Zm0,15.253a4.659,4.659,0,0,1-3.305-1.38A4.707,4.707,0,0,1-29,1.514,4.675,4.675,0,0,1-27.638-1.8a4.69,4.69,0,0,1,3.305-1.38A4.659,4.659,0,0,1-21.028-1.8a4.707,4.707,0,0,1,1.365,3.313,4.644,4.644,0,0,1-1.365,3.313,4.718,4.718,0,0,1-3.305,1.38Z" transform="translate(252.833 753.047)" fill="#fff"/>
    <rect id="矩形_2936" data-name="矩形 2936" width="30" height="30" transform="translate(213 742)" fill="none"/>
  </g>
</svg>
