<?xml version="1.0" standalone="no"?><!DOCTYPE svg PUBLIC "-//W3C//DTD SVG 1.1//EN" "http://www.w3.org/Graphics/SVG/1.1/DTD/svg11.dtd" ><svg xmlns="http://www.w3.org/2000/svg"><metadata></metadata><defs><font id="fonteditor" horiz-adv-x="889"><font-face font-family="Univers 67 Condensed Bold" font-weight="700" font-stretch="normal" units-per-em="1000" panose-1="2 0 8 3 0 0 0 2 0 4" ascent="969" descent="-226" x-height="4" bbox="-83 -217 890 784" underline-thickness="56" underline-position="-68" unicode-range="U+0021-201d" /><missing-glyph horiz-adv-x="222"  /><glyph glyph-name="A" unicode="a" d="M8 0 L208 722 L407 722 L603 0 L444 0 L404 160 L198 160 L157 0 L8 0 ZM299 583 L297 583 L228 271 L372 271 L299 583 Z" /><glyph glyph-name="B" unicode="b" d="M216 111 L300 111 Q312 111 330 112.5 Q348 114 364.5 124 Q381 134 392.5 154.5 Q404 175 404 213 Q404 261 382.5 288.5 Q361 316 304 316 L216 316 L216 111 ZM216 427 L317 427 Q329 427 343 431.5 Q357 436 369 446.5 Q381 457 388.5 475 Q396 493 396 519 Q396 559 371.5 585 Q347 611 309 611 L216 611 L216 427 ZM65 0 L65 722 L333 722 Q376 722 414.5 714.5 Q453 707 481.5 686.5 Q510 666 526.5 629.5 Q543 593 543 535 Q543 472 512.5 430 Q482 388 420 376 L420 374 Q460 368 486 353 Q512 338 527.5 314 Q543 290 549 259 Q555 228 555 191 Q555 145 543 113 Q531 81 511.5 60 Q492 39 467.5 27 Q443 15 418 9 Q393 3 370.5 1.5 Q348 0 332 0 L65 0 Z" /><glyph glyph-name="C" unicode="c" d="M305 -12 Q212 -12 161 19.5 Q110 51 87 103.5 Q64 156 60 223 Q56 290 56 361 Q56 433 60 500 Q64 567 87 619 Q110 671 161 702.5 Q212 734 305 734 Q421 734 470.5 672.5 Q520 611 515 494 L367 494 Q367 566 353 596 Q339 626 305 626 Q273 626 254 610.5 Q235 595 225 563 Q215 531 212 480.5 Q209 430 209 361 Q209 292 212 241.5 Q215 191 225 159 Q235 127 254 111.5 Q273 96 305 96 Q331 96 345 111 Q359 126 365 148 Q371 170 372 196 Q373 222 374 243 L523 243 Q523 171 509 122 Q495 73 467 43 Q439 13 398.5 0.5 Q358 -12 305 -12 Z" /><glyph glyph-name="D" unicode="d" d="M217 111 L290 111 Q325 111 346.5 124.5 Q368 138 380 168 Q392 198 396 245.5 Q400 293 400 361 Q400 411 398.5 456 Q397 501 387 535.5 Q377 570 355.5 590.5 Q334 611 295 611 L217 611 L217 111 ZM66 722 L318 722 Q392 722 438 698 Q484 674 509.5 628 Q535 582 544 515.5 Q553 449 553 365 Q553 337 553 299 Q553 262 548 221 Q543 180 529.5 140.5 Q516 101 489 70 Q462 39 419.5 19.5 Q377 0 312 0 L66 0 L66 722 Z" /><glyph glyph-name="E" unicode="e" d="M63 0 L63 722 L457 722 L457 611 L214 611 L214 433 L438 433 L438 322 L214 322 L214 111 L465 111 L465 0 L63 0 Z" /><glyph glyph-name="F" unicode="f" d="M60 0 L60 722 L435 722 L435 611 L211 611 L211 426 L425 426 L425 315 L211 315 L211 0 L60 0 Z" /><glyph glyph-name="G" unicode="g" d="M393 500 Q393 525 390.5 548 Q388 571 378.5 588 Q369 605 351 615.5 Q333 626 303 626 Q268 626 249 604 Q230 582 221 545 Q212 508 210.5 460 Q209 412 209 359 Q209 274 214 222 Q219 170 231 141.5 Q243 113 264 103 Q285 93 317 93 Q336 93 355.5 97 Q375 101 392 107 L392 267 L310 267 L310 378 L543 378 L543 12 Q528 9 502.5 5 Q477 1 448 -3 Q419 -7 390.5 -9.5 Q362 -12 339 -12 Q244 -12 188 8.5 Q132 29 102.5 74.5 Q73 120 64.5 192 Q56 264 56 367 Q56 412 58 457 Q60 502 67.5 543 Q75 584 91 619 Q107 654 135.5 679.5 Q164 705 207 719.5 Q250 734 312 734 Q368 734 412 718.5 Q456 703 486.5 673.5 Q517 644 531.5 600.5 Q546 557 543 500 L393 500 Z" /><glyph glyph-name="H" unicode="h" d="M392 433 L392 722 L543 722 L543 0 L392 0 L392 322 L219 322 L219 0 L68 0 L68 722 L219 722 L219 433 L392 433 Z" /><glyph glyph-name="I" unicode="i" d="M63 0 L63 722 L214 722 L214 0 L63 0 Z" /><glyph glyph-name="J" unicode="j" d="M444 722 L444 168 Q444 121 426.5 87 Q409 53 379.5 31 Q350 9 312.5 -1.5 Q275 -12 235 -12 Q156 -12 111.5 4.5 Q67 21 45.5 52.5 Q24 84 19.5 131.5 Q15 179 15 240 L169 240 Q169 218 168 193 Q167 168 172 146.5 Q177 125 191 110.5 Q205 96 235 96 Q261 96 277 115.5 Q293 135 293 158 L293 722 L444 722 Z" /><glyph glyph-name="K" unicode="k" d="M384 722 L550 722 L348 398 L550 0 L380 0 L207 370 L205 370 L205 0 L54 0 L54 722 L205 722 L205 413 L207 413 L384 722 Z" /><glyph glyph-name="L" unicode="l" d="M64 0 L64 722 L215 722 L215 120 L441 120 L441 0 L64 0 Z" /><glyph glyph-name="M" unicode="m" d="M60 0 L60 722 L303 722 L416 231 L418 231 L538 722 L773 722 L773 0 L626 0 L626 557 L624 557 L485 0 L341 0 L209 557 L207 557 L207 0 L60 0 Z" /><glyph glyph-name="N" unicode="n" d="M64 0 L64 722 L268 722 L460 222 L462 222 L462 722 L603 722 L603 0 L404 0 L207 528 L205 528 L205 0 L64 0 Z" /><glyph glyph-name="O" unicode="o" d="M305 96 Q337 96 356 111.5 Q375 127 385 159 Q395 191 398 241.5 Q401 292 401 361 Q401 430 398 480.5 Q395 531 385 563 Q375 595 356 610.5 Q337 626 305 626 Q273 626 254 610.5 Q235 595 225 563 Q215 531 212 480.5 Q209 430 209 361 Q209 292 212 241.5 Q215 191 225 159 Q235 127 254 111.5 Q273 96 305 96 ZM305 -12 Q212 -12 161 19.5 Q110 51 87 103.5 Q64 156 60 223 Q56 290 56 361 Q56 433 60 500 Q64 567 87 619 Q110 671 161 702.5 Q212 734 305 734 Q398 734 449 702.5 Q500 671 523 619 Q546 567 550 500 Q554 433 554 361 Q554 290 550 223 Q546 156 523 103.5 Q500 51 449 19.5 Q398 -12 305 -12 Z" /><glyph glyph-name="P" unicode="p" d="M215 405 L299 405 Q316 405 330 413.5 Q344 422 354 435.5 Q364 449 369.5 466.5 Q375 484 375 502 Q375 524 371.5 544 Q368 564 358.5 579 Q349 594 333 602.5 Q317 611 291 611 L215 611 L215 405 ZM64 722 L336 722 Q388 722 424.5 707 Q461 692 484 663.5 Q507 635 517.5 595.5 Q528 556 528 506 Q528 475 521.5 438 Q515 401 494 369 Q473 337 433 315.5 Q393 294 327 294 L215 294 L215 0 L64 0 L64 722 Z" /><glyph glyph-name="Q" unicode="q" d="M607 0 L394 0 Q374 0 350.5 -3.5 Q327 -7 307 -7 Q223 -7 173.5 15 Q124 37 98 82.5 Q72 128 64 197.5 Q56 267 56 361 Q56 433 60 500 Q64 567 87 619 Q110 671 161 702.5 Q212 734 305 734 Q398 734 449 702.5 Q500 671 523 619 Q546 567 550 500 Q554 433 554 361 Q554 303 548.5 260 Q543 217 532.5 185 Q522 153 505.5 130 Q489 107 466 88 L468 86 Q476 88 487 92.5 Q498 97 508.5 101 Q519 105 528.5 108 Q538 111 544 111 L607 111 L607 0 ZM305 101 Q337 101 356 116.5 Q375 132 385 163.5 Q395 195 398 244.5 Q401 294 401 361 Q401 430 398 480.5 Q395 531 385 563 Q375 595 356 610.5 Q337 626 305 626 Q273 626 254 610.5 Q235 595 225 563 Q215 531 212 480.5 Q209 430 209 361 Q209 294 212 244.5 Q215 195 225 163.5 Q235 132 254 116.5 Q273 101 305 101 Z" /><glyph glyph-name="R" unicode="r" d="M211 410 L278 410 Q301 410 315.5 420 Q330 430 339 445.5 Q348 461 351.5 480 Q355 499 355 516 Q355 568 334.5 589.5 Q314 611 278 611 L211 611 L211 410 ZM211 0 L60 0 L60 722 L339 722 Q417 722 462.5 674 Q508 626 508 533 Q508 499 501 469 Q494 439 478 416 Q462 393 436.5 377.5 Q411 362 374 356 L374 354 Q386 353 408 348.5 Q430 344 451.5 330 Q473 316 489 288.5 Q505 261 505 212 Q505 195 505.5 164 Q506 133 508 100 Q510 67 513.5 39 Q517 11 522 0 L374 0 Q359 33 358.5 69 Q358 105 358 140 Q358 172 357.5 201 Q357 230 347.5 252 Q338 274 316 286.5 Q294 299 250 299 L211 299 L211 0 Z" /><glyph glyph-name="S" unicode="s" d="M511 197 Q511 127 488 85.5 Q465 44 428.5 22.5 Q392 1 347 -5.5 Q302 -12 259 -12 Q189 -12 145.5 7 Q102 26 79 58.5 Q56 91 49 133.5 Q42 176 45 223 L196 223 Q196 197 198 174 Q200 151 208 133.5 Q216 116 233.5 106 Q251 96 282 96 Q320 96 339 118.5 Q358 141 358 178 Q358 211 335.5 234.5 Q313 258 279 279.5 Q245 301 206 322.5 Q167 344 133 372.5 Q99 401 76.5 439 Q54 477 54 531 Q54 573 65.5 610 Q77 647 104 674.5 Q131 702 177 718 Q223 734 292 734 Q402 734 456 682 Q510 630 502 517 L355 517 Q355 537 352.5 556.5 Q350 576 342.5 591.5 Q335 607 321.5 616.5 Q308 626 285 626 Q248 626 227.5 606.5 Q207 587 207 549 Q207 515 229.5 491 Q252 467 286 447 Q320 427 359 406.5 Q398 386 432 358.5 Q466 331 488.5 292.5 Q511 254 511 197 Z" /><glyph glyph-name="T" unicode="t" d="M493 722 L493 602 L325 602 L325 0 L174 0 L174 602 L6 602 L6 722 L493 722 Z" /><glyph glyph-name="U" unicode="u" d="M551 722 L551 210 Q551 170 538.5 130 Q526 90 497.5 58.5 Q469 27 422 7.5 Q375 -12 306 -12 Q182 -12 121 48 Q60 108 60 210 L60 722 L211 722 L211 220 Q211 153 236.5 124.5 Q262 96 304 96 Q354 96 377 128 Q400 160 400 220 L400 722 L551 722 Z" /><glyph glyph-name="V" unicode="v" d="M5 722 L162 722 L274 197 L276 197 L402 722 L551 722 L360 0 L183 0 L5 722 Z" /><glyph glyph-name="W" unicode="w" d="M-1 722 L154 722 L248 215 L250 215 L364 722 L542 722 L650 215 L652 215 L742 722 L890 722 L730 0 L563 0 L450 528 L448 528 L323 0 L159 0 L-1 722 Z" /><glyph glyph-name="X" unicode="x" d="M16 722 L188 722 L291 485 L392 722 L549 722 L369 365 L552 0 L381 0 L270 249 L159 0 L3 0 L190 378 L16 722 Z" /><glyph glyph-name="Y" unicode="y" d="M196 250 L7 722 L172 722 L280 417 L395 722 L549 722 L347 250 L347 0 L196 0 L196 250 Z" /><glyph glyph-name="Z" unicode="z" d="M36 722 L471 722 L471 591 L167 111 L478 111 L478 0 L22 0 L22 132 L325 611 L36 611 L36 722 Z" /><glyph glyph-name="a" unicode="a" d="M301 244 Q275 243 252.5 242 Q230 241 213.5 233.5 Q197 226 188 208.5 Q179 191 179 157 Q179 144 180.5 129.5 Q182 115 187.5 103.5 Q193 92 203.5 84.5 Q214 77 231 77 Q262 77 277 95.5 Q292 114 297 140 Q302 166 301.5 194.5 Q301 223 301 244 ZM439 94 Q439 71 441.5 47 Q444 23 446 0 L315 0 L309 67 L307 67 Q284 28 252.5 9 Q221 -10 175 -10 Q138 -10 112.5 3 Q87 16 71 37.5 Q55 59 48 88.5 Q41 118 41 151 Q41 214 63 249 Q85 284 121.5 300.5 Q158 317 205 320.5 Q252 324 301 323 L301 362 Q301 378 299.5 391.5 Q298 405 292 415 Q286 425 274.5 430.5 Q263 436 244 436 Q226 436 215 429.5 Q204 423 199 412.5 Q194 402 192.5 388 Q191 374 191 359 L53 359 Q53 405 66.5 435 Q80 465 105 482 Q129 500 162.5 507.5 Q196 515 237 515 Q304 515 344 501.5 Q384 488 405 465 Q426 442 432.5 411.5 Q439 381 439 346 L439 94 Z" /><glyph glyph-name="ampersand" unicode="&amp;" d="M471 57 Q428 15 378 1.5 Q328 -12 270 -12 Q145 -12 78.5 44.5 Q12 101 12 207 Q12 243 23.5 273 Q35 303 54.5 328 Q74 353 100 374 Q126 395 154 413 Q140 431 125.5 451 Q111 471 99.5 493.5 Q88 516 81 541 Q74 566 74 594 Q74 624 91 649.5 Q108 675 137 694 Q166 713 206 723.5 Q246 734 292 734 Q318 734 350 727.5 Q382 721 409.5 704.5 Q437 688 456 661 Q475 634 475 593 Q475 558 464 530.5 Q453 503 435.5 480.5 Q418 458 396 438.5 Q374 419 352 399 L465 251 Q470 269 473 283.5 Q476 298 478 314 Q480 330 480.5 349.5 Q481 369 481 395 L603 395 Q603 367 602 336 Q601 305 596.5 273 Q592 241 582 209 Q572 177 554 148 L663 0 L515 0 L471 57 ZM236 324 Q209 303 186 273 Q163 243 163 207 Q163 155 192 125.5 Q221 96 273 96 Q305 96 334 107 Q363 118 383 144 L236 324 ZM265 483 Q278 491 291 501.5 Q304 512 314 524 Q324 536 330.5 550.5 Q337 565 337 582 Q337 611 320.5 627.5 Q304 644 275 644 Q251 644 231.5 628.5 Q212 613 212 587 Q212 556 228.5 531 Q245 506 265 483 Z" /><glyph glyph-name="asciicircum" unicode="^" d="M3 274 L185 698 L315 698 L497 274 L371 274 L250 573 L129 274 L3 274 Z" /><glyph glyph-name="asciitilde" unicode="~" d="M475 283 Q463 263 451 242 Q439 221 424 204 Q409 187 390 176.5 Q371 166 346 166 Q324 166 296.5 176.5 Q269 187 242.5 199 Q216 211 194 221.5 Q172 232 160 232 Q145 232 133.5 224 Q122 216 113 204 Q104 192 97 177.5 Q90 163 83 150 L25 224 Q36 245 49 267 Q62 289 78.5 307 Q95 325 115 336.5 Q135 348 159 348 Q183 348 209.5 337.5 Q236 327 261 315 Q286 303 308 292.5 Q330 282 346 282 Q360 282 370.5 289.5 Q381 297 389 308 Q397 319 404 332 Q411 345 418 356 L475 283 Z" /><glyph glyph-name="asterisk" unicode="*" d="M165 353 L80 405 L169 518 L32 500 L32 597 L169 580 L88 688 L172 734 L222 610 L272 734 L356 688 L275 580 L412 597 L412 500 L275 518 L364 405 L279 353 L222 490 L165 353 Z" /><glyph glyph-name="at" unicode="@" d="M420 483 Q398 483 379.5 470 Q361 457 348 435 Q335 413 328 383 Q321 353 321 319 Q321 303 324 287 Q327 271 334 258.5 Q341 246 351.5 238.5 Q362 231 378 231 Q398 231 417.5 239 Q437 247 452 267 Q467 287 476 320.5 Q485 354 485 406 Q485 441 467.5 462 Q450 483 420 483 ZM576 345 Q574 335 571.5 319 Q569 303 566.5 288 Q564 273 562 261 Q560 249 560 247 Q560 241 564 236 Q568 231 579 231 Q597 231 615.5 246 Q634 261 648.5 285.5 Q663 310 672.5 341.5 Q682 373 682 407 Q683 465 668.5 506.5 Q654 548 630 576.5 Q606 605 575.5 622 Q545 639 515 648.5 Q485 658 459 661 Q433 664 416 664 Q353 664 298 640.5 Q243 617 201.5 576 Q160 535 136.5 480 Q113 425 113 362 Q113 299 136.5 244 Q160 189 201.5 147.5 Q243 106 298 82 Q353 58 416 58 Q479 58 535 83 Q591 108 628 146 L719 146 Q695 110 661.5 80.5 Q628 51 588.5 30.5 Q549 10 505 -1 Q461 -12 416 -12 Q338 -12 270 17.5 Q202 47 151.5 97.5 Q101 148 72 216 Q43 284 43 362 Q43 440 72 507.5 Q101 575 151.5 625.5 Q202 676 270 705 Q338 734 416 734 Q511 734 575.5 702 Q640 670 679 623.5 Q718 577 735 525.5 Q752 474 752 434 Q752 376 734 324.5 Q716 273 685.5 234.5 Q655 196 615.5 174 Q576 152 533 152 Q512 152 491 166 Q470 180 465 208 L463 210 Q440 181 408 166.5 Q376 152 347 152 Q313 152 289 168.5 Q265 185 250 210.5 Q235 236 228 266.5 Q221 297 221 326 Q221 370 233 410.5 Q245 451 268.5 483 Q292 515 327 534 Q362 553 408 553 Q446 553 470 539.5 Q494 526 507 495 L509 495 L518 540 L611 540 L576 345 Z" /><glyph glyph-name="b" unicode="b" d="M254 77 Q292 77 303 119.5 Q314 162 314 257 Q314 295 313 326.5 Q312 358 306.5 380.5 Q301 403 289 415.5 Q277 428 254 428 Q232 428 220.5 415.5 Q209 403 204 380.5 Q199 358 198 326.5 Q197 295 197 257 Q197 162 207.5 119.5 Q218 77 254 77 ZM56 722 L197 722 L197 457 L199 457 Q221 489 248.5 502 Q276 515 314 515 Q367 515 395.5 489 Q424 463 436.5 424 Q449 385 450.5 339.5 Q452 294 452 256 Q452 217 450.5 170.5 Q449 124 436.5 84 Q424 44 395 17 Q366 -10 311 -10 Q270 -10 241 4.5 Q212 19 192 56 L190 56 L190 0 L56 0 L56 722 Z" /><glyph glyph-name="backslash" unicode="\" d="M24 722 L332 0 L225 0 L-83 722 L24 722 Z" /><glyph glyph-name="bar" unicode="|" d="M69 722 L180 722 L180 0 L69 0 L69 722 Z" /><glyph glyph-name="braceleft" unicode="{" d="M50 625 Q50 691 75.5 723 Q101 755 166 755 L240 755 L240 676 Q215 676 199.5 666.5 Q184 657 175.5 642 Q167 627 164 607 Q161 587 161 566 L161 454 Q161 401 145.5 370 Q130 339 79 328 L79 326 Q106 322 122 309.5 Q138 297 146.5 278.5 Q155 260 158 237.5 Q161 215 161 191 L161 67 Q161 48 164 29 Q167 10 175.5 -6 Q184 -22 199.5 -32 Q215 -42 240 -42 L240 -121 L175 -121 Q137 -121 112.5 -112 Q88 -103 74 -84.5 Q60 -66 55 -38 Q50 -10 50 27 L50 183 Q50 227 32.5 255 Q15 283 -32 283 L-32 370 Q-8 370 7.5 378.5 Q23 387 32.5 401.5 Q42 416 46 434 Q50 452 50 471 L50 625 Z" /><glyph glyph-name="braceright" unicode="}" d="M229 471 Q229 452 233 434 Q237 416 246.5 401.5 Q256 387 271.5 378.5 Q287 370 311 370 L311 283 Q264 283 246.5 255 Q229 227 229 183 L229 27 Q229 -10 224 -38 Q219 -66 205 -84.5 Q191 -103 166.5 -112 Q142 -121 104 -121 L39 -121 L39 -42 Q64 -42 79.5 -32 Q95 -22 103.5 -6 Q112 10 115 29 Q118 48 118 67 L118 191 Q118 215 121 237.5 Q124 260 132.5 278.5 Q141 297 157 309.5 Q173 322 200 326 L200 328 Q149 339 133.5 370 Q118 401 118 454 L118 566 Q118 587 115 607 Q112 627 103.5 642 Q95 657 79.5 666.5 Q64 676 39 676 L39 755 L113 755 Q178 755 203.5 723 Q229 691 229 625 L229 471 Z" /><glyph glyph-name="bracketleft" unicode="[" d="M44 755 L256 755 L256 668 L155 668 L155 -34 L256 -34 L256 -121 L44 -121 L44 755 Z" /><glyph glyph-name="bracketright" unicode="]" d="M234 -121 L22 -121 L22 -34 L123 -34 L123 668 L22 668 L22 755 L234 755 L234 -121 Z" /><glyph glyph-name="c" unicode="c" d="M313 325 Q313 382 298 403.5 Q283 425 250 425 Q228 425 215 415 Q202 405 195 385.5 Q188 366 186.5 336 Q185 306 185 267 Q185 209 188 172.5 Q191 136 198 115.5 Q205 95 218 87.5 Q231 80 250 80 Q283 80 299 108 Q315 136 315 186 L456 186 Q456 83 403 36.5 Q350 -10 250 -10 Q182 -10 141 10 Q100 30 78.5 65.5 Q57 101 50.5 150.5 Q44 200 44 259 Q44 311 50 357.5 Q56 404 77 439 Q98 474 139 494.5 Q180 515 250 515 Q348 515 401 469.5 Q454 424 454 325 L313 325 Z" /><glyph glyph-name="colon" unicode=":" d="M171 505 L171 373 L51 373 L51 505 L171 505 ZM171 0 L51 0 L51 132 L171 132 L171 0 Z" /><glyph glyph-name="comma" unicode="," d="M66 132 L197 132 L121 -97 L25 -97 L66 132 Z" /><glyph glyph-name="currency" unicode="¤" d="M22 181 Q5 213 -4 242 Q-13 271 -13 309 Q-13 346 -4.5 376.5 Q4 407 22 438 L-20 480 L56 560 L98 517 Q125 534 157.5 544.5 Q190 555 221 555 Q254 555 286.5 545 Q319 535 348 517 L391 560 L463 480 L422 438 Q440 408 449 377 Q458 346 458 310 Q458 276 449.5 242.5 Q441 209 422 181 L463 137 L391 58 L348 101 Q319 84 288.5 73.5 Q258 63 225 63 Q156 63 98 101 L56 58 L-20 137 L22 181 ZM223 447 Q196 447 174.5 434.5 Q153 422 137.5 402.5 Q122 383 113.5 358.5 Q105 334 105 310 Q105 286 113.5 261 Q122 236 137.5 216 Q153 196 174.5 183.5 Q196 171 223 171 Q250 171 271.5 183.5 Q293 196 308.5 216 Q324 236 332 261 Q340 286 340 310 Q340 334 332 358.5 Q324 383 308.5 402.5 Q293 422 271.5 434.5 Q250 447 223 447 Z" /><glyph glyph-name="d" unicode="d" d="M244 77 Q280 77 290.5 119.5 Q301 162 301 257 Q301 295 300.5 326.5 Q300 358 294.5 380.5 Q289 403 277.5 415.5 Q266 428 244 428 Q221 428 209 415.5 Q197 403 191.5 380.5 Q186 358 185 326.5 Q184 295 184 257 Q184 162 195 119.5 Q206 77 244 77 ZM308 0 L308 56 L306 56 Q286 19 257 4.5 Q228 -10 187 -10 Q132 -10 103.5 17 Q75 44 62 84 Q49 124 47.5 170.5 Q46 217 46 256 Q46 294 47.5 339.5 Q49 385 61.5 424 Q74 463 102.5 489 Q131 515 184 515 Q222 515 249.5 502 Q277 489 299 457 L301 457 L301 722 L442 722 L442 0 L308 0 Z" /><glyph glyph-name="divide" unicode="÷" d="M25 308 L475 308 L475 197 L25 197 L25 308 ZM186 385 L186 505 L314 505 L314 385 L186 385 ZM186 0 L186 120 L314 120 L314 0 L186 0 Z" /><glyph glyph-name="dollar" unicode="$" d="M243 95 Q267 100 281 117 Q295 134 295 169 Q295 202 280.5 223 Q266 244 243 261 L243 95 ZM200 289 Q170 307 138 328 Q106 349 79.5 377 Q53 405 36 441.5 Q19 478 19 526 Q19 570 33 602.5 Q47 635 71.5 657 Q96 679 129 691 Q162 703 200 707 L200 784 L243 784 L243 707 Q295 706 329.5 693 Q364 680 384.5 654.5 Q405 629 413.5 592 Q422 555 422 505 L290 505 Q291 520 289.5 536 Q288 552 283 566 Q278 580 268 590 Q258 600 243 603 L243 423 Q273 405 306.5 385 Q340 365 368 338 Q396 311 414.5 274 Q433 237 433 183 Q433 130 418 94.5 Q403 59 377.5 37 Q352 15 317 4.5 Q282 -6 243 -9 L243 -95 L200 -95 L200 -9 Q139 -9 102 7 Q65 23 44.5 51.5 Q24 80 17 120.5 Q10 161 10 211 L148 211 Q148 193 149 174 Q150 155 154.5 138.5 Q159 122 170 110 Q181 98 200 95 L200 289 ZM200 603 Q178 596 167.5 580.5 Q157 565 157 535 Q157 512 168.5 489.5 Q180 467 200 451 L200 603 Z" /><glyph glyph-name="e" unicode="e" d="M315 309 Q315 327 314.5 348 Q314 369 308 387 Q302 405 288.5 416.5 Q275 428 250 428 Q226 428 213 415.5 Q200 403 194 384.5 Q188 366 187 345.5 Q186 325 186 309 L315 309 ZM186 230 Q186 208 187.5 181.5 Q189 155 195 132.5 Q201 110 214 95 Q227 80 250 80 Q269 80 280.5 88 Q292 96 298.5 109 Q305 122 307.5 138 Q310 154 310 170 L453 170 Q450 85 399 39 Q374 16 337 3 Q300 -10 250 -10 Q182 -10 141 10 Q100 30 78.5 65.5 Q57 101 50.5 150.5 Q44 200 44 259 Q44 311 50 357.5 Q56 404 77 439 Q98 474 139 494.5 Q180 515 250 515 Q321 515 363 493.5 Q405 472 426 433.5 Q447 395 452.5 343 Q458 291 456 230 L186 230 Z" /><glyph glyph-name="eight" unicode="8" d="M222 312 Q198 312 185.5 298.5 Q173 285 167.5 265.5 Q162 246 161.5 225 Q161 204 161 188 Q161 173 163 156.5 Q165 140 171.5 125.5 Q178 111 190 102 Q202 93 222 93 Q242 93 254 102 Q266 111 272.5 125.5 Q279 140 281 156.5 Q283 173 283 188 Q283 204 282.5 225 Q282 246 276.5 265.5 Q271 285 258.5 298.5 Q246 312 222 312 ZM222 605 Q204 605 193 595.5 Q182 586 176 572 Q170 558 168.5 542.5 Q167 527 167 514 Q167 501 168.5 484.5 Q170 468 175.5 453.5 Q181 439 192 429.5 Q203 420 222 420 Q241 420 252 429.5 Q263 439 268.5 453.5 Q274 468 275.5 484.5 Q277 501 277 514 Q277 527 275.5 542.5 Q274 558 268 572 Q262 586 251 595.5 Q240 605 222 605 ZM222 -9 Q122 -9 71 35.5 Q20 80 20 179 Q20 211 23.5 240 Q27 269 38 293.5 Q49 318 69 337 Q89 356 123 368 L123 370 Q93 378 74.5 392 Q56 406 45 425.5 Q34 445 30 469.5 Q26 494 26 522 Q26 618 75.5 662.5 Q125 707 222 707 Q319 707 368.5 662.5 Q418 618 418 522 Q418 494 414 469.5 Q410 445 399 425.5 Q388 406 369.5 392 Q351 378 321 370 L321 368 Q355 356 375 337 Q395 318 406 293.5 Q417 269 420.5 240 Q424 211 424 179 Q424 80 373 35.5 Q322 -9 222 -9 Z" /><glyph glyph-name="equal" unicode="=" d="M475 295 L25 295 L25 406 L475 406 L475 295 ZM475 99 L25 99 L25 210 L475 210 L475 99 Z" /><glyph glyph-name="exclam" unicode="!" d="M214 193 L118 193 L96 722 L236 722 L214 193 ZM226 120 L226 0 L106 0 L106 120 L226 120 Z" /><glyph glyph-name="f" unicode="f" d="M273 635 Q230 638 217 621 Q204 604 204 566 L204 505 L270 505 L270 418 L204 418 L204 0 L63 0 L63 418 L0 418 L0 505 L64 505 Q64 559 64.5 600.5 Q65 642 78.5 670 Q92 698 125.5 712.5 Q159 727 223 727 Q236 727 248 726.5 Q260 726 273 725 L273 635 Z" /><glyph glyph-name="five" unicode="5" d="M175 416 L177 414 Q194 439 220.5 450 Q247 461 278 461 Q321 461 349.5 446.5 Q378 432 395.5 403 Q413 374 420 331 Q427 288 427 231 Q427 161 414 114.5 Q401 68 374.5 40.5 Q348 13 308 2 Q268 -9 214 -9 Q171 -9 136 0.5 Q101 10 76.5 30.5 Q52 51 40 84 Q28 117 29 164 L170 164 Q170 150 172 137 Q174 124 180 114 Q186 104 196 98.5 Q206 93 223 93 Q265 93 275.5 126.5 Q286 160 286 231 Q286 248 285.5 272 Q285 296 280 318 Q275 340 262.5 355.5 Q250 371 226 371 Q211 371 200.5 363.5 Q190 356 184 344 Q178 332 175.5 318.5 Q173 305 173 293 L37 293 L37 698 L402 698 L402 590 L175 590 L175 416 Z" /><glyph glyph-name="four" unicode="4" d="M22 300 Q64 399 93 466.5 Q122 534 140.5 578.5 Q159 623 169 647 Q179 671 184 682 Q189 693 190 695.5 Q191 698 191 698 L376 698 L376 267 L431 267 L431 159 L376 159 L376 0 L238 0 L238 159 L22 159 L22 300 ZM250 267 L259 600 L257 600 L130 267 L250 267 Z" /><glyph glyph-name="g" unicode="g" d="M182 237 Q182 219 182 194 Q182 170 187 147.5 Q192 125 205 109.5 Q218 94 243 94 Q281 94 291 133.5 Q301 173 301 254 Q301 296 299.5 328 Q298 360 292 382.5 Q286 405 275 416.5 Q264 428 244 428 Q224 428 212 420 Q200 412 193 390.5 Q186 369 184 332 Q182 295 182 237 ZM442 505 L442 -21 Q442 -34 439.5 -62.5 Q437 -91 419 -120.5 Q401 -150 362 -172 Q323 -194 250 -194 Q211 -194 175.5 -188 Q140 -182 113 -165.5 Q86 -149 69.5 -119.5 Q53 -90 52 -44 L190 -44 Q190 -60 192.5 -73 Q195 -86 202 -95 Q216 -115 249 -115 Q275 -115 288 -92 Q301 -69 301 -31 L301 66 L299 66 Q283 37 255 22 Q227 7 192 7 Q134 7 103.5 31 Q73 55 60 92.5 Q47 130 45.5 175 Q44 220 44 263 Q44 305 46.5 349.5 Q49 394 63.5 430.5 Q78 467 108 491 Q138 515 193 515 Q231 515 261 498 Q291 481 306 446 L308 446 L308 505 L442 505 Z" /><glyph glyph-name="grave" unicode="`" d="M135 722 L225 579 L160 579 L0 722 L135 722 Z" /><glyph glyph-name="greater" unicode="&gt;" d="M338 249 L41 416 L41 527 L458 300 L458 201 L41 -24 L41 87 L338 249 Z" /><glyph glyph-name="h" unicode="h" d="M303 0 L303 348 Q303 382 293.5 405 Q284 428 250 428 Q216 428 206.5 405 Q197 382 197 348 L197 0 L56 0 L56 722 L197 722 L197 454 L199 454 Q220 488 249 501.5 Q278 515 318 515 Q343 515 366 507.5 Q389 500 406 486 Q423 472 433.5 451.5 Q444 431 444 405 L444 0 L303 0 Z" /><glyph glyph-name="hyphen" unicode="-­" d="M289 321 L289 219 L44 219 L44 321 L289 321 Z" /><glyph glyph-name="i" unicode="i" d="M209 0 L68 0 L68 505 L209 505 L209 0 ZM209 722 L209 611 L68 611 L68 722 L209 722 Z" /><glyph glyph-name="j" unicode="j" d="M209 505 L209 -46 Q209 -125 176 -158 Q143 -191 78 -191 Q55 -191 31 -188 L31 -99 Q43 -99 55.5 -93 Q68 -87 68 -60 L68 505 L209 505 ZM209 722 L209 611 L68 611 L68 722 L209 722 Z" /><glyph glyph-name="k" unicode="k" d="M53 0 L53 722 L194 722 L194 292 L196 292 L323 505 L470 505 L327 280 L486 0 L327 0 L196 275 L194 275 L194 0 L53 0 Z" /><glyph glyph-name="l" unicode="l" d="M209 722 L209 0 L68 0 L68 722 L209 722 Z" /><glyph glyph-name="less" unicode="&lt;" d="M459 87 L459 -24 L42 201 L42 300 L459 527 L459 416 L162 249 L459 87 Z" /><glyph glyph-name="m" unicode="m" d="M186 454 L188 454 Q209 488 238 501.5 Q267 515 307 515 Q345 515 374 498 Q403 481 420 451 Q445 484 476 499.5 Q507 515 551 515 Q576 515 599 507.5 Q622 500 639 486 Q656 472 666.5 451.5 Q677 431 677 405 L677 0 L536 0 L536 348 Q536 382 526.5 405 Q517 428 483 428 Q449 428 439.5 405 Q430 382 430 348 L430 0 L292 0 L292 348 Q292 382 282.5 405 Q273 428 239 428 Q205 428 195.5 405 Q186 382 186 348 L186 0 L45 0 L45 505 L186 505 L186 454 Z" /><glyph glyph-name="mu" unicode="µ&#x3bc;" d="M303 51 L301 51 Q282 20 256.5 5.5 Q231 -9 197 -10 L197 -191 L56 -191 L56 505 L197 505 L197 155 Q197 121 206.5 99 Q216 77 250 77 Q284 77 293.5 99 Q303 121 303 155 L303 505 L444 505 L444 0 L303 0 L303 51 Z" /><glyph glyph-name="multiply" unicode="×" d="M25 400 L103 478 L250 331 L397 478 L475 400 L328 253 L475 106 L397 28 L250 175 L103 28 L25 106 L172 253 L25 400 Z" /><glyph glyph-name="n" unicode="n" d="M197 454 L199 454 Q220 488 249 501.5 Q278 515 318 515 Q343 515 366 507.5 Q389 500 406 486 Q423 472 433.5 451.5 Q444 431 444 405 L444 0 L303 0 L303 348 Q303 382 293.5 405 Q284 428 250 428 Q216 428 206.5 405 Q197 382 197 348 L197 0 L56 0 L56 505 L197 505 L197 454 Z" /><glyph glyph-name="nine" unicode="9" d="M160 487 Q160 471 161 450 Q162 429 167.5 410.5 Q173 392 185.5 379 Q198 366 220 366 Q243 366 255.5 379.5 Q268 393 274 412 Q280 431 281.5 452.5 Q283 474 283 490 Q283 507 282 527.5 Q281 548 275 567 Q269 586 256.5 598.5 Q244 611 221 611 Q198 611 185.5 597.5 Q173 584 167.5 565 Q162 546 161 524.5 Q160 503 160 487 ZM169 164 Q169 150 171 137.5 Q173 125 179 115 Q185 105 195 99 Q205 93 221 93 Q247 93 260 104.5 Q273 116 278 142.5 Q283 169 283 211 Q283 254 283 316 Q237 270 167 270 Q127 270 99 286.5 Q71 303 53 329.5 Q35 356 27 390 Q19 424 19 459 Q19 510 28 555.5 Q37 601 59.5 634.5 Q82 668 120.5 687.5 Q159 707 218 707 Q296 707 337.5 678 Q379 649 398.5 600 Q418 551 421 485.5 Q424 420 424 346 Q424 282 420.5 218 Q417 154 397 104 Q377 54 335.5 22.5 Q294 -9 217 -9 Q172 -9 136.5 -0.5 Q101 8 76.5 28 Q52 48 40 81.5 Q28 115 29 164 L169 164 Z" /><glyph glyph-name="numbersign" unicode="#" d="M172 295 L258 295 L272 403 L186 403 L172 295 ZM73 193 L-2 193 L-2 295 L86 295 L100 403 L27 403 L27 505 L113 505 L138 698 L224 698 L199 505 L285 505 L310 698 L396 698 L371 505 L446 505 L446 403 L358 403 L344 295 L417 295 L417 193 L331 193 L306 0 L220 0 L245 193 L159 193 L134 0 L48 0 L73 193 Z" /><glyph glyph-name="o" unicode="o" d="M250 80 Q270 80 282.5 87.5 Q295 95 302 115.5 Q309 136 312 172.5 Q315 209 315 267 Q315 306 313.5 336 Q312 366 305 385.5 Q298 405 285.5 415 Q273 425 250 425 Q228 425 215 415 Q202 405 195 385.5 Q188 366 186.5 336 Q185 306 185 267 Q185 209 188 172.5 Q191 136 198 115.5 Q205 95 218 87.5 Q231 80 250 80 ZM250 -10 Q182 -10 141 10 Q100 30 78.5 65.5 Q57 101 50.5 150.5 Q44 200 44 259 Q44 311 50 357.5 Q56 404 77 439 Q98 474 139 494.5 Q180 515 250 515 Q320 515 361 494.5 Q402 474 423 439 Q444 404 450 357.5 Q456 311 456 259 Q456 200 449.5 150.5 Q443 101 421.5 65.5 Q400 30 359 10 Q318 -10 250 -10 Z" /><glyph glyph-name="one" unicode="1" d="M49 590 Q87 611 122 637 Q157 663 184 698 L318 698 L318 0 L167 0 L167 537 Q140 514 110 495 Q80 476 49 459 L49 590 Z" /><glyph glyph-name="p" unicode="p" d="M254 77 Q292 77 303 119.5 Q314 162 314 257 Q314 295 313 326.5 Q312 358 306.5 380.5 Q301 403 289 415.5 Q277 428 254 428 Q232 428 220.5 415.5 Q209 403 204 380.5 Q199 358 198 326.5 Q197 295 197 257 Q197 162 207.5 119.5 Q218 77 254 77 ZM190 505 L190 449 L192 449 Q212 486 241 500.5 Q270 515 311 515 Q366 515 395 488 Q424 461 436.5 421 Q449 381 450.5 334.5 Q452 288 452 249 Q452 211 450.5 165.5 Q449 120 436.5 81 Q424 42 395.5 16 Q367 -10 314 -10 Q276 -10 248.5 3 Q221 16 199 48 L197 48 L197 -217 L56 -217 L56 505 L190 505 Z" /><glyph glyph-name="parenleft" unicode="(" d="M218 755 Q207 709 195.5 658.5 Q184 608 174.5 553 Q165 498 159 440.5 Q153 383 153 324 Q153 257 160 197 Q167 137 176.5 82.5 Q186 28 197.5 -22.5 Q209 -73 218 -121 L139 -121 Q121 -69 102.5 -13 Q84 43 68.5 99.5 Q53 156 43 213 Q33 270 33 325 Q33 381 44 441 Q55 501 71 558 Q87 615 105.5 666 Q124 717 139 755 L218 755 Z" /><glyph glyph-name="parenright" unicode=")" d="M60 -121 Q71 -75 82.5 -24.5 Q94 26 103.5 81 Q113 136 119 193.5 Q125 251 125 310 Q125 377 118 437 Q111 497 101.5 551.5 Q92 606 80.5 656.5 Q69 707 60 755 L139 755 Q157 703 175.5 647 Q194 591 209.5 534.5 Q225 478 235 421 Q245 364 245 309 Q245 253 234 193 Q223 133 207 76 Q191 19 172.5 -32 Q154 -83 139 -121 L60 -121 Z" /><glyph glyph-name="percent" unicode="%" d="M602 0 Q560 0 532.5 11.5 Q505 23 488.5 45.5 Q472 68 465 102 Q458 136 458 180 Q458 219 463.5 253.5 Q469 288 484.5 313.5 Q500 339 528.5 354 Q557 369 602 369 Q647 369 675.5 354 Q704 339 719.5 313.5 Q735 288 740.5 253.5 Q746 219 746 180 Q746 136 739.5 102 Q733 68 716.5 45.5 Q700 23 672 11.5 Q644 0 602 0 ZM602 79 Q635 79 643 104 Q651 129 651 191 Q651 204 650.5 221 Q650 238 645.5 253.5 Q641 269 631 279.5 Q621 290 602 290 Q583 290 573 279.5 Q563 269 558.5 253.5 Q554 238 553.5 221 Q553 204 553 191 Q553 129 561 104 Q569 79 602 79 ZM277 -21 L203 -21 L495 711 L569 711 L277 -21 ZM176 329 Q134 329 106.5 340.5 Q79 352 62.5 374.5 Q46 397 39 431 Q32 465 32 509 Q32 548 37.5 582.5 Q43 617 58.5 642.5 Q74 668 102.5 683 Q131 698 176 698 Q221 698 249.5 683 Q278 668 293.5 642.5 Q309 617 314.5 582.5 Q320 548 320 509 Q320 465 313.5 431 Q307 397 290.5 374.5 Q274 352 246 340.5 Q218 329 176 329 ZM176 408 Q209 408 217 433 Q225 458 225 520 Q225 533 224.5 550 Q224 567 219.5 582.5 Q215 598 205 608.5 Q195 619 176 619 Q157 619 147 608.5 Q137 598 132.5 582.5 Q128 567 127.5 550 Q127 533 127 520 Q127 458 135 433 Q143 408 176 408 Z" /><glyph glyph-name="period" unicode="." d="M171 132 L171 0 L51 0 L51 132 L171 132 Z" /><glyph glyph-name="plus" unicode="+" d="M195 505 L306 505 L306 308 L475 308 L475 197 L306 197 L306 0 L195 0 L195 197 L25 197 L25 308 L195 308 L195 505 Z" /><glyph glyph-name="plusminus" unicode="±" d="M195 515 L306 515 L306 382 L475 382 L475 271 L306 271 L306 138 L195 138 L195 271 L25 271 L25 382 L195 382 L195 515 ZM25 99 L475 99 L475 -12 L25 -12 L25 99 Z" /><glyph glyph-name="q" unicode="q" d="M246 77 Q282 77 292.5 119.5 Q303 162 303 257 Q303 295 302.5 326.5 Q302 358 296.5 380.5 Q291 403 279.5 415.5 Q268 428 246 428 Q223 428 211 415.5 Q199 403 193.5 380.5 Q188 358 187 326.5 Q186 295 186 257 Q186 162 197 119.5 Q208 77 246 77 ZM444 -217 L303 -217 L303 48 L301 48 Q279 16 251.5 3 Q224 -10 186 -10 Q133 -10 104.5 16 Q76 42 63.5 81 Q51 120 49.5 165.5 Q48 211 48 249 Q48 288 49.5 334.5 Q51 381 64 421 Q77 461 105.5 488 Q134 515 189 515 Q230 515 259 500.5 Q288 486 308 449 L310 449 L310 505 L444 505 L444 -217 Z" /><glyph glyph-name="question" unicode="?" d="M162 193 L162 296 Q162 329 179 362 Q196 395 216 428 Q236 461 252.5 494 Q269 527 269 560 Q269 590 257.5 611 Q246 632 211 632 Q191 632 180 622.5 Q169 613 164 598 Q159 583 158 564.5 Q157 546 157 529 L37 529 Q37 556 39.5 591 Q42 626 59.5 658 Q77 690 115 712 Q153 734 225 734 Q263 734 296.5 723.5 Q330 713 354.5 692.5 Q379 672 393 641.5 Q407 611 407 571 Q407 509 385 466.5 Q363 424 336 392 Q323 376 310 360.5 Q297 345 287 330 Q277 315 271 299 Q265 283 265 265 L265 193 L162 193 ZM155 0 L155 120 L275 120 L275 0 L155 0 Z" /><glyph glyph-name="quotedbl" unicode="&quot;" d="M198 463 L198 722 L318 722 L318 463 L198 463 ZM15 463 L15 722 L135 722 L135 463 L15 463 Z" /><glyph glyph-name="quotedblleft" unicode="&#x201c;" d="M360 525 L226 525 L299 722 L395 722 L360 525 ZM182 525 L48 525 L121 722 L217 722 L182 525 Z" /><glyph glyph-name="quotedblright" unicode="&#x201d;" d="M83 722 L217 722 L144 525 L48 525 L83 722 ZM261 722 L395 722 L322 525 L226 525 L261 722 Z" /><glyph glyph-name="quoteleft" unicode="&#x2018;" d="M160 525 L26 525 L99 722 L195 722 L160 525 Z" /><glyph glyph-name="quoteright" unicode="&#x2019;" d="M61 722 L195 722 L122 525 L26 525 L61 722 Z" /><glyph glyph-name="r" unicode="r" d="M190 505 L190 440 L192 440 Q212 484 246 499.5 Q280 515 323 515 L323 389 Q277 392 251.5 381.5 Q226 371 214 353.5 Q202 336 199.5 315 Q197 294 197 275 L197 0 L56 0 L56 505 L190 505 Z" /><glyph glyph-name="s" unicode="s" d="M166 162 Q165 145 166.5 129 Q168 113 173 101 Q179 89 191 83 Q203 77 224 77 Q245 77 260.5 90 Q276 103 276 129 Q276 156 257.5 173 Q239 190 211.5 204 Q184 218 152 231 Q120 244 92.5 262 Q65 280 46.5 306.5 Q28 333 28 373 Q28 414 46.5 441 Q65 468 93.5 484.5 Q122 501 157.5 508 Q193 515 227 515 Q263 515 296 506 Q329 497 353.5 478.5 Q378 460 391.5 430.5 Q405 401 402 360 L264 360 Q264 412 250 425 Q243 432 234 434 Q225 436 214 436 Q191 436 178.5 422 Q166 408 166 382 Q166 362 184.5 348 Q203 334 230.5 321 Q258 308 290 294 Q322 280 349.5 260 Q377 240 395.5 212.5 Q414 185 414 144 Q414 111 401 83 Q388 55 363.5 34 Q339 13 304 1.5 Q269 -10 225 -10 Q179 -10 141.5 -3 Q104 4 77.5 23 Q51 42 38 75.5 Q25 109 28 162 L166 162 Z" /><glyph glyph-name="semicolon" unicode=";&#x37e;" d="M53 132 L184 132 L108 -97 L12 -97 L53 132 ZM51 375 L51 505 L171 505 L171 375 L51 375 Z" /><glyph glyph-name="seven" unicode="7" d="M406 565 L236 0 L79 0 L270 590 L31 590 L31 698 L406 698 L406 565 Z" /><glyph glyph-name="six" unicode="6" d="M218 93 Q236 93 248.5 99 Q261 105 268.5 120 Q276 135 279.5 161.5 Q283 188 283 228 Q283 294 271 324.5 Q259 355 219 355 Q198 355 186.5 345.5 Q175 336 169 318.5 Q163 301 161.5 275 Q160 249 160 216 Q160 201 161 179.5 Q162 158 167.5 139 Q173 120 184.5 106.5 Q196 93 218 93 ZM270 547 Q272 575 261 592 Q255 601 245.5 606 Q236 611 221 611 Q198 611 185 603.5 Q172 596 166 573.5 Q160 551 158.5 510 Q157 469 157 403 Q172 416 184 425 Q196 434 208.5 440 Q221 446 235.5 448.5 Q250 451 269 451 Q318 451 348 431.5 Q378 412 395 380.5 Q412 349 418 309 Q424 269 424 229 Q424 175 413.5 131 Q403 87 378 56 Q353 25 313 8 Q273 -9 214 -9 Q146 -9 107 17.5 Q68 44 48.5 87 Q29 130 24 183 Q19 236 19 290 Q19 394 24.5 472.5 Q30 551 51.5 603 Q73 655 115.5 681 Q158 707 233 707 Q273 707 306.5 698 Q340 689 365 670 Q390 651 403.5 620.5 Q417 590 417 547 L270 547 Z" /><glyph glyph-name="slash" unicode="/" d="M-32 -96 L207 722 L309 722 L71 -96 L-32 -96 Z" /><glyph glyph-name="t" unicode="t" d="M-1 505 L56 505 L56 585 L197 648 L197 505 L270 505 L270 418 L197 418 L197 148 Q197 134 197.5 122.5 Q198 111 202 102.5 Q206 94 215.5 89.5 Q225 85 242 85 Q249 85 255 85 Q262 85 267 87 L267 0 Q253 -2 236.5 -3.5 Q220 -5 194 -5 Q148 -5 121 8 Q94 21 79.5 39 Q65 57 60.5 76 Q56 95 56 107 L56 418 L-1 418 L-1 505 Z" /><glyph glyph-name="three" unicode="3" d="M20 524 Q20 578 32 613.5 Q44 649 68 670 Q92 690 129.5 698.5 Q167 707 220 707 Q318 707 364.5 664 Q411 621 411 521 Q411 496 407 470.5 Q403 445 392 423 Q381 401 363 385.5 Q345 370 316 366 L316 364 Q350 358 371 342 Q392 326 403 303 Q414 280 418 252 Q422 224 422 194 Q422 86 366 38.5 Q310 -9 204 -9 Q152 -9 115.5 1 Q79 11 56 34 Q33 57 22.5 95 Q12 133 12 189 L153 189 Q153 172 153.5 154.5 Q154 137 159.5 123.5 Q165 110 177 101.5 Q189 93 212 93 Q236 93 250 103 Q264 113 270.5 128.5 Q277 144 279 163.5 Q281 183 281 201 Q281 239 274.5 260.5 Q268 282 252.5 292.5 Q237 303 212 305.5 Q187 308 150 308 L150 419 Q185 418 208 420 Q231 422 244.5 432.5 Q258 443 264 464.5 Q270 486 270 522 Q270 536 268.5 551 Q267 566 261 578 Q255 590 244.5 597.5 Q234 605 216 605 Q197 605 186 598 Q175 591 169.5 579.5 Q164 568 162.5 553.5 Q161 539 161 524 L20 524 Z" /><glyph glyph-name="two" unicode="2" d="M12 0 L12 123 Q67 196 108 249 Q149 302 178.5 341 Q208 380 227.5 407.5 Q247 435 258 456.5 Q269 478 273.5 496.5 Q278 515 278 537 Q278 563 266.5 584 Q255 605 225 605 Q203 605 191 595.5 Q179 586 173 571.5 Q167 557 165.5 539.5 Q164 522 164 505 L23 505 Q15 603 66.5 655 Q118 707 215 707 Q260 707 297.5 697.5 Q335 688 362 666.5 Q389 645 404 610.5 Q419 576 419 527 Q419 488 405 447.5 Q391 407 368.5 367.5 Q346 328 318 290.5 Q290 253 261 219.5 Q232 186 205.5 157.5 Q179 129 160 108 L426 108 L426 0 L12 0 Z" /><glyph glyph-name="u" unicode="u" d="M303 51 L301 51 Q280 17 251 3.5 Q222 -10 182 -10 Q157 -10 134 -2.5 Q111 5 94 19 Q77 33 66.5 53.5 Q56 74 56 100 L56 505 L197 505 L197 155 Q197 121 206.5 99 Q216 77 250 77 Q284 77 293.5 99 Q303 121 303 155 L303 505 L444 505 L444 100 Q444 75 445.5 50 Q447 25 449 0 L303 0 L303 51 Z" /><glyph glyph-name="underscore" unicode="_" d="M0 -124 L0 -68 L500 -68 L500 -124 L0 -124 Z" /><glyph glyph-name="v" unicode="v" d="M8 505 L151 505 L222 126 L224 126 L298 505 L436 505 L297 0 L142 0 L8 505 Z" /><glyph glyph-name="w" unicode="w" d="M11 505 L151 505 L220 125 L222 125 L319 505 L465 505 L554 125 L556 125 L632 505 L767 505 L630 0 L482 0 L391 345 L389 345 L287 0 L137 0 L11 505 Z" /><glyph glyph-name="x" unicode="x" d="M145 0 L5 0 L154 265 L17 505 L175 505 L249 352 L334 505 L475 505 L340 263 L485 0 L326 0 L238 177 L145 0 Z" /><glyph glyph-name="y" unicode="y" d="M146 -4 L9 505 L149 505 L221 150 L223 150 L299 505 L435 505 L240 -191 L92 -191 L146 -4 Z" /><glyph glyph-name="z" unicode="z" d="M363 405 L162 90 L366 90 L366 0 L23 0 L23 100 L221 415 L30 415 L30 505 L363 505 L363 405 Z" /><glyph glyph-name="zero" unicode="0" d="M222 707 Q287 707 326.5 689 Q366 671 387.5 629 Q409 587 416.5 519 Q424 451 424 351 Q424 269 419 202.5 Q414 136 393.5 89 Q373 42 333 16.5 Q293 -9 222 -9 Q152 -9 111.5 16.5 Q71 42 50.5 89 Q30 136 25 202.5 Q20 269 20 351 Q20 451 27.5 519 Q35 587 56.5 629 Q78 671 118 689 Q158 707 222 707 ZM222 605 Q200 605 187.5 595 Q175 585 169 557.5 Q163 530 162 480 Q161 430 161 349 Q161 270 162.5 220 Q164 170 170.5 142 Q177 114 189 103.5 Q201 93 222 93 Q243 93 255 103.5 Q267 114 273.5 142 Q280 170 281.5 220 Q283 270 283 349 Q283 430 282 480 Q281 530 275 557.5 Q269 585 257 595 Q245 605 222 605 Z" /></font>
</defs>
</svg>
