<svg xmlns="http://www.w3.org/2000/svg" xmlns:xlink="http://www.w3.org/1999/xlink" width="20" height="35" viewBox="0 0 20 35">
  <defs>
    <clipPath id="clip-path">
      <rect id="crop" width="20" height="35" fill="#fff"/>
    </clipPath>
    <clipPath id="clip-path-2">
      <path id="路径_7470" data-name="路径 7470" d="M17.043,35.044l-17-17a2.92,2.92,0,0,1,0-1l17-17a2.658,2.658,0,0,1,1,0l2,2a2.592,2.592,0,0,1,0,1l-14,14a.9.9,0,0,0,0,1l14,14a2.561,2.561,0,0,1,0,1l-2,2A2.665,2.665,0,0,1,17.043,35.044Z" fill="#fff" clip-rule="evenodd"/>
    </clipPath>
    <clipPath id="clip-path-3">
      <rect id="矩形_2612" data-name="矩形 2612" width="750" height="1334" fill="#fff"/>
    </clipPath>
  </defs>
  <g id="Path" transform="translate(20 35) rotate(180)" clip-path="url(#clip-path)">
    <g id="组_15033" data-name="组 15033" transform="translate(0 0)">
      <g id="组_15032" data-name="组 15032" clip-path="url(#clip-path-2)">
        <g id="组_15031" data-name="组 15031" transform="translate(-20.957 -66.956)">
          <g id="组_15030" data-name="组 15030" clip-path="url(#clip-path-3)">
            <rect id="矩形_2611" data-name="矩形 2611" width="30.087" height="45.088" transform="translate(15.957 61.956)" fill="#fff"/>
          </g>
        </g>
      </g>
    </g>
  </g>
</svg>
