<svg xmlns="http://www.w3.org/2000/svg" xmlns:xlink="http://www.w3.org/1999/xlink" width="90" height="90" viewBox="0 0 90 90">
  <defs>
    <clipPath id="clip-path">
      <rect id="矩形_1497" data-name="矩形 1497" width="90" height="90" rx="45" fill="#e1f0ff"/>
    </clipPath>
  </defs>
  <g id="avatar_boy" transform="translate(-95 -1384)">
    <rect id="矩形_3196" data-name="矩形 3196" width="90" height="90" rx="45" transform="translate(95 1384)" fill="#e1f0ff"/>
    <g id="蒙版组_24" data-name="蒙版组 24" transform="translate(95 1384)" clip-path="url(#clip-path)">
      <g id="组_15808" data-name="组 15808" transform="translate(11.239 14.842)">
        <path id="路径_7924" data-name="路径 7924" d="M81.9,171.97c-2.711-7.812-10.238-12.7-12.592-14.093C64.268,154.865,57.4,153,54.714,152.263c-2.658-.739-2.247-.739-2.6,0a4.146,4.146,0,0,1-3.558,1.972,4.015,4.015,0,0,1-3.367-1.207c-.41-.383-.354-1.472-.931-1.4a53.817,53.817,0,0,0-16.209,5.614c-2.492,1.423-10.614,5.656-13.813,14.722,10.149-.18,57.586-.18,67.663,0Z" transform="translate(-14.235 -97.112)" fill="#323543"/>
        <path id="路径_7925" data-name="路径 7925" d="M89.707,132.181c2.265,0,4.095,2.354,4.095,5.287v4.764c0,2.933-1.86,5.287-4.095,5.287-2.265,0-4.095-2.354-4.095-5.287v-4.764c-.031-2.933,1.829-5.287,4.095-5.287" transform="translate(-55.563 -85.851)" fill="#f8c6b2"/>
        <path id="路径_7926" data-name="路径 7926" d="M47.25,95.6a4.643,4.643,0,0,0,4.638,4.648H51.9a4.643,4.643,0,0,0,4.648-4.638V95.6a4.641,4.641,0,0,0-4.636-4.645H51.9A4.657,4.657,0,0,0,47.25,95.6m31.2,0a4.671,4.671,0,1,0,4.678-4.678A4.712,4.712,0,0,0,78.447,95.6" transform="translate(-33.351 -61.96)" fill="#f9d2bb"/>
        <path id="路径_7927" data-name="路径 7927" d="M86.854,171.1s2.527,2.091,3.572,2.091a8.591,8.591,0,0,0,3.427-2,32.991,32.991,0,0,0-3.194-3.194h-.667Z" transform="translate(-56.282 -106.587)" fill="#c8161e"/>
        <path id="路径_7928" data-name="路径 7928" d="M85.812,151.63c0-.348,5.579,1.248,5.579,1.248a33.608,33.608,0,0,1-2.179,5.287c-1.306,2.5-2.9,5.46-3.4,5.46-.464,0-2-2.151-3.864-5.171a11.985,11.985,0,0,0,2.643-3.4,19.57,19.57,0,0,0,1.22-3.425Zm-8.22-.059c0-.348-5.779,1.279-5.779,1.279a33.629,33.629,0,0,0,2.179,5.287c1.307,2.5,2.9,5.462,3.4,5.462.464,0,2-2.149,3.864-5.17a11.956,11.956,0,0,1-2.644-3.4,21.421,21.421,0,0,1-1.02-3.458Z" transform="translate(-47.573 -97.05)" fill="#fff"/>
        <path id="路径_7929" data-name="路径 7929" d="M56.705,54.916V67.873c0,6.477,6.652,16.381,16.5,16.381,10.138,0,16.5-9.9,16.5-16.381V54.916a16.487,16.487,0,0,0-16.475-16.5H73.2a16.486,16.486,0,0,0-16.5,16.475Z" transform="translate(-38.826 -31.561)" fill="#fbdfcc"/>
        <path id="路径_7930" data-name="路径 7930" d="M126.373,59.65c.058,5.462-1.017,6.36-1.017,6.36s3.166-1.074,4.328-8.017a116.743,116.743,0,0,0,1.365-12.4l-11.008.725a17.8,17.8,0,0,1,6.333,13.334" transform="translate(-75.497 -35.714)" fill="#5f4347"/>
        <path id="路径_7931" data-name="路径 7931" d="M90.127,29.511c-.9.609-6.36.289-9.846-2.382-8.712-6.769-19.867-6.244-26.636-.929-5.345,4.181-7.814,12.518-5.171,25.182a7.992,7.992,0,0,0,1.307,1.132,11.248,11.248,0,0,0,1.86.931s-.784-8.105.611-10.31c1.307-2.093,3.369-5.462,8.336-4.822,12.4,1.57,30.035.495,30.441-8.306-.061-.061.056-1.106-.9-.495" transform="translate(-33.442 -22.131)" fill="#4b3335"/>
      </g>
    </g>
  </g>
</svg>
