<svg id="默认头像_180_180" data-name="默认头像 180*180" xmlns="http://www.w3.org/2000/svg" width="110" height="110" viewBox="0 0 110 110">
  <path id="路径_5414" data-name="路径 5414" d="M110,54.945a55,55,0,1,0-55,54.949,54.977,54.977,0,0,0,55-54.949" fill="#fff"/>
  <path id="路径_5415" data-name="路径 5415" d="M70.352,146.053a49.87,49.87,0,0,1,36.539,15.8C104.9,164.85,89.744,175.543,70.47,175.5s-35.381-11.385-36.657-13.648a49.87,49.87,0,0,1,36.539-15.8Z" transform="translate(-15.354 -65.504)" fill="#ff6f00"/>
  <path id="路径_5416" data-name="路径 5416" d="M92.644,120.08a8.727,8.727,0,0,1,8.728,8.724v8.728a8.727,8.727,0,0,1-17.451,0V128.8A8.728,8.728,0,0,1,92.644,120.08Z" transform="translate(-37.646 -53.883)" fill="#ffdebb"/>
  <path id="路径_5417" data-name="路径 5417" d="M51.947,72.879V51.8c0-5.845,5.918-11.647,11.886-11.647H92.421c5.968,0,11.882,5.8,11.882,11.647V72.879Z" transform="translate(-23.127 -17.999)" fill="#353535"/>
  <path id="路径_5418" data-name="路径 5418" d="M43.958,97.743a7.752,7.752,0,0,0,15.5.334c0-.111,0-.222,0-.334a7.754,7.754,0,0,0-15.5,0Zm46.5,0a7.752,7.752,0,0,0,15.5,0v0a7.752,7.752,0,0,0-15.5,0Z" transform="translate(-19.96 -40.488)" fill="#ffdebb"/>
  <path id="路径_5419" data-name="路径 5419" d="M81.755,54.14a21.815,21.815,0,0,1,21.815,21.815h0v8.728a21.815,21.815,0,1,1-43.629,0h0V75.955A21.815,21.815,0,0,1,81.755,54.14Z" transform="translate(-26.757 -24.159)" fill="#ffeddc"/>
  <path id="路径_5420" data-name="路径 5420" d="M86.84,46.755c8.673,0,15.7-3.924,15.7-8.764V26.96q-10.852,2.266-15.7,2.267c-8.669,0-15.7,3.923-15.7,8.764S78.171,46.755,86.84,46.755Z" transform="translate(-31.842 -12.242)" fill="#353535"/>
</svg>
