<svg xmlns="http://www.w3.org/2000/svg" xmlns:xlink="http://www.w3.org/1999/xlink" width="88" height="88" viewBox="0 0 88 88">
  <defs>
    <clipPath id="clip-path">
      <rect id="矩形_1497" data-name="矩形 1497" width="88" height="88" rx="44" fill="#e1f0ff"/>
    </clipPath>
    <clipPath id="clip-path-2">
      <path id="矩形_22349" data-name="矩形 22349" d="M14.884,0h0A14.884,14.884,0,0,1,29.768,14.884v4.961a0,0,0,0,1,0,0H0a0,0,0,0,1,0,0V14.884A14.884,14.884,0,0,1,14.884,0Z" transform="translate(0)" fill="#462400"/>
    </clipPath>
    <clipPath id="clip-path-3">
      <path id="路径_94762" data-name="路径 94762" d="M62.351,168.468c-.837-4.918-3.6-8.119-8.954-11.417a38.347,38.347,0,0,0-11.973-4.418,2.323,2.323,0,0,0-.253.51,2.887,2.887,0,0,1-2.53,1.6,2.679,2.679,0,0,1-2.394-.977c-.292-.31-.252-1.193-.662-1.13a32.013,32.013,0,0,0-11.526,3.908c-4.011,2.4-8.727,5.5-9.822,11.927C21.452,168.322,62.351,168.468,62.351,168.468Z" transform="translate(-14.235 -152.63)" fill="#f9d2bb"/>
    </clipPath>
  </defs>
  <g id="组_39387" data-name="组 39387" transform="translate(-95 -1384)">
    <path id="路径_112009" data-name="路径 112009" d="M43.9,0A43.9,43.9,0,1,1,0,43.9,43.9,43.9,0,0,1,43.9,0Z" transform="translate(95 1384)" fill="#f4897d"/>
    <g id="蒙版组_24" data-name="蒙版组 24" transform="translate(95 1384)" clip-path="url(#clip-path)">
      <g id="组_15808" data-name="组 15808" transform="translate(2.887 22.722)">
        <path id="路径_7924" data-name="路径 7924" d="M72.4,169.116C70.072,162.4,63.6,158.2,61.577,157c-4.331-2.589-10.238-4.19-12.544-4.826-2.285-.636-1.932-.636-2.237,0a3.564,3.564,0,0,1-3.059,1.7,3.452,3.452,0,0,1-2.895-1.037c-.353-.329-.3-1.266-.8-1.2a46.264,46.264,0,0,0-13.934,4.826c-2.142,1.223-9.125,4.862-11.874,12.656,8.725-.155,49.5-.155,58.168,0Z" transform="translate(-14.234 -104.763)" fill="#3c1f00"/>
        <path id="路径_7925" data-name="路径 7925" d="M89.132,132.181c1.947,0,3.52,2.024,3.52,4.545v4.1c0,2.521-1.6,4.545-3.52,4.545-1.947,0-3.52-2.024-3.52-4.545v-4.1c-.026-2.521,1.573-4.545,3.52-4.545" transform="translate(-59.779 -92.353)" fill="#ffd3ce"/>
        <path id="路径_7926" data-name="路径 7926" d="M47.25,94.941a3.991,3.991,0,0,0,3.988,4h.008a3.992,3.992,0,0,0,4-3.988v-.008a3.99,3.99,0,0,0-3.986-3.993h-.01a4,4,0,0,0-4,3.993m26.819,0a4.015,4.015,0,1,0,4.022-4.022,4.051,4.051,0,0,0-4.022,4.022" transform="translate(-35.301 -66.024)" fill="#ffd3ce"/>
        <path id="路径_7927" data-name="路径 7927" d="M86.854,170.666s2.172,1.8,3.071,1.8a7.385,7.385,0,0,0,2.946-1.723,28.359,28.359,0,0,0-2.746-2.746h-.574Z" transform="translate(-60.572 -115.205)" fill="#bdbdbd"/>
        <path id="路径_7928" data-name="路径 7928" d="M83.848,151.615c0-.3,4.8,1.073,4.8,1.073a28.893,28.893,0,0,1-1.874,4.545c-1.123,2.146-2.5,4.694-2.922,4.694-.4,0-1.723-1.849-3.322-4.445A10.3,10.3,0,0,0,82.8,154.56a16.823,16.823,0,0,0,1.049-2.945Zm-7.067-.05c0-.3-4.968,1.1-4.968,1.1a28.907,28.907,0,0,0,1.873,4.545c1.123,2.148,2.5,4.7,2.922,4.7.4,0,1.723-1.847,3.322-4.445a10.278,10.278,0,0,1-2.273-2.922,18.415,18.415,0,0,1-.877-2.973Z" transform="translate(-50.974 -104.695)" fill="#fff"/>
        <path id="路径_7929" data-name="路径 7929" d="M56.7,52.6V63.739c0,5.568,5.718,14.082,14.183,14.082,8.715,0,14.183-8.514,14.183-14.082V52.6A14.173,14.173,0,0,0,70.908,38.418h-.02A14.173,14.173,0,0,0,56.7,52.581Z" transform="translate(-41.334 -32.524)" fill="#ffd3ce"/>
        <path id="路径_7930" data-name="路径 7930" d="M125.484,57.677c.05,4.7-.874,5.468-.874,5.468s2.722-.923,3.72-6.892A100.356,100.356,0,0,0,129.5,45.59l-9.463.624a15.3,15.3,0,0,1,5.444,11.463" transform="translate(-81.747 -37.1)" fill="#3c1f00"/>
        <path id="路径_7931" data-name="路径 7931" d="M84.132,28.475c-.774.523-5.468.249-8.464-2.048-7.489-5.819-17.079-5.368-22.9-.8-4.6,3.595-6.717,10.761-4.445,21.649a6.87,6.87,0,0,0,1.123.973,9.669,9.669,0,0,0,1.6.8s-.674-6.968.525-8.864c1.123-1.8,2.9-4.7,7.167-4.146,10.663,1.35,25.82.425,26.169-7.141-.052-.052.048-.951-.776-.425" transform="translate(-35.401 -22.131)" fill="#3c1f00"/>
      </g>
      <g id="组_38454" data-name="组 38454" transform="translate(36.998 34.634)">
        <path id="路径_112010" data-name="路径 112010" d="M14.884,0A14.884,14.884,0,0,1,29.768,14.884V35.228H0V14.884A14.884,14.884,0,0,1,14.884,0Z" transform="translate(10.078 0.001)" fill="#462400"/>
        <path id="路径_94750" data-name="路径 94750" d="M62.351,168.468c-.247-5.756-7.28-10.286-8.954-11.417-3.582-2.44-8.469-3.309-10.376-3.908-1.89-.6-1.6-.6-1.85,0a2.887,2.887,0,0,1-2.53,1.6,2.679,2.679,0,0,1-2.394-.977c-.292-.31-.252-1.193-.662-1.13-3.113.469-8.41,1.866-11.526,3.908-1.772,1.153-8.892,4.845-9.822,11.927,7.217-.146,40.95-.146,48.116,0Z" transform="translate(-14.235 -115.102)" fill="#462400"/>
        <path id="路径_94751" data-name="路径 94751" d="M88.524,132.181c1.611,0,2.912,1.86,2.912,4.178V144.6c0,2.318-1.323,4.178-2.912,4.178-1.611,0-2.912-1.86-2.912-4.178v-8.245c-.022-2.317,1.3-4.178,2.912-4.178" transform="translate(-64.243 -107.025)" fill="#ffd3ce"/>
        <path id="路径_94752" data-name="路径 94752" d="M47.25,94.16a3.217,3.217,0,0,0,3.214,3.22h.006a3.217,3.217,0,0,0,3.22-3.214V94.16a3.215,3.215,0,0,0-3.212-3.218H50.47a3.226,3.226,0,0,0-3.22,3.218m21.613,0A3.236,3.236,0,1,0,72.1,90.919a3.265,3.265,0,0,0-3.241,3.241" transform="translate(-36.59 -73.875)" fill="#ffd3ce"/>
        <path id="路径_94753" data-name="路径 94753" d="M56.7,49.848v8.976c0,4.487,4.608,11.349,11.43,11.349,7.023,0,11.43-6.862,11.43-11.349V49.848a11.422,11.422,0,0,0-11.414-11.43h-.016A11.421,11.421,0,0,0,56.7,49.832Z" transform="translate(-43.287 -36.687)" fill="#ffd3ce"/>
        <g id="蒙版组_179" data-name="蒙版组 179" transform="translate(10.078 0)" clip-path="url(#clip-path-2)">
          <path id="联合_32" data-name="联合 32" d="M31.956,25.359a17.145,17.145,0,1,1,2.085-8.833,11.52,11.52,0,1,1-2.085,8.833Z" transform="translate(-12.767 -16.951)" fill="#462400"/>
        </g>
        <path id="路径_94763" data-name="路径 94763" d="M81.208,151.6c0-.247,5.318,1.37,5.318,1.37a8.79,8.79,0,0,1-1.531,3.5c-.8,1.252-2.264,2.922-3.787,2.371a4.419,4.419,0,0,1-2.58-3.169A3.218,3.218,0,0,0,80.5,154.21a7.075,7.075,0,0,0,.712-2.61Zm-5.846-.042c0-.247-5.1,1-5.1,1a8.323,8.323,0,0,0,1.715,4.194c1.235,1.643,2.239,2.2,3.39,2.089s1.981-1.577,2.631-3.169a3.851,3.851,0,0,1-1.823-1.462,7.232,7.232,0,0,1-.809-2.651Z" transform="translate(-54.016 -113.934)" fill="#fff"/>
      </g>
    </g>
  </g>
</svg>
