<svg xmlns="http://www.w3.org/2000/svg" xmlns:xlink="http://www.w3.org/1999/xlink" width="90" height="90" viewBox="0 0 90 90">
  <defs>
    <clipPath id="clip-path">
      <rect id="矩形_22352" data-name="矩形 22352" width="90" height="90" rx="45" fill="#ffe6ef"/>
    </clipPath>
    <clipPath id="clip-path-2">
      <path id="矩形_22349" data-name="矩形 22349" d="M21,0h0A21,21,0,0,1,42,21v8a0,0,0,0,1,0,0H0a0,0,0,0,1,0,0V21A21,21,0,0,1,21,0Z" transform="translate(-0.092 -0.235)" fill="#4b3335"/>
    </clipPath>
    <clipPath id="clip-path-3">
      <path id="路径_94762" data-name="路径 94762" d="M82.646,175.148c-1.19-6.993-5.116-11.543-12.731-16.232s-17.023-6.282-17.023-6.282a3.3,3.3,0,0,0-.36.725,4.1,4.1,0,0,1-3.6,2.271,3.809,3.809,0,0,1-3.4-1.39c-.415-.441-.358-1.7-.941-1.607A45.516,45.516,0,0,0,28.2,158.19c-5.7,3.418-12.408,7.823-13.965,16.958C24.5,174.941,82.646,175.148,82.646,175.148Z" transform="translate(-14.235 -152.63)" fill="#f9d2bb"/>
    </clipPath>
  </defs>
  <g id="avatar_girl" transform="translate(-202 -450)">
    <rect id="矩形_22351" data-name="矩形 22351" width="90" height="90" rx="45" transform="translate(202 450)" fill="#ffe8f0"/>
    <g id="蒙版组_181" data-name="蒙版组 181" transform="translate(202 450)" clip-path="url(#clip-path)">
      <g id="组_26611" data-name="组 26611" transform="translate(11.05 15.235)">
        <path id="矩形_22346" data-name="矩形 22346" d="M21,0h0A21,21,0,0,1,42,21V69a0,0,0,0,1,0,0H0a0,0,0,0,1,0,0V21A21,21,0,0,1,21,0Z" transform="translate(13.95 -0.235)" fill="#4b3335"/>
        <path id="路径_94750" data-name="路径 94750" d="M82.646,175.148c-.352-8.183-10.351-14.625-12.731-16.232-5.093-3.469-12.041-4.7-14.753-5.556-2.687-.852-2.272-.852-2.63,0a4.1,4.1,0,0,1-3.6,2.271,3.809,3.809,0,0,1-3.4-1.39c-.415-.441-.358-1.7-.941-1.607-4.425.667-11.958,2.654-16.388,5.556-2.519,1.639-12.643,6.889-13.965,16.957,10.261-.207,58.222-.207,68.411,0Z" transform="translate(-14.235 -99.274)" fill="#fe658e"/>
        <path id="路径_94751" data-name="路径 94751" d="M89.752,132.181c2.29,0,4.14,2.645,4.14,5.94v11.722c0,3.3-1.88,5.94-4.14,5.94-2.29,0-4.14-2.645-4.14-5.94V138.121c-.031-3.295,1.849-5.94,4.14-5.94" transform="translate(-55.231 -96.415)" fill="#f9d2bb"/>
        <path id="路径_94752" data-name="路径 94752" d="M47.25,95.527a4.573,4.573,0,0,0,4.569,4.578h.009a4.574,4.574,0,0,0,4.578-4.569v-.009a4.571,4.571,0,0,0-4.567-4.576h-.011a4.587,4.587,0,0,0-4.578,4.576m30.729,0a4.6,4.6,0,1,0,4.608-4.608,4.642,4.642,0,0,0-4.608,4.608" transform="translate(-32.094 -66.688)" fill="#f9d2bb"/>
        <path id="路径_94753" data-name="路径 94753" d="M56.705,54.669V67.431c0,6.38,6.552,16.136,16.25,16.136,9.986,0,16.251-9.756,16.251-16.136V54.669A16.24,16.24,0,0,0,72.979,38.418h-.023a16.239,16.239,0,0,0-16.25,16.228Z" transform="translate(-37.628 -35.958)" fill="#fbdfcc"/>
        <g id="蒙版组_179" data-name="蒙版组 179" transform="translate(14.043 0)" clip-path="url(#clip-path-2)">
          <path id="联合_32" data-name="联合 32" d="M45.436,36.056A24.377,24.377,0,1,1,48.4,23.5a16.379,16.379,0,1,1-2.964,12.559Z" transform="translate(-17.866 -24.102)" fill="#4b3335"/>
        </g>
        <path id="路径_94763" data-name="路径 94763" d="M85.827,151.632c0-.352,7.561,1.947,7.561,1.947a12.5,12.5,0,0,1-2.176,4.977c-1.143,1.781-3.219,4.155-5.385,3.371s-3.1-2.679-3.668-4.506a4.575,4.575,0,0,0,2.655-2.078c.937-1.661.71-2.52,1.013-3.71Zm-8.311-.059c0-.352-7.257,1.42-7.257,1.42a11.833,11.833,0,0,0,2.438,5.964c1.757,2.336,3.183,3.128,4.819,2.97s2.816-2.242,3.741-4.506a5.475,5.475,0,0,1-2.591-2.078c-.945-1.515-.826-2.564-1.15-3.769Z" transform="translate(-47.165 -98.079)" fill="#fff"/>
      </g>
    </g>
  </g>
</svg>
