<svg xmlns="http://www.w3.org/2000/svg" width="136" height="165" viewBox="0 0 136 165">
  <g id="组_15702" data-name="组 15702" transform="translate(-533 -281)">
    <rect id="矩形_1" data-name="矩形 1" width="136" height="165" transform="translate(533 281)" fill="#fffaec"/>
    <g id="组_15393" data-name="组 15393" transform="translate(558.064 297.254)">
      <path id="路径_5415" data-name="路径 5415" d="M76.5,146.053a58.15,58.15,0,0,1,42.689,18.54c-2.325,3.514-20.034,16.059-42.552,16.012S35.3,167.249,33.813,164.593A58.15,58.15,0,0,1,76.5,146.053Z" transform="translate(-33.813 -69.178)" fill="#ffe18b"/>
      <path id="路径_5416" data-name="路径 5416" d="M94.155,120.08a10.239,10.239,0,0,1,10.239,10.235v10.239a10.239,10.239,0,0,1-20.474,0V130.315A10.239,10.239,0,0,1,94.155,120.08Z" transform="translate(-51.466 -59.966)" fill="#ffdebb"/>
      <path id="路径_5417" data-name="路径 5417" d="M51.947,78.548V53.817c0-6.858,6.943-13.664,13.945-13.664h33.54c7,0,13.941,6.806,13.941,13.664V78.548Z" transform="translate(-39.971 -31.532)" fill="#353535"/>
      <path id="路径_5418" data-name="路径 5418" d="M43.959,99.065a9.049,9.049,0,0,0,18.093.391c0-.131,0-.261,0-.391a9.051,9.051,0,0,0-18.093,0Zm54.287,0a9.049,9.049,0,0,0,18.1,0v0a9.049,9.049,0,0,0-18.1,0Z" transform="translate(-37.46 -49.349)" fill="#ffdebb"/>
      <path id="路径_5419" data-name="路径 5419" d="M85.534,54.14a25.594,25.594,0,0,1,25.594,25.594h0V89.973a25.594,25.594,0,1,1-51.187,0h0V79.734A25.594,25.594,0,0,1,85.534,54.14Z" transform="translate(-42.845 -36.421)" fill="#ffeddc"/>
      <path id="路径_5420" data-name="路径 5420" d="M89.56,50.184c10.175,0,18.42-4.6,18.42-10.282V26.96q-12.732,2.658-18.42,2.66c-10.171,0-18.42,4.6-18.42,10.282S79.389,50.184,89.56,50.184Z" transform="translate(-46.872 -26.96)" fill="#353535"/>
    </g>
  </g>
</svg>
