<svg xmlns="http://www.w3.org/2000/svg" width="100" height="100" viewBox="0 0 100 100">
  <g id="avatar4" transform="translate(-40 -184)">
    <g id="默认头像_180_180" data-name="默认头像 180*180" transform="translate(40 184)">
      <path id="路径_5414" data-name="路径 5414" d="M100,49.951A50,50,0,1,0,50,99.9a49.98,49.98,0,0,0,50-49.954" fill="#eef9ff"/>
      <path id="路径_5415" data-name="路径 5415" d="M67.15,146.053a45.732,45.732,0,0,1,33.337,14.264c-1.816,2.7-15.645,12.355-33.229,12.319S34.977,162.36,33.813,160.317A45.732,45.732,0,0,1,67.15,146.053Z" transform="translate(-17.152 -72.636)" fill="#c1e5f9"/>
      <path id="路径_5416" data-name="路径 5416" d="M91.794,120.08a7.877,7.877,0,0,1,7.878,7.874v7.878a7.878,7.878,0,0,1-15.752,0v-7.878A7.878,7.878,0,0,1,91.794,120.08Z" transform="translate(-41.796 -59.768)" fill="#ffdebb"/>
      <path id="路径_5417" data-name="路径 5417" d="M51.947,69.692V50.665c0-5.276,5.341-10.512,10.729-10.512h25.8c5.387,0,10.725,5.237,10.725,10.512V69.692Z" transform="translate(-25.578 -19.952)" fill="#353535"/>
      <path id="路径_5418" data-name="路径 5418" d="M43.958,97a7.088,7.088,0,0,0,14.167.3c0-.1,0-.2,0-.3a7.092,7.092,0,0,0-14.167,0Zm42.507,0a7.088,7.088,0,0,0,14.17,0v0a7.088,7.088,0,0,0-14.17,0Z" transform="translate(-22.297 -44.947)" fill="#ffdebb"/>
      <path id="路径_5419" data-name="路径 5419" d="M79.63,54.14a19.691,19.691,0,0,1,19.69,19.69h0v7.878a19.69,19.69,0,1,1-39.381,0h0V73.83A19.691,19.691,0,0,1,79.63,54.14Z" transform="translate(-29.632 -26.709)" fill="#ffeddc"/>
      <path id="路径_5420" data-name="路径 5420" d="M85.312,44.827c7.828,0,14.172-3.541,14.172-7.91V26.96q-9.8,2.045-14.172,2.046c-7.825,0-14.172,3.541-14.172,7.911S77.487,44.827,85.312,44.827Z" transform="translate(-35.313 -13.675)" fill="#353535"/>
    </g>
  </g>
</svg>
