<svg xmlns="http://www.w3.org/2000/svg" xmlns:xlink="http://www.w3.org/1999/xlink" width="88" height="88" viewBox="0 0 88 88">
  <defs>
    <clipPath id="clip-path">
      <rect id="矩形_1497" data-name="矩形 1497" width="87.601" height="87.601" rx="43.8" fill="#e1f0ff"/>
    </clipPath>
  </defs>
  <g id="avatar2" transform="translate(0.364 -0.307)">
    <path id="路径_112009" data-name="路径 112009" d="M43.8,0A44,44,0,1,1,0,44,43.9,43.9,0,0,1,43.8,0Z" transform="translate(0.035 0.307)" fill="#f4897d"/>
    <g id="蒙版组_24" data-name="蒙版组 24" transform="translate(-0.364 0.417)" opacity="0.8" clip-path="url(#clip-path)">
      <g id="组_15808" data-name="组 15808" transform="translate(11.6 14.53)">
        <path id="路径_7924" data-name="路径 7924" d="M81.006,171.734c-2.675-7.721-10.1-12.55-12.426-13.929-4.971-2.977-11.752-4.818-14.4-5.549-2.623-.731-2.217-.731-2.567,0a4.09,4.09,0,0,1-3.511,1.949,3.959,3.959,0,0,1-3.323-1.193c-.405-.378-.35-1.455-.919-1.379a53.05,53.05,0,0,0-15.995,5.549c-2.459,1.406-10.474,5.59-13.631,14.552,10.015-.178,56.827-.178,66.771,0Z" transform="translate(-14.235 -97.744)" fill="#3c1f00"/>
        <path id="路径_7925" data-name="路径 7925" d="M89.653,132.181c2.235,0,4.041,2.327,4.041,5.225v4.709c0,2.9-1.835,5.226-4.041,5.226-2.235,0-4.041-2.327-4.041-5.226v-4.709c-.03-2.9,1.805-5.225,4.041-5.225" transform="translate(-55.959 -86.388)" fill="#ffd3ce"/>
        <path id="路径_7926" data-name="路径 7926" d="M47.25,95.543a4.585,4.585,0,0,0,4.577,4.594h.009a4.586,4.586,0,0,0,4.586-4.585v-.009a4.583,4.583,0,0,0-4.575-4.591h-.011a4.6,4.6,0,0,0-4.586,4.591m30.786,0a4.608,4.608,0,1,0,4.616-4.624,4.654,4.654,0,0,0-4.616,4.624" transform="translate(-33.534 -62.296)" fill="#ffd3ce"/>
        <path id="路径_7927" data-name="路径 7927" d="M86.854,171.066s2.493,2.066,3.525,2.066a8.474,8.474,0,0,0,3.382-1.981,32.584,32.584,0,0,0-3.152-3.157h-.658Z" transform="translate(-56.685 -107.299)" fill="#ffd3ce"/>
        <path id="路径_7928" data-name="路径 7928" d="M85.628,151.629c0-.344,5.5,1.234,5.5,1.234a33.244,33.244,0,0,1-2.151,5.226c-1.289,2.468-2.867,5.4-3.354,5.4-.458,0-1.978-2.126-3.813-5.111a11.842,11.842,0,0,0,2.609-3.36,19.361,19.361,0,0,0,1.2-3.385Zm-8.112-.058c0-.344-5.7,1.264-5.7,1.264a33.268,33.268,0,0,0,2.15,5.226c1.29,2.47,2.867,5.4,3.355,5.4.458,0,1.978-2.124,3.813-5.11a11.813,11.813,0,0,1-2.609-3.36,21.2,21.2,0,0,1-1.006-3.418Z" transform="translate(-47.893 -97.682)" fill="#fff"/>
        <path id="路径_7929" data-name="路径 7929" d="M56.705,54.725V67.531c0,6.4,6.564,16.191,16.28,16.191,10,0,16.281-9.789,16.281-16.191V54.725A16.283,16.283,0,0,0,73.009,38.418h-.023A16.282,16.282,0,0,0,56.705,54.7Z" transform="translate(-39.061 -31.641)" fill="#ffd3ce"/>
        <path id="路径_7930" data-name="路径 7930" d="M126.289,59.487c.057,5.4-1,6.287-1,6.287s3.124-1.061,4.271-7.924A115.568,115.568,0,0,0,130.9,45.59l-10.863.717a17.6,17.6,0,0,1,6.249,13.18" transform="translate(-76.084 -35.829)" fill="#3c1f00"/>
        <path id="路径_7931" data-name="路径 7931" d="M89.564,29.425c-.889.6-6.277.286-9.716-2.355-8.6-6.69-19.606-6.171-26.285-.918-5.275,4.133-7.711,12.373-5.1,24.89a7.89,7.89,0,0,0,1.29,1.119,11.092,11.092,0,0,0,1.835.92s-.774-8.011.6-10.191c1.29-2.068,3.325-5.4,8.227-4.767,12.24,1.552,29.639.489,30.04-8.21-.06-.06.055-1.093-.891-.489" transform="translate(-33.626 -22.131)" fill="#3c1f00"/>
      </g>
    </g>
  </g>
</svg>
