<svg xmlns="http://www.w3.org/2000/svg" xmlns:xlink="http://www.w3.org/1999/xlink" width="180" height="180" viewBox="0 0 180 180">
  <defs>
    <clipPath id="clip-path">
      <circle id="椭圆_4040" data-name="椭圆 4040" cx="90" cy="90" r="90" transform="translate(0 0)" fill="#ededed" stroke="#fff" stroke-width="4"/>
    </clipPath>
    <clipPath id="clip-path-2">
      <rect id="矩形_12026" data-name="矩形 12026" width="180" height="180" rx="24" fill="#fff"/>
    </clipPath>
    <clipPath id="clip-path-3">
      <rect id="矩形_12025" data-name="矩形 12025" width="180" height="180" rx="12" fill="#f7f7f7"/>
    </clipPath>
    <clipPath id="clip-path-4">
      <rect id="矩形_12024" data-name="矩形 12024" width="164.068" height="139.762" fill="#fff" stroke="#707070" stroke-width="1"/>
    </clipPath>
    <clipPath id="clip-path-5">
      <rect id="矩形_26491" data-name="矩形 26491" width="152.491" height="129.9" fill="#fff" stroke="#707070" stroke-width="1"/>
    </clipPath>
  </defs>
  <g id="组_34645" data-name="组 34645" transform="translate(-7179 -20142)">
    <g id="蒙版组_454" data-name="蒙版组 454" transform="translate(7179 20142)" clip-path="url(#clip-path)">
      <g id="组_11030" data-name="组 11030" transform="translate(0 0)">
        <rect id="矩形_12023" data-name="矩形 12023" width="180" height="180" rx="24" transform="translate(0 0)" fill="#f6f7f9"/>
        <g id="蒙版组_453" data-name="蒙版组 453" transform="translate(0)" clip-path="url(#clip-path-2)">
          <g id="蒙版组_452" data-name="蒙版组 452" transform="translate(0 0)" clip-path="url(#clip-path-3)">
            <g id="蒙版组_451" data-name="蒙版组 451" transform="translate(-14.344 40.238)" clip-path="url(#clip-path-4)">
              <g id="组_11029" data-name="组 11029" transform="translate(5.898 -6.561)">
                <path id="路径_10973" data-name="路径 10973" d="M1242.848-7590.229a125.267,125.267,0,0,1,21.566-2.222,216.484,216.484,0,0,1,25.514,1.587v7.666h-48.194Z" transform="translate(-1190.614 7683.303)" fill="#31334a"/>
                <ellipse id="椭圆_4037" data-name="椭圆 4037" cx="78.837" cy="62.475" rx="78.837" ry="62.475" transform="translate(0 99.366)" fill="#363b51"/>
                <path id="联合_125" data-name="联合 125" d="M0,99.46S5.471,82.533,5.28,67.43c-.138-10.8-2.38-21.3-1.384-30.493C5.676,20.5,11.161,12.128,11.5,9.789h0L4.83,0H20.867L15.713,9.69c.634,1.378,6.29,14.092,9.277,35.565,3.168,22.77,0,54.2,0,54.2Z" transform="translate(69.284 116.074)" fill="#202430"/>
                <path id="路径_10976" data-name="路径 10976" d="M1236.853-7570.369l27.088,13.04-3.124-6.042Z" transform="translate(-1189.362 7677.642)" fill="#212433"/>
                <path id="路径_10977" data-name="路径 10977" d="M1269.65-7558.532l6.665,9.785h4.165l5.207-9.785Z" transform="translate(-1198.511 7674.606)" fill="#ffc54a"/>
                <path id="路径_10978" data-name="路径 10978" d="M1258.511-7605.871s-.995,9.077-3.79,12.1a7.664,7.664,0,0,1-6.8,2.168l24.043,23.879,17.111-23.879s-6.112,1.738-9.476-2.168-4.2-15.623-4.2-15.623Z" transform="translate(-1192.2 7687.638)" fill="#f9d3ca"/>
                <path id="交叉_119" data-name="交叉 119" d="M1.2,3.52,18.1,0a64.577,64.577,0,0,0,.909,6.736C13.83,9.068,4.033,9.711,0,9.88A48.588,48.588,0,0,0,1.2,3.52Z" transform="translate(65.11 78.249)" fill="#f8bfb6"/>
                <g id="组_11028" data-name="组 11028" transform="translate(30.788 0)">
                  <path id="路径_10981" data-name="路径 10981" d="M1288-7687.024s19.361.055,20.31,11.632c.243,2.972-.271,10.286-4.17,15.156-.536,3.5-.055,8.155-1.246,10.561-4.531,9.168-10.017,2.436-10.017,2.436l-11.1-39.784Z" transform="translate(-1231.664 7707.539)" fill="#5a6070"/>
                  <path id="路径_10982" data-name="路径 10982" d="M14.751.284C24.894-2.245,38.817,12.562,38.817,27.965s-9.324,27.89-20.825,27.89S0,45.422,0,30.019,4.609,2.812,14.751.284Z" transform="translate(47.877 0) rotate(59)" fill="#9ba1b1"/>
                  <ellipse id="椭圆_4038" data-name="椭圆 4038" cx="5.578" cy="7.595" rx="5.578" ry="7.595" transform="translate(15.56 49.535)" fill="#eac4b9"/>
                  <ellipse id="椭圆_4039" data-name="椭圆 4039" cx="5.578" cy="7.595" rx="5.578" ry="7.595" transform="translate(58.969 49.535)" fill="#f9d3ca"/>
                  <path id="路径_10983" data-name="路径 10983" d="M1234.333-7649.729a9.17,9.17,0,0,1,0,5.146,9.32,9.32,0,0,1-3.52,3.786s7.268,1.143,9.976-1.5.854-9.061.854-9.061Z" transform="translate(-1218.603 7698.393)" fill="#9ba1b1"/>
                  <path id="路径_10984" data-name="路径 10984" d="M20.952,0c5.681,0,13.415,1.614,17.306,6.287,3.8,4.558,3.646,12.3,3.646,19.575,0,14.283-9.38,25.862-20.952,25.862-7.232,0-13.608-4.523-17.473-11.586A29.987,29.987,0,0,1,0,25.862C0,18.978-.058,11.077,3.615,6.287,7.314,1.462,14.958,0,20.952,0Z" transform="translate(22.017 32.429)" fill="#fde0d8"/>
                  <path id="交叉_120" data-name="交叉 120" d="M13.242,0a11.918,11.918,0,0,1,1.022,1.08c3.8,4.558,3.646,12.3,3.646,19.575,0,13.008-7.781,23.773-17.91,25.591C12.292,33.286,13.241,7.58,13.242,0Z" transform="translate(46.01 37.636)" fill="#f9d3ca"/>
                </g>
                <path id="路径_10987" data-name="路径 10987" d="M1274.707-7545.856s-.354-.46-1.053.325c-.337,2.338-5.823,10.718-7.6,27.144-1,9.194,1.247,19.692,1.385,30.495.191,15.1-5.28,32.032-5.28,32.032h24.99s3.168-31.435,0-54.205-9.335-35.691-9.335-35.691Z" transform="translate(-1195.847 7671.394)" fill="#ffc54a"/>
                <path id="路径_10988" data-name="路径 10988" d="M1287.2-7558.132l28.059-14.79-3.036-1.106-22.991,11.651Z" transform="translate(-1202.264 7678.58)" fill="#212433"/>
                <path id="路径_10989" data-name="路径 10989" d="M1240.9-7589.987l27.788,27.3-34.547-13.6Z" transform="translate(-1188.668 7682.668)" fill="#4c526a"/>
                <path id="路径_10990" data-name="路径 10990" d="M1280.287-7562.985l19.457-27.327,10.706,12.213Z" transform="translate(-1200.492 7682.752)" fill="#4c526a"/>
              </g>
            </g>
            <g id="蒙版组_12646" data-name="蒙版组 12646" transform="translate(35.932 73.238)" clip-path="url(#clip-path-5)">
              <g id="组_34650" data-name="组 34650" transform="translate(5.482 -6.098)">
                <path id="路径_103114" data-name="路径 103114" d="M1242.769-7590.386a116.429,116.429,0,0,1,20.045-2.065,201.274,201.274,0,0,1,23.714,1.475v7.125h-44.793Z" transform="translate(-1194.221 7676.893)" fill="#31334a"/>
                <ellipse id="椭圆_9795" data-name="椭圆 9795" cx="73.274" cy="58.066" rx="73.274" ry="58.066" transform="translate(0 92.354)" fill="#363b51"/>
                <path id="联合_126" data-name="联合 126" d="M0,92.442s5.085-15.733,4.907-29.77C4.779,52.63,2.7,42.873,3.621,34.33,5.275,19.057,10.374,11.273,10.686,9.1h0L4.489,0H19.395L14.6,9.007c.59,1.281,5.846,13.1,8.623,33.055,2.945,21.163,0,50.38,0,50.38Z" transform="translate(64.395 107.883)" fill="#202430"/>
                <path id="路径_103117" data-name="路径 103117" d="M1236.853-7570.369l25.176,12.12-2.9-5.615Z" transform="translate(-1192.713 7670.073)" fill="#212433"/>
                <path id="路径_103118" data-name="路径 103118" d="M1269.65-7558.532l6.194,9.095h3.871l4.84-9.095Z" transform="translate(-1203.531 7666.416)" fill="#ffc54a"/>
                <path id="路径_103119" data-name="路径 103119" d="M1257.764-7606.119s-.925,8.437-3.523,11.248a7.123,7.123,0,0,1-6.317,2.016l22.347,22.194,15.9-22.194s-5.681,1.616-8.808-2.016-3.9-14.521-3.9-14.521Z" transform="translate(-1196.132 7682.117)" fill="#f9d3ca"/>
                <path id="交叉_240" data-name="交叉 240" d="M1.117,3.272,16.819,0a60.021,60.021,0,0,0,.845,6.26C12.854,8.428,3.748,9.026,0,9.183A45.159,45.159,0,0,0,1.117,3.272Z" transform="translate(60.516 72.727)" fill="#f8bfb6"/>
                <g id="组_34649" data-name="组 34649" transform="translate(28.616 0)">
                  <path id="路径_103122" data-name="路径 103122" d="M1287.565-7687.023s18,.051,18.877,10.811c.226,2.762-.251,9.56-3.876,14.086-.5,3.25-.051,7.579-1.158,9.815-4.212,8.521-9.31,2.264-9.31,2.264l-10.32-36.977Z" transform="translate(-1235.2 7706.09)" fill="#5a6070"/>
                  <path id="路径_103123" data-name="路径 103123" d="M13.711.264c9.427-2.35,22.368,11.412,22.368,25.728S27.413,51.914,16.723,51.914,0,42.217,0,27.9,4.284,2.614,13.711.264Z" transform="translate(44.499 0) rotate(59)" fill="#9ba1b1"/>
                  <ellipse id="椭圆_9796" data-name="椭圆 9796" cx="5.184" cy="7.059" rx="5.184" ry="7.059" transform="translate(14.462 46.039)" fill="#eac4b9"/>
                  <ellipse id="椭圆_9797" data-name="椭圆 9797" cx="5.184" cy="7.059" rx="5.184" ry="7.059" transform="translate(54.808 46.039)" fill="#f9d3ca"/>
                  <path id="路径_103124" data-name="路径 103124" d="M1234.085-7649.843a8.523,8.523,0,0,1,0,4.782,8.662,8.662,0,0,1-3.272,3.519s6.755,1.062,9.272-1.391.794-8.421.794-8.421Z" transform="translate(-1219.464 7695.074)" fill="#9ba1b1"/>
                  <path id="路径_103125" data-name="路径 103125" d="M19.473,0c5.281,0,12.469,1.5,16.085,5.844,3.528,4.236,3.389,11.437,3.389,18.194,0,13.275-8.718,24.037-19.473,24.037-6.722,0-12.648-4.2-16.24-10.769A27.871,27.871,0,0,1,0,24.037C0,17.639-.054,10.3,3.36,5.844,6.8,1.359,13.9,0,19.473,0Z" transform="translate(20.464 30.14)" fill="#fde0d8"/>
                  <path id="交叉_241" data-name="交叉 241" d="M12.308,0a11.077,11.077,0,0,1,.95,1C16.786,5.24,16.646,12.44,16.646,19.2c0,12.09-7.232,22.1-16.646,23.786C11.425,30.938,12.307,7.045,12.308,0Z" transform="translate(42.764 34.981)" fill="#f9d3ca"/>
                </g>
                <path id="路径_103128" data-name="路径 103128" d="M1273.821-7545.866s-.329-.428-.979.3c-.313,2.173-5.412,9.961-7.066,25.228-.926,8.545,1.159,18.3,1.287,28.343.178,14.039-4.907,29.772-4.907,29.772h23.227s2.945-29.217,0-50.381-8.676-33.173-8.676-33.173Z" transform="translate(-1200.526 7662.545)" fill="#ffc54a"/>
                <path id="路径_103129" data-name="路径 103129" d="M1287.2-7559.254,1313.279-7573l-2.821-1.028-21.369,10.829Z" transform="translate(-1208.257 7671.202)" fill="#212433"/>
                <path id="路径_103130" data-name="路径 103130" d="M1240.423-7589.987l25.827,25.372-32.109-12.645Z" transform="translate(-1191.876 7676.129)" fill="#4c526a"/>
                <path id="路径_103131" data-name="路径 103131" d="M1280.287-7564.913l18.084-25.4,9.951,11.351Z" transform="translate(-1206.123 7676.229)" fill="#4c526a"/>
              </g>
            </g>
          </g>
        </g>
      </g>
    </g>
  </g>
</svg>
