<svg id="组_34372" data-name="组 34372" xmlns="http://www.w3.org/2000/svg" width="156.851" height="156.851" viewBox="0 0 156.851 156.851">
  <g id="组_34370" data-name="组 34370" transform="translate(0 0)">
    <g id="默认头像_180_180" data-name="默认头像 180*180">
      <path id="路径_5414" data-name="路径 5414" d="M156.851,78.346A78.426,78.426,0,1,0,78.423,156.7a78.392,78.392,0,0,0,78.428-78.35" fill="#ffe7d1"/>
      <path id="路径_5415" data-name="路径 5415" d="M85.244,146.053a68.988,68.988,0,0,1,51.431,23.108c-2.8,4.379-24.136,20.015-51.265,19.957s-49.8-16.647-51.6-19.957a68.988,68.988,0,0,1,51.431-23.108Z" transform="translate(-6.821 -32.267)" fill="#ff6f00"/>
      <path id="路径_5416" data-name="路径 5416" d="M96.677,120.08a12.762,12.762,0,0,1,12.762,12.757V145.6a12.762,12.762,0,0,1-25.519,0V132.837A12.762,12.762,0,0,1,96.677,120.08Z" transform="translate(-18.254 -26.433)" fill="#ffdebb"/>
      <path id="路径_5417" data-name="路径 5417" d="M51.947,88.008V57.184c0-8.547,8.653-17.031,17.381-17.031h41.8c8.728,0,17.375,8.483,17.375,17.031V88.008Z" transform="translate(-11.804 -8.904)" fill="#353535"/>
      <path id="路径_5418" data-name="路径 5418" d="M43.959,101.272a10.839,10.839,0,1,0,21.663.488c0-.163,0-.325,0-.488a10.832,10.832,0,1,0-21.663,0Zm65,0a10.839,10.839,0,1,0,21.668,0v0a10.839,10.839,0,1,0-21.668,0Z" transform="translate(-8.867 -19.649)" fill="#ffdebb"/>
      <path id="路径_5419" data-name="路径 5419" d="M91.839,54.14a31.9,31.9,0,0,1,31.9,31.9h0V98.8a31.9,31.9,0,1,1-63.8,0h0V86.039a31.9,31.9,0,0,1,31.9-31.9Z" transform="translate(-13.416 -12.38)" fill="#ffeddc"/>
      <path id="路径_5420" data-name="路径 5420" d="M94.1,55.906c12.682,0,22.959-5.737,22.959-12.815V26.96Q101.188,30.273,94.1,30.275c-12.677,0-22.959,5.737-22.959,12.816S81.422,55.906,94.1,55.906Z" transform="translate(-15.676 -5.438)" fill="#353535"/>
    </g>
  </g>
</svg>
