<svg id="照相机" xmlns="http://www.w3.org/2000/svg" width="88" height="88" viewBox="0 0 88 88">
  <circle id="椭圆_45" data-name="椭圆 45" cx="44" cy="44" r="44" opacity="0.5"/>
  <path id="路径_732" data-name="路径 732" d="M1206.114,295.236a7.5,7.5,0,1,0,7.543,7.5A7.519,7.519,0,0,0,1206.114,295.236Zm15.086-7.5h-3.772l-1.258-2.5c-.74-1.454-1.124-2.5-2.514-2.5h-15.085c-1.388,0-1.848,1.191-2.514,2.5l-1.258,2.5h-3.772a5.012,5.012,0,0,0-5.028,5v19.99a5.013,5.013,0,0,0,5.028,5H1221.2a5.012,5.012,0,0,0,5.028-5v-19.99A5.012,5.012,0,0,0,1221.2,287.74Zm-15.086,24.986a10,10,0,1,1,10.056-9.995,10.024,10.024,0,0,1-10.056,9.995Z" transform="translate(-1162.114 -256.344)" fill="#fff"/>
</svg>
