<svg xmlns="http://www.w3.org/2000/svg" xmlns:xlink="http://www.w3.org/1999/xlink" width="80" height="80" viewBox="0 0 80 80">
  <defs>
    <linearGradient id="linear-gradient" x1="0.5" x2="0.5" y2="1" gradientUnits="objectBoundingBox">
      <stop offset="0" stop-color="#fff"/>
      <stop offset="1" stop-color="#fff" stop-opacity="0.2"/>
    </linearGradient>
    <linearGradient id="linear-gradient-2" x1="0.5" y1="1" x2="0.5" y2="0" xlink:href="#linear-gradient"/>
    <linearGradient id="linear-gradient-4" x1="1" y1="0.5" x2="0" y2="0.5" xlink:href="#linear-gradient"/>
  </defs>
  <g id="i2" transform="translate(-230 -199)">
    <g id="组_34320" data-name="组 34320" transform="translate(2350 703)">
      <circle id="椭圆_394" data-name="椭圆 394" cx="40" cy="40" r="40" transform="translate(-2120 -504)" fill="#e3e3e3"/>
    </g>
    <g id="组_39593" data-name="组 39593" transform="translate(1 -9.242)">
      <path id="减去_476" data-name="减去 476" d="M14440.45-5568H14413v-17a2,2,0,0,1,2-2h23.448a2,2,0,0,1,2,2v17ZM14427-5583.832a.988.988,0,0,0-.8.4l-4,5.334a.982.982,0,0,0-.094,1.046,1,1,0,0,0,.895.552h8a.992.992,0,0,0,.894-.553.977.977,0,0,0-.1-1.045l-4-5.334A.988.988,0,0,0,14427-5583.832Z" transform="translate(-14158.307 5816.24)" stroke="rgba(0,0,0,0)" stroke-miterlimit="10" stroke-width="1" fill="url(#linear-gradient)"/>
      <g id="组_39592" data-name="组 39592" transform="translate(14888.001 -5068.551)">
        <path id="路径_114109" data-name="路径 114109" d="M2907.463,1994.8H2868.6a1.576,1.576,0,0,1-1.418-2.226l3.465-7.767a2.435,2.435,0,0,1,2.219-1.451H2903.2a2.433,2.433,0,0,1,2.218,1.451l3.465,7.767A1.575,1.575,0,0,1,2907.463,1994.8Z" transform="translate(-17507.039 3327.467)" fill="url(#linear-gradient-2)"/>
        <path id="路径_114110" data-name="路径 114110" d="M2907.463,2008.59H2868.6a1.576,1.576,0,0,1-1.418-2.226l3.465-7.767a2.435,2.435,0,0,1,2.219-1.451H2903.2a2.433,2.433,0,0,1,2.218,1.451l3.465,7.767A1.575,1.575,0,0,1,2907.463,2008.59Z" transform="translate(-17507.021 3327.867)" fill="url(#linear-gradient-2)"/>
        <rect id="矩形_28922" data-name="矩形 28922" width="29.952" height="1.217" rx="0.58" transform="translate(-14633.969 5315.939)" fill="url(#linear-gradient-4)"/>
        <g id="组_39530" data-name="组 39530" transform="translate(-14639.976 5320.485)">
          <path id="路径_114111" data-name="路径 114111" d="M2909.011,2007.277a1.561,1.561,0,0,1-1.549,1.521H2868.6a1.561,1.561,0,0,1-1.549-1.521v-14.451a1.56,1.56,0,0,0,1.549,1.52h38.867a1.56,1.56,0,0,0,1.549-1.52Z" transform="translate(-2867.047 -1992.826)" fill="url(#linear-gradient-2)"/>
        </g>
      </g>
    </g>
  </g>
</svg>
