<svg xmlns="http://www.w3.org/2000/svg" xmlns:xlink="http://www.w3.org/1999/xlink" width="80" height="80" viewBox="0 0 80 80">
  <defs>
    <linearGradient id="linear-gradient" x1="0.5" y1="1" x2="0.5" gradientUnits="objectBoundingBox">
      <stop offset="0" stop-color="#fff"/>
      <stop offset="1" stop-color="#fff" stop-opacity="0.2"/>
    </linearGradient>
    <linearGradient id="linear-gradient-2" x1="0" y1="1" x2="1" y2="1" xlink:href="#linear-gradient"/>
  </defs>
  <g id="i4" transform="translate(-490 -171)">
    <g id="组_39585" data-name="组 39585" transform="translate(490 171)">
      <path id="路径_114162" data-name="路径 114162" d="M40,0A40,40,0,1,1,0,40,40,40,0,0,1,40,0Z" fill="#e3e3e3"/>
      <g id="组_39582" data-name="组 39582" transform="translate(20.632 21.603)">
        <circle id="椭圆_11848" data-name="椭圆 11848" cx="9.604" cy="9.604" r="9.604" transform="translate(9.091)" stroke="rgba(0,0,0,0)" stroke-width="1" fill="url(#linear-gradient)"/>
        <rect id="矩形_28949" data-name="矩形 28949" width="18.695" height="2.891" rx="1.445" transform="translate(18.695 35.776)" stroke="rgba(0,0,0,0)" stroke-miterlimit="10" stroke-width="1" fill="url(#linear-gradient-2)"/>
        <rect id="矩形_28950" data-name="矩形 28950" width="18.695" height="2.891" rx="1.445" transform="translate(18.695 31.097)" stroke="rgba(0,0,0,0)" stroke-miterlimit="10" stroke-width="1" fill="url(#linear-gradient-2)"/>
        <path id="路径_114166" data-name="路径 114166" d="M2142.321,2316.008v-.084a3.349,3.349,0,0,0,0-4.595v-.084a3.351,3.351,0,0,0,0-4.6v-.083a3.4,3.4,0,0,1,3.393-3.393h10.706a18.69,18.69,0,0,0-30.8,14.237h17.018A3.356,3.356,0,0,1,2142.321,2316.008Z" transform="translate(-2125.615 -2278.745)" stroke="rgba(0,0,0,0)" stroke-width="1" fill="url(#linear-gradient)"/>
        <rect id="矩形_28951" data-name="矩形 28951" width="18.695" height="2.891" rx="1.445" transform="translate(18.695 26.418)" stroke="rgba(0,0,0,0)" stroke-miterlimit="10" stroke-width="1" fill="url(#linear-gradient-2)"/>
      </g>
    </g>
  </g>
</svg>
