<svg xmlns="http://www.w3.org/2000/svg" xmlns:xlink="http://www.w3.org/1999/xlink" width="80" height="80" viewBox="0 0 80 80">
  <defs>
    <linearGradient id="linear-gradient" x1="0.146" y1="0.854" x2="0.854" y2="0.146" gradientUnits="objectBoundingBox">
      <stop offset="0" stop-color="#0acffe"/>
      <stop offset="1" stop-color="#495aff"/>
    </linearGradient>
    <linearGradient id="linear-gradient-2" x1="0.5" y1="1" x2="0.5" gradientUnits="objectBoundingBox">
      <stop offset="0" stop-color="#fff"/>
      <stop offset="1" stop-color="#fff" stop-opacity="0.2"/>
    </linearGradient>
    <linearGradient id="linear-gradient-3" x1="0" y1="1" x2="1" y2="1" xlink:href="#linear-gradient-2"/>
  </defs>
  <g id="i4_active" transform="translate(-348 -171)">
    <circle id="椭圆_11847" data-name="椭圆 11847" cx="40" cy="40" r="40" transform="translate(348 171)" fill="url(#linear-gradient)"/>
    <g id="组_39581" data-name="组 39581" transform="translate(369.614 192.603)">
      <circle id="椭圆_11848" data-name="椭圆 11848" cx="9.604" cy="9.604" r="9.604" transform="translate(9.091)" stroke="rgba(0,0,0,0)" stroke-width="1" fill="url(#linear-gradient-2)"/>
      <rect id="矩形_28949" data-name="矩形 28949" width="18.695" height="2.891" rx="1.445" transform="translate(18.695 35.776)" stroke="rgba(0,0,0,0)" stroke-miterlimit="10" stroke-width="1" fill="url(#linear-gradient-3)"/>
      <rect id="矩形_28950" data-name="矩形 28950" width="18.695" height="2.891" rx="1.445" transform="translate(18.695 31.097)" stroke="rgba(0,0,0,0)" stroke-miterlimit="10" stroke-width="1" fill="url(#linear-gradient-3)"/>
      <path id="路径_114166" data-name="路径 114166" d="M2142.321,2316.008v-.084a3.349,3.349,0,0,0,0-4.595v-.084a3.351,3.351,0,0,0,0-4.6v-.083a3.4,3.4,0,0,1,3.393-3.393h10.706a18.69,18.69,0,0,0-30.8,14.237h17.018A3.356,3.356,0,0,1,2142.321,2316.008Z" transform="translate(-2125.615 -2278.745)" stroke="rgba(0,0,0,0)" stroke-width="1" fill="url(#linear-gradient-2)"/>
      <rect id="矩形_28951" data-name="矩形 28951" width="18.695" height="2.891" rx="1.445" transform="translate(18.695 26.418)" stroke="rgba(0,0,0,0)" stroke-miterlimit="10" stroke-width="1" fill="url(#linear-gradient-3)"/>
    </g>
  </g>
</svg>
