<svg xmlns="http://www.w3.org/2000/svg" xmlns:xlink="http://www.w3.org/1999/xlink" width="70" height="70" viewBox="0 0 70 70">
  <defs>
    <linearGradient id="linear-gradient" x1="0.126" y1="0.5" x2="0.465" y2="0.5" gradientUnits="objectBoundingBox">
      <stop offset="0" stop-color="#b5e455"/>
      <stop offset="1" stop-color="#4aaa00"/>
    </linearGradient>
    <linearGradient id="linear-gradient-2" x1="0.309" y1="0.876" x2="0.622" y2="0.244" xlink:href="#linear-gradient"/>
    <linearGradient id="linear-gradient-3" x1="0.5" y1="0.011" x2="0.5" y2="0.602" xlink:href="#linear-gradient"/>
    <linearGradient id="linear-gradient-4" x1="0.482" y1="0.561" x2="0.892" y2="1.193" xlink:href="#linear-gradient"/>
    <linearGradient id="linear-gradient-5" x1="0.271" y1="0.208" x2="0.719" y2="0.79" xlink:href="#linear-gradient"/>
    <linearGradient id="linear-gradient-6" x1="0.678" y1="0.851" x2="0.412" y2="0.017" xlink:href="#linear-gradient"/>
    <linearGradient id="linear-gradient-7" x1="0.482" y1="0.068" x2="0.566" y2="0.822" xlink:href="#linear-gradient"/>
  </defs>
  <g id="icon8" transform="translate(-601 -986.998)">
    <rect id="矩形_28992" data-name="矩形 28992" width="70" height="70" transform="translate(601 986.998)" fill="none"/>
    <g id="组_38764" data-name="组 38764" transform="translate(-117.078 563.496)">
      <g id="组_38715" data-name="组 38715">
        <path id="路径_112893" data-name="路径 112893" d="M778.02,484.211H760.748a2.5,2.5,0,0,1,0-5H778.02a2.5,2.5,0,0,1,0,5Z" fill="url(#linear-gradient)"/>
      </g>
      <g id="组_38716" data-name="组 38716">
        <path id="路径_112894" data-name="路径 112894" d="M760.293,465.051a2.5,2.5,0,0,1-.465-4.956,20.545,20.545,0,0,0,10.715-5.679,20.778,20.778,0,0,0,5.672-18.547,20.768,20.768,0,0,0-18.546,5.673c-5.261,5.262-5.26,12.237-5.259,20.315v.318a2.5,2.5,0,0,1-5,0v-.317c0-8.42,0-17.126,6.723-23.851a25.8,25.8,0,0,1,24.812-6.64l1.4.373.372,1.4a25.8,25.8,0,0,1-6.638,24.812,25.531,25.531,0,0,1-13.315,7.056A2.526,2.526,0,0,1,760.293,465.051Z" fill="url(#linear-gradient-2)"/>
      </g>
      <g id="组_38717" data-name="组 38717">
        <path id="路径_112895" data-name="路径 112895" d="M749.91,486.738a2.5,2.5,0,0,1-2.5-2.5V462.175a2.5,2.5,0,1,1,5,0v22.063A2.5,2.5,0,0,1,749.91,486.738Z" fill="url(#linear-gradient-3)"/>
      </g>
      <g id="组_38718" data-name="组 38718">
        <path id="路径_112896" data-name="路径 112896" d="M778.02,484.211H763.464c6.75,0,6.1-5,10.341-5h4.215a2.5,2.5,0,0,1,0,5Z" fill="url(#linear-gradient-4)"/>
      </g>
      <g id="组_38719" data-name="组 38719">
        <path id="路径_112897" data-name="路径 112897" d="M741.435,484.211a2.576,2.576,0,0,1-.491-.048,19.766,19.766,0,0,1-15.2-24.511l.372-1.4,1.4-.373a19.866,19.866,0,0,1,19.108,5.114,19.628,19.628,0,0,1,5.786,14.071,2.5,2.5,0,0,1-2.5,2.489H749.9a2.5,2.5,0,0,1-2.488-2.512,14.661,14.661,0,0,0-4.321-10.513,14.855,14.855,0,0,0-12.825-4.129,14.844,14.844,0,0,0,4.129,12.825,14.671,14.671,0,0,0,7.529,4.034,2.5,2.5,0,0,1-.487,4.952Z" fill="url(#linear-gradient-5)"/>
      </g>
      <g id="组_38720" data-name="组 38720">
        <path id="路径_112898" data-name="路径 112898" d="M741.435,484.211a2.576,2.576,0,0,1-.491-.048,19.766,19.766,0,0,1-15.2-24.511l.372-1.4,1.4-.373a19.866,19.866,0,0,1,19.108,5.114c-5.492-4.671-15.354-5.15-16.36-.594a14.844,14.844,0,0,0,4.129,12.825,14.671,14.671,0,0,0,7.529,4.034,2.5,2.5,0,0,1-.487,4.952Z" fill="url(#linear-gradient-6)"/>
      </g>
      <g id="组_38721" data-name="组 38721">
        <path id="路径_112899" data-name="路径 112899" d="M760.293,465.051a2.5,2.5,0,0,1-.465-4.956,20.545,20.545,0,0,0,10.715-5.679,20.778,20.778,0,0,0,5.672-18.547c-1.828-5.366-15.377-3.716-22.082,2.138a25.8,25.8,0,0,1,24.812-6.64l1.4.373.372,1.4a25.8,25.8,0,0,1-6.638,24.812,25.531,25.531,0,0,1-13.315,7.056A2.526,2.526,0,0,1,760.293,465.051Z" fill="url(#linear-gradient-7)"/>
      </g>
    </g>
  </g>
</svg>
