<svg xmlns="http://www.w3.org/2000/svg" xmlns:xlink="http://www.w3.org/1999/xlink" width="70" height="70" viewBox="0 0 70 70">
  <defs>
    <linearGradient id="linear-gradient" x1="1.013" y1="0.93" x2="0.232" y2="0.13" gradientUnits="objectBoundingBox">
      <stop offset="0" stop-color="#1de59b"/>
      <stop offset="1" stop-color="#457ded"/>
    </linearGradient>
    <linearGradient id="linear-gradient-2" x1="0.004" y1="-0.062" x2="0.671" y2="1.097" xlink:href="#linear-gradient"/>
    <linearGradient id="linear-gradient-3" x1="0.276" y1="0.847" x2="0.962" y2="0.198" xlink:href="#linear-gradient"/>
    <linearGradient id="linear-gradient-4" x1="0.808" y1="0.579" x2="0.156" y2="0.375" xlink:href="#linear-gradient"/>
    <linearGradient id="linear-gradient-5" x1="0.5" y1="0.168" x2="0.5" y2="1.149" xlink:href="#linear-gradient"/>
  </defs>
  <g id="icon3" transform="translate(-462 -825.998)">
    <rect id="矩形_28987" data-name="矩形 28987" width="70" height="70" transform="translate(462 825.998)" fill="none"/>
    <g id="组_38779" data-name="组 38779" transform="translate(-114.861 692.119)">
      <path id="路径_112951" data-name="路径 112951" d="M604.515,163.938a.788.788,0,0,0,.352-1.308A9.287,9.287,0,0,1,602.4,156.8a9.47,9.47,0,0,1,9.458-9.925v-5a14.469,14.469,0,0,0-14.452,15.157,13.936,13.936,0,0,0,1.808,6.216,2.826,2.826,0,0,0,3.361,1.255Q603.535,164.191,604.515,163.938Z" fill="url(#linear-gradient)"/>
      <path id="路径_112952" data-name="路径 112952" d="M637.591,185.464a26.619,26.619,0,0,0-11.944-15.772,2.878,2.878,0,0,0-3.251.246,17.979,17.979,0,0,1-1.929,1.3.782.782,0,0,0,.072,1.4,21.688,21.688,0,0,1,12.227,14.139,2.542,2.542,0,0,1-.431,2.231,2.426,2.426,0,0,1-1.962.969H614.7v5h15.4a7.782,7.782,0,0,0,6.068-2.751A7.511,7.511,0,0,0,637.591,185.464Z" fill="url(#linear-gradient-2)"/>
      <path id="路径_112953" data-name="路径 112953" d="M593.351,194.977h18.511v-5H593.351a2.43,2.43,0,0,1-1.963-.969,2.544,2.544,0,0,1-.43-2.231,21.711,21.711,0,0,1,20.824-15.961,14.7,14.7,0,0,0,14.531-13.78,14.467,14.467,0,0,0-14.451-15.157v5a9.468,9.468,0,0,1,9.457,9.925,9.642,9.642,0,0,1-9.555,9.012,26.725,26.725,0,0,0-25.631,19.648,7.508,7.508,0,0,0,1.283,6.58A7.412,7.412,0,0,0,593.351,194.977Z" fill="url(#linear-gradient-3)"/>
      <path id="路径_112954" data-name="路径 112954" d="M637.591,185.464a31.313,31.313,0,0,0-1.106-3.377c1.962,5.541-2.059,7.89-6.112,7.89H593.351c-4.053,0-8.074-2.349-6.112-7.89a31.313,31.313,0,0,0-1.106,3.377,7.508,7.508,0,0,0,1.283,6.58,7.412,7.412,0,0,0,5.935,2.933h37.022a7.415,7.415,0,0,0,5.935-2.933A7.511,7.511,0,0,0,637.591,185.464Z" fill="url(#linear-gradient-4)"/>
      <path id="路径_112955" data-name="路径 112955" d="M611.862,146.879c12.606,0,14.27,11.8,14.27,11.8a13.536,13.536,0,0,0,.181-1.645,14.468,14.468,0,1,0-28.9,0,13.747,13.747,0,0,0,.182,1.645S599.256,146.879,611.862,146.879Z" fill="url(#linear-gradient-5)"/>
    </g>
  </g>
</svg>
