<svg xmlns="http://www.w3.org/2000/svg" xmlns:xlink="http://www.w3.org/1999/xlink" width="120" height="120" viewBox="0 0 120 120">
  <defs>
    <linearGradient id="linear-gradient" x1="0.5" x2="0.5" y2="1" gradientUnits="objectBoundingBox">
      <stop offset="0" stop-color="#91f1ae"/>
      <stop offset="1" stop-color="#6cd18f"/>
    </linearGradient>
    <radialGradient id="radial-gradient" cx="0.5" cy="0.5" r="0.5" gradientUnits="objectBoundingBox">
      <stop offset="0" stop-color="#f9fffc"/>
      <stop offset="1" stop-color="#c1f8d9"/>
    </radialGradient>
    <clipPath id="clip-path">
      <circle id="椭圆_8515" data-name="椭圆 8515" cx="60" cy="60" r="60" transform="translate(95 1555)" fill="#deffed"/>
    </clipPath>
    <linearGradient id="linear-gradient-4" x1="0.5" x2="0.5" y2="1" gradientUnits="objectBoundingBox">
      <stop offset="0" stop-color="#fff5e8"/>
      <stop offset="1" stop-color="#ffc984"/>
    </linearGradient>
  </defs>
  <g id="icon33" transform="translate(-95 -1555)">
    <circle id="椭圆_8378" data-name="椭圆 8378" cx="60" cy="60" r="60" transform="translate(95 1555)" fill="#deffed"/>
    <g id="组_39709" data-name="组 39709">
      <rect id="矩形_27282" data-name="矩形 27282" width="75" height="94" rx="8" transform="translate(118 1561)" fill="url(#linear-gradient)"/>
      <g id="组_39397" data-name="组 39397" transform="translate(1 601)">
        <circle id="椭圆_8464" data-name="椭圆 8464" cx="20" cy="20" r="20" transform="translate(135 988)" fill="url(#radial-gradient)"/>
        <g id="组_39396" data-name="组 39396" transform="translate(0 2)">
          <rect id="矩形_35381" data-name="矩形 35381" width="15" height="3" rx="1.5" transform="translate(153 1006)" fill="url(#linear-gradient)"/>
          <rect id="矩形_35382" data-name="矩形 35382" width="17" height="3" rx="1.5" transform="translate(156 992) rotate(90)" fill="url(#linear-gradient)"/>
        </g>
      </g>
      <rect id="矩形_35582" data-name="矩形 35582" width="38" height="12" rx="6" transform="translate(137 1555)" fill="#cbffe3"/>
    </g>
    <g id="蒙版组_2287" data-name="蒙版组 2287" clip-path="url(#clip-path)">
      <g id="组_39708" data-name="组 39708" transform="translate(3.47)">
        <path id="路径_109741" data-name="路径 109741" d="M-2890.01-2010.14s1.844-15.76,0-17.772-15.76-9.557-15.928-17.269-1.677-30.179,5.2-29.844,3.856,20.119,9.389,26.658,9.893,9.724,11.066,7.377c-7.042-8.048-11.569-10.4-9.725-14.587s8.216-4.359,13.078,1.006,7.88,4.7,7.88,13.581v30.85Z" transform="translate(3013.724 3692.135)" fill="url(#linear-gradient-4)"/>
        <path id="路径_109742" data-name="路径 109742" d="M-2885.24-2010.14s-1.844-15.76,0-17.772,15.76-9.557,15.928-17.269,1.677-30.179-5.2-29.844-3.856,20.119-9.389,26.658-9.892,9.724-11.066,7.377c7.042-8.048,11.569-10.4,9.724-14.587s-8.216-4.359-13.078,1.006-7.88,4.7-7.88,13.581v30.85Z" transform="translate(3065.523 3692.135)" fill="url(#linear-gradient-4)"/>
      </g>
    </g>
  </g>
</svg>
