<svg xmlns="http://www.w3.org/2000/svg" width="48" height="48" viewBox="0 0 48 48">
  <g id="组_34848" data-name="组 34848" transform="translate(-665 -204)">
    <g id="组_15039" data-name="组 15039" transform="translate(669.164 198.6)">
      <path id="路径_7490" data-name="路径 7490" d="M37.546,28.2,29.625,14.479A2.157,2.157,0,0,0,27.757,13.4H11.91a2.157,2.157,0,0,0-1.868,1.079L2.122,28.2h0a2.157,2.157,0,0,0,0,2.157L10.044,44.08a2.157,2.157,0,0,0,1.868,1.079H27.757a2.157,2.157,0,0,0,1.868-1.079l7.921-13.722A2.157,2.157,0,0,0,37.546,28.2Zm-17.71,8.628a7.55,7.55,0,0,1-7.551-7.549v0a7.55,7.55,0,1,1,7.551,7.551Z" transform="translate(0 0)" fill="#444"/>
      <circle id="椭圆_456" data-name="椭圆 456" cx="5.458" cy="5.458" r="5.458" transform="translate(14.378 23.822)" fill="#444"/>
    </g>
    <rect id="矩形_26658" data-name="矩形 26658" width="48" height="48" transform="translate(665 204)" fill="none"/>
  </g>
</svg>
