<svg xmlns="http://www.w3.org/2000/svg" xmlns:xlink="http://www.w3.org/1999/xlink" width="70" height="70" viewBox="0 0 70 70">
  <defs>
    <linearGradient id="linear-gradient" x1="0.456" y1="0.08" x2="0.484" y2="0.276" gradientUnits="objectBoundingBox">
      <stop offset="0" stop-color="#ffd594"/>
      <stop offset="1" stop-color="#ff4700"/>
    </linearGradient>
    <linearGradient id="linear-gradient-2" x1="0.814" y1="0.316" x2="0.629" y2="0.672" xlink:href="#linear-gradient"/>
    <linearGradient id="linear-gradient-3" x1="0.179" y1="0.482" x2="0.551" y2="0.7" xlink:href="#linear-gradient"/>
    <linearGradient id="linear-gradient-4" x1="0.614" y1="0.836" x2="0.424" y2="0.112" xlink:href="#linear-gradient"/>
  </defs>
  <g id="icon9" transform="translate(-86 -669)">
    <rect id="矩形_28996" data-name="矩形 28996" width="70" height="70" transform="translate(86 669)" fill="none"/>
    <g id="组_38742" data-name="组 38742" transform="translate(-203.362 391.049)">
      <g id="组_38741" data-name="组 38741">
        <path id="路径_112917" data-name="路径 112917" d="M340.781,341.58a2.489,2.489,0,0,1-1.163-.287l-15.613-8.208-15.612,8.208a2.5,2.5,0,0,1-3.627-2.635l2.982-17.384-12.631-12.313A2.5,2.5,0,0,1,296.5,304.7l17.456-2.538,7.806-15.816a2.5,2.5,0,0,1,4.483,0l7.806,15.816,17.455,2.538a2.5,2.5,0,0,1,1.386,4.263l-12.631,12.313,2.982,17.384a2.5,2.5,0,0,1-2.464,2.922Zm-16.776-13.819a2.5,2.5,0,0,1,1.163.287l12.293,6.462-2.348-13.686a2.5,2.5,0,0,1,.719-2.213l9.945-9.7-13.743-2a2.5,2.5,0,0,1-1.883-1.367L324.005,293.1l-6.146,12.453a2.5,2.5,0,0,1-1.882,1.367l-13.743,2,9.945,9.7a2.5,2.5,0,0,1,.718,2.213L310.55,334.51l12.292-6.462A2.5,2.5,0,0,1,324.005,327.761Z" fill="url(#linear-gradient)"/>
      </g>
      <path id="路径_112918" data-name="路径 112918" d="M340.263,321.274c-.843-4.455-.664-6.335,1.052-8.009l-5.483,5.346a2.5,2.5,0,0,0-.719,2.213l2.348,13.686-12.293-6.462a2.5,2.5,0,0,0-2.326,0L310.55,334.51l-5.784,4.148a2.5,2.5,0,0,0,3.627,2.635l15.612-8.208,15.613,8.208a2.5,2.5,0,0,0,3.627-2.635S341.106,325.728,340.263,321.274Z" fill="url(#linear-gradient-2)"/>
      <path id="路径_112919" data-name="路径 112919" d="M313.955,302.171c-1.936,4.1-3.186,5.515-5.558,5.86l7.578-1.1a2.5,2.5,0,0,0,1.882-1.368L324,293.109l6.147,12.454a2.5,2.5,0,0,0,1.882,1.367l13.743,2,7.117.045a2.5,2.5,0,0,0-1.385-4.264l-17.455-2.537-7.807-15.817a2.5,2.5,0,0,0-4.483,0S315.892,298.071,313.955,302.171Z" fill="url(#linear-gradient-3)"/>
      <path id="路径_112920" data-name="路径 112920" d="M324.005,333.083c3.976-2.178,5.819-2.589,7.941-1.474l-6.778-3.563a2.5,2.5,0,0,0-2.326,0l-12.292,6.463,2.347-13.688a2.5,2.5,0,0,0-.718-2.213l-9.945-9.694L296.5,304.7a2.5,2.5,0,0,0-1.385,4.264l12.63,12.312-2.981,17.385a2.5,2.5,0,0,0,3.627,2.635S320.029,335.262,324.005,333.083Z" fill="url(#linear-gradient-4)"/>
    </g>
  </g>
</svg>
