<svg xmlns="http://www.w3.org/2000/svg" xmlns:xlink="http://www.w3.org/1999/xlink" width="70" height="70" viewBox="0 0 70 70">
  <defs>
    <linearGradient id="linear-gradient" x1="0.072" y1="0.5" x2="0.364" y2="0.5" gradientUnits="objectBoundingBox">
      <stop offset="0" stop-color="#b5e455"/>
      <stop offset="1" stop-color="#4aaa00"/>
    </linearGradient>
    <linearGradient id="linear-gradient-2" x1="0.5" y1="0.866" x2="0.5" y2="0.211" xlink:href="#linear-gradient"/>
    <linearGradient id="linear-gradient-3" x1="0.162" y1="0.5" x2="0.823" y2="0.5" xlink:href="#linear-gradient"/>
  </defs>
  <g id="icon26" transform="translate(-421 -800)">
    <g id="组_39430" data-name="组 39430" transform="translate(275.425 89.742)">
      <g id="组_39429" data-name="组 39429">
        <path id="路径_114035" data-name="路径 114035" d="M155.413,772.458a3.114,3.114,0,0,1-2.838-3.165V723.671a6.413,6.413,0,0,1,6.413-6.413h21.251a6.582,6.582,0,0,1,6.582,6.582v.242a.582.582,0,0,0,.581.582h17.7a3,3,0,0,1,3,3v32.128a3,3,0,0,1-3,3H187.4a6.587,6.587,0,0,1-6.581-6.556.589.589,0,0,0-.578-.607h-14.3a3.114,3.114,0,0,1-3.164-2.839,3,3,0,0,1,3-3.161h14.467a6.59,6.59,0,0,1,6.582,6.557.59.59,0,0,0,.581.606h14.7V730.664H187.4a6.58,6.58,0,0,1-6.581-6.581v-.243a.583.583,0,0,0-.582-.582H158.575v46.2A3,3,0,0,1,155.413,772.458Z" fill="url(#linear-gradient)"/>
      </g>
      <path id="路径_114036" data-name="路径 114036" d="M164.351,717.258h-5.842a5.935,5.935,0,0,0-5.934,5.935v46.1a3.114,3.114,0,0,0,2.838,3.165,3,3,0,0,0,3.162-3v-46.2C158.575,720,160.474,717.258,164.351,717.258Z" fill="url(#linear-gradient-2)"/>
      <path id="路径_114037" data-name="路径 114037" d="M205.106,724.664H187.4a.582.582,0,0,1-.581-.582v-.242a6.59,6.59,0,0,0-6.582-6.582h-4.813c5.106,0,5.4,3.6,5.4,6.582v.242a6.589,6.589,0,0,0,6.581,6.582h14.7v26.128H187.4a.581.581,0,0,1-.581-.581,6.59,6.59,0,0,0-6.582-6.582h-4.973c3.909,0,5.555,2.422,5.555,6.582a6.588,6.588,0,0,0,6.581,6.581h17.7a3,3,0,0,0,3-3V727.664A3,3,0,0,0,205.106,724.664Z" fill="url(#linear-gradient-3)"/>
    </g>
    <rect id="矩形_28990" data-name="矩形 28990" width="70" height="70" transform="translate(421 800)" fill="none"/>
  </g>
</svg>
