<svg xmlns="http://www.w3.org/2000/svg" xmlns:xlink="http://www.w3.org/1999/xlink" width="49" height="49" viewBox="0 0 49 49">
  <defs>
    <linearGradient id="linear-gradient" x1="0.073" y1="0.5" x2="1" y2="0.767" gradientUnits="objectBoundingBox">
      <stop offset="0" stop-color="#4be9ff"/>
      <stop offset="1" stop-color="#20c4fd"/>
    </linearGradient>
  </defs>
  <g id="服务时数" transform="translate(-115.5 -629.5)">
    <rect id="矩形_2758" data-name="矩形 2758" width="48" height="48" rx="24" transform="translate(116 630)" stroke="rgba(0,0,0,0)" stroke-width="1" fill="url(#linear-gradient)"/>
    <g id="组_15272" data-name="组 15272" transform="translate(113.49 630.362)">
      <path id="路径_7553" data-name="路径 7553" d="M111.19,72.466v3.039a1.75,1.75,0,0,1-1.75,1.75h-.184a1.75,1.75,0,0,1-1.75-1.75V71.1a1.757,1.757,0,0,1,1.279-1.684,11,11,0,0,0,7.019-6.226,4.12,4.12,0,0,1,3.787-2.512h.02a.531.531,0,0,1,.526.608,14.425,14.425,0,0,1-8.947,11.178Z" transform="translate(-79.793 -41.193)" fill="#fff"/>
      <path id="路径_7554" data-name="路径 7554" d="M21.628,72.466A14.567,14.567,0,0,1,12.519,61.3a.531.531,0,0,1,.523-.623h0a4.12,4.12,0,0,1,3.787,2.512,11,11,0,0,0,7.019,6.226A1.757,1.757,0,0,1,25.127,71.1v4.4a1.75,1.75,0,0,1-1.749,1.75h0a1.75,1.75,0,0,1-1.75-1.75Z" transform="translate(0 -41.193)" fill="#fff"/>
      <path id="路径_7555" data-name="路径 7555" d="M55.725,11.638a4.93,4.93,0,0,1,5.157,5.157c0,2.578-2.21,5.341-3.867,6.814a23.1,23.1,0,0,1-5.063,3.349.585.585,0,0,1-.556,0,23.1,23.1,0,0,1-5.063-3.349c-1.842-1.657-3.867-4.236-3.867-6.814a5.1,5.1,0,0,1,8.8-3.574.579.579,0,0,0,.819,0A4.959,4.959,0,0,1,55.725,11.638Z" transform="translate(-25.161)" fill="#fff"/>
    </g>
  </g>
</svg>
