<svg xmlns="http://www.w3.org/2000/svg" xmlns:xlink="http://www.w3.org/1999/xlink" width="70" height="70" viewBox="0 0 70 70">
  <defs>
    <linearGradient id="linear-gradient" x1="0.179" y1="0.482" x2="0.551" y2="0.7" gradientUnits="objectBoundingBox">
      <stop offset="0" stop-color="#ffd594"/>
      <stop offset="1" stop-color="#ff4700"/>
    </linearGradient>
    <linearGradient id="linear-gradient-2" x1="0.614" y1="0.836" x2="0.424" y2="0.112" xlink:href="#linear-gradient"/>
  </defs>
  <g id="icon25" transform="translate(-234 -794)">
    <g id="组_39437" data-name="组 39437" transform="translate(-847.166 660.9)">
      <g id="组_39434" data-name="组 39434">
        <path id="路径_114043" data-name="路径 114043" d="M1136.437,164.341v21.05a2.948,2.948,0,0,1-2.948,2.949H1125.5a7.24,7.24,0,0,0-3.624.971l-4.894,2.825a.645.645,0,0,0,.323,1.2h16.185a7.949,7.949,0,0,0,7.949-7.949V161.342a1.009,1.009,0,0,0-1.513-.874l-1.877,1.084A3.221,3.221,0,0,0,1136.437,164.341Z" fill="url(#linear-gradient)"/>
      </g>
      <path id="路径_114044" data-name="路径 114044" d="M1133.488,188.34h-26.631c-.164,0-.325.021-.488.032h-7.255a2.949,2.949,0,0,1-2.948-2.949V151.048a2.948,2.948,0,0,1,2.948-2.948h27.561a7.25,7.25,0,0,0,3.624-.971l4.894-2.825a.645.645,0,0,0-.323-1.2h-35.756a7.948,7.948,0,0,0-7.948,7.949v34.374a7.948,7.948,0,0,0,7.948,7.949h21.42c.164,0,.325-.021.488-.032h12.466a7.949,7.949,0,0,0,7.949-7.949v-4.365C1141.437,185.717,1137.988,188.34,1133.488,188.34Z" fill="url(#linear-gradient-2)"/>
      <g id="组_39435" data-name="组 39435">
        <path id="路径_114045" data-name="路径 114045" d="M1112.635,174.877l-8.93-8.929a2.5,2.5,0,0,1,0-3.536h0a2.5,2.5,0,0,1,3.536,0l11.91,11.911-.555.554A4.215,4.215,0,0,1,1112.635,174.877Z" stroke="rgba(0,0,0,0)" stroke-width="1" fill="url(#linear-gradient-2)"/>
      </g>
      <g id="组_39436" data-name="组 39436">
        <path id="路径_114046" data-name="路径 114046" d="M1118.6,174.877a4.215,4.215,0,0,1-5.961,0l-4.1-4.1c2.46,2.459,5.089,2,7.082.011l21.494-21.494a2.5,2.5,0,0,1,3.536,0h0a2.5,2.5,0,0,1,0,3.536Z" fill="url(#linear-gradient)"/>
      </g>
      <path id="路径_114047" data-name="路径 114047" d="M1099.114,148.1h27.561a7.25,7.25,0,0,0,3.624-.971l4.894-2.825a.645.645,0,0,0-.322-1.2h-35.757a7.948,7.948,0,0,0-7.948,7.949v4.365C1091.166,150.722,1094.615,148.1,1099.114,148.1Z" fill="url(#linear-gradient)"/>
    </g>
    <rect id="矩形_28989" data-name="矩形 28989" width="70" height="70" transform="translate(234 794)" fill="none"/>
  </g>
</svg>
