<svg xmlns="http://www.w3.org/2000/svg" xmlns:xlink="http://www.w3.org/1999/xlink" width="70" height="70" viewBox="0 0 70 70">
  <defs>
    <linearGradient id="linear-gradient" x1="0.179" y1="0.482" x2="0.551" y2="0.7" gradientUnits="objectBoundingBox">
      <stop offset="0" stop-color="#ffd594"/>
      <stop offset="1" stop-color="#ff4700"/>
    </linearGradient>
    <linearGradient id="linear-gradient-2" x1="0.614" y1="0.836" x2="0.424" y2="0.112" xlink:href="#linear-gradient"/>
  </defs>
  <g id="icon1" transform="translate(-76 -676)">
    <rect id="矩形_28984" data-name="矩形 28984" width="70" height="70" transform="translate(76 676)" fill="none"/>
    <g id="组_38778" data-name="组 38778" transform="translate(-215.87 539.593)">
      <path id="路径_112946" data-name="路径 112946" d="M324.9,148.98h18.242a3.287,3.287,0,0,1,3.287,3.286v38.317a3.286,3.286,0,0,1-3.286,3.286h-8.907a8.082,8.082,0,0,0-4.04,1.082l-5.455,3.15a.719.719,0,0,0,.36,1.341h18.041A8.861,8.861,0,0,0,352,190.583V152.267a8.859,8.859,0,0,0-8.86-8.86h-9.108a8.082,8.082,0,0,0-4.04,1.082l-5.455,3.149A.719.719,0,0,0,324.9,148.98Z" transform="translate(2.903)" fill="url(#linear-gradient)"/>
      <path id="路径_112947" data-name="路径 112947" d="M346.046,193.866H337.14c-.182,0-.362.023-.544.036H307.73a3.286,3.286,0,0,1-3.286-3.286V152.3a3.286,3.286,0,0,1,3.286-3.286h8.906a8.076,8.076,0,0,0,4.04-1.082l5.455-3.15a.718.718,0,0,0-.359-1.341H307.73a8.86,8.86,0,0,0-8.86,8.861v38.316a8.859,8.859,0,0,0,8.86,8.86h22.7c.183,0,.362-.023.544-.036h15.076a8.861,8.861,0,0,0,8.861-8.86v-4.867C354.907,190.944,351.062,193.866,346.046,193.866Z" transform="translate(0 0.004)" fill="url(#linear-gradient-2)"/>
      <g id="组_38776" data-name="组 38776" transform="translate(315.275 171.518)">
        <path id="路径_112948" data-name="路径 112948" d="M325.816,174.2h-9.443a2.787,2.787,0,0,1-2.787-2.787h0a2.786,2.786,0,0,1,2.787-2.787h14.141v.874A4.7,4.7,0,0,1,325.816,174.2Z" transform="translate(-313.587 -168.626)" fill="url(#linear-gradient-2)"/>
      </g>
      <g id="组_38777" data-name="组 38777" transform="translate(321.038 157.739)">
        <path id="路径_112949" data-name="路径 112949" d="M329.922,170.918a4.7,4.7,0,0,1-4.7,4.7h-6.466c3.878,0,5.591-2.431,5.591-5.573V159.051a2.787,2.787,0,0,1,2.787-2.787h0a2.787,2.787,0,0,1,2.787,2.787Z" transform="translate(-318.757 -156.264)" fill="url(#linear-gradient)"/>
      </g>
      <path id="路径_112950" data-name="路径 112950" d="M307.73,149.012h8.906a8.076,8.076,0,0,0,4.04-1.082l5.455-3.15a.718.718,0,0,0-.359-1.341H307.73a8.86,8.86,0,0,0-8.86,8.861v4.866C298.87,151.935,302.715,149.012,307.73,149.012Z" transform="translate(0 0.004)" fill="url(#linear-gradient)"/>
    </g>
  </g>
</svg>
