<svg xmlns="http://www.w3.org/2000/svg" xmlns:xlink="http://www.w3.org/1999/xlink" width="90" height="90" viewBox="0 0 90 90">
  <defs>
    <linearGradient id="linear-gradient" x1="0.86" y1="0.092" x2="0.146" y2="1.085" gradientUnits="objectBoundingBox">
      <stop offset="0" stop-color="#fc7e00"/>
      <stop offset="1" stop-color="#f20a0a"/>
    </linearGradient>
    <linearGradient id="linear-gradient-2" x1="0.169" y1="-0.421" x2="0.169" y2="1" gradientUnits="objectBoundingBox">
      <stop offset="0" stop-color="#fffbfb"/>
      <stop offset="1" stop-color="#ffe7e9"/>
    </linearGradient>
  </defs>
  <g id="组_15390" data-name="组 15390" transform="translate(-423 -706)">
    <path id="路径_7459" data-name="路径 7459" d="M45,0A45,45,0,1,1,0,45,45,45,0,0,1,45,0Z" transform="translate(423 706)" fill="url(#linear-gradient)"/>
    <path id="联合_32" data-name="联合 32" d="M-4593.406-5059.127a2.641,2.641,0,0,1-2.641-2.641v-6.648a2.652,2.652,0,0,1,1.931-2.542,16.6,16.6,0,0,0,10.6-9.4,6.222,6.222,0,0,1,5.717-3.792h.031a.8.8,0,0,1,.793.918,21.779,21.779,0,0,1-13.508,16.876v4.588a2.64,2.64,0,0,1-2.641,2.641Zm-11.829-2.641v-4.588a21.99,21.99,0,0,1-13.752-16.854.8.8,0,0,1,.789-.941,6.219,6.219,0,0,1,5.717,3.792,16.6,16.6,0,0,0,10.6,9.4,2.652,2.652,0,0,1,1.931,2.542v6.648a2.64,2.64,0,0,1-2.641,2.641A2.64,2.64,0,0,1-4605.235-5061.768Zm6.955-11.1a34.886,34.886,0,0,1-7.644-5.056c-2.781-2.5-5.838-6.395-5.838-10.288a7.443,7.443,0,0,1,7.785-7.785,7.484,7.484,0,0,1,5.5,2.389.875.875,0,0,0,1.237,0,7.488,7.488,0,0,1,5.5-2.389,7.443,7.443,0,0,1,7.786,7.785c0,3.893-3.336,8.064-5.839,10.288a34.888,34.888,0,0,1-7.643,5.056.874.874,0,0,1-.419.106A.874.874,0,0,1-4598.28-5072.872Z" transform="translate(5066 5830)" stroke="rgba(0,0,0,0)" stroke-width="1" fill="url(#linear-gradient-2)"/>
  </g>
</svg>
