<svg xmlns="http://www.w3.org/2000/svg" xmlns:xlink="http://www.w3.org/1999/xlink" width="121.54" height="127.886" viewBox="0 0 121.54 127.886">
  <defs>
    <linearGradient id="linear-gradient" x1="0.5" x2="0.5" y2="1" gradientUnits="objectBoundingBox">
      <stop offset="0" stop-color="#fff"/>
      <stop offset="1" stop-color="#d1e8ff"/>
    </linearGradient>
    <filter id="矩形_27291" x="0" y="6.69" width="104.751" height="121.196" filterUnits="userSpaceOnUse">
      <feOffset dy="3" input="SourceAlpha"/>
      <feGaussianBlur stdDeviation="5" result="blur"/>
      <feFlood flood-color="#508af0" flood-opacity="0.29"/>
      <feComposite operator="in" in2="blur"/>
      <feComposite in="SourceGraphic"/>
    </filter>
    <linearGradient id="linear-gradient-2" x1="-0.057" y1="-0.582" x2="0.945" y2="1" gradientUnits="objectBoundingBox">
      <stop offset="0" stop-color="#ffd49b"/>
      <stop offset="1" stop-color="#f6a450"/>
    </linearGradient>
    <linearGradient id="linear-gradient-3" x1="0.164" y1="0.058" x2="0.605" y2="1.051" gradientUnits="objectBoundingBox">
      <stop offset="0" stop-color="#68b5ff"/>
      <stop offset="1" stop-color="#0182ff"/>
    </linearGradient>
  </defs>
  <g id="icon40" transform="translate(-108.46 -546)">
    <circle id="椭圆_8382" data-name="椭圆 8382" cx="60" cy="60" r="60" transform="translate(110 546)" fill="#e5f2ff"/>
    <g transform="matrix(1, 0, 0, 1, 108.46, 546)" filter="url(#矩形_27291)">
      <path id="矩形_27291-2" data-name="矩形 27291" d="M5.98,0H68.771a5.98,5.98,0,0,1,5.98,5.98V85.216a5.98,5.98,0,0,1-5.98,5.98H11.96A11.96,11.96,0,0,1,0,79.236V5.98A5.98,5.98,0,0,1,5.98,0Z" transform="translate(15 18.69)" fill="url(#linear-gradient)"/>
    </g>
    <rect id="矩形_27294" data-name="矩形 27294" width="25" height="3" rx="1.5" transform="translate(135 579)" fill="url(#linear-gradient-2)"/>
    <rect id="矩形_27295" data-name="矩形 27295" width="52" height="3" rx="1.5" transform="translate(135 592)" fill="#dce5f8"/>
    <rect id="矩形_27296" data-name="矩形 27296" width="52" height="3" rx="1.5" transform="translate(135 602)" fill="#dce5f8"/>
    <rect id="矩形_27296-2" data-name="矩形 27296" width="52" height="3" rx="1.5" transform="translate(135 612)" fill="#dce5f8"/>
    <rect id="矩形_27298" data-name="矩形 27298" width="52" height="3" rx="1.5" transform="translate(135 622)" fill="#dce5f8"/>
    <g id="组_38837" data-name="组 38837" transform="translate(14.911 576.998)">
      <path id="路径_112974" data-name="路径 112974" d="M299.8,76.73a12.814,12.814,0,0,1-12.8-12.8V39.8a12.8,12.8,0,1,1,25.6,0V63.931A12.814,12.814,0,0,1,299.8,76.73Zm0-45.958a9.037,9.037,0,0,0-9.027,9.027V63.931a9.027,9.027,0,1,0,18.054,0V39.8A9.037,9.037,0,0,0,299.8,30.772Z" transform="translate(-121.412 0)" stroke="rgba(0,0,0,0)" stroke-miterlimit="10" stroke-width="1" fill="url(#linear-gradient-3)"/>
      <g id="组_38839" data-name="组 38839" transform="translate(158.3 49.832)">
        <path id="路径_112975" data-name="路径 112975" d="M196.316,399.151H160.458a1.985,1.985,0,0,1-2.158-1.75V371.85a1.986,1.986,0,0,1,2.158-1.75h35.858a1.985,1.985,0,0,1,2.158,1.75V397.4A1.986,1.986,0,0,1,196.316,399.151Z" transform="translate(-158.3 -370.1)" fill="url(#linear-gradient-3)"/>
        <path id="联合_131" data-name="联合 131" d="M16249.543,8273.432a19.292,19.292,0,0,1,1.056-3.74,3.472,3.472,0,1,1,3.322,0,19.292,19.292,0,0,1,1.056,3.74Z" transform="translate(-16232.173 -8253.968)" fill="#8cc5ff"/>
      </g>
    </g>
  </g>
</svg>
