<svg xmlns="http://www.w3.org/2000/svg" xmlns:xlink="http://www.w3.org/1999/xlink" width="70" height="70" viewBox="0 0 70 70">
  <defs>
    <linearGradient id="linear-gradient" x1="0.532" y1="0.609" x2="0.485" y2="0.295" gradientUnits="objectBoundingBox">
      <stop offset="0" stop-color="#ffd594"/>
      <stop offset="1" stop-color="#ff4700"/>
    </linearGradient>
    <linearGradient id="linear-gradient-2" x1="0.281" y1="0.454" x2="0.675" y2="0.749" xlink:href="#linear-gradient"/>
    <linearGradient id="linear-gradient-3" x1="0.586" y1="0.499" x2="0.368" y2="0.583" xlink:href="#linear-gradient"/>
    <linearGradient id="linear-gradient-4" x1="0.345" y1="0.615" x2="0.817" y2="0.312" xlink:href="#linear-gradient"/>
    <linearGradient id="linear-gradient-5" x1="0.658" y1="0.31" x2="0.103" y2="0.81" xlink:href="#linear-gradient"/>
  </defs>
  <g id="icon20" transform="translate(-445 -1137)">
    <rect id="矩形_29006" data-name="矩形 29006" width="70" height="70" transform="translate(445 1137)" fill="none" opacity="0.7"/>
    <g id="组_39404" data-name="组 39404" transform="translate(-132.416 714.535)">
      <g id="组_39399" data-name="组 39399">
        <path id="路径_114010" data-name="路径 114010" d="M598.461,486.075a2.5,2.5,0,0,1-2.5-2.5v-4.317a5.442,5.442,0,0,0-1.932-4.164l-6.906-5.838a10.4,10.4,0,0,1-3.608-9.4l2.252-16.466a8.837,8.837,0,0,1,6-7.17l19.588-6.329a8.775,8.775,0,0,1,8.748,1.984c2.252,2.139,6.39,6.027,8.8,8.042a2.5,2.5,0,0,1-3.206,3.838c-2.393-2-6.236-5.592-9.039-8.254a3.787,3.787,0,0,0-3.769-.852l-19.587,6.329a3.807,3.807,0,0,0-2.588,3.09l-2.252,16.465a5.422,5.422,0,0,0,1.882,4.9l6.906,5.838a10.431,10.431,0,0,1,3.7,7.982v4.317A2.5,2.5,0,0,1,598.461,486.075Z" fill="url(#linear-gradient)"/>
      </g>
      <g id="组_39400" data-name="组 39400">
        <path id="路径_114011" data-name="路径 114011" d="M584.768,450.694l1-7.3a8.837,8.837,0,0,1,6-7.17l19.588-6.329a8.775,8.775,0,0,1,8.748,1.984c2.252,2.139,6.39,6.027,8.8,8.042a2.5,2.5,0,0,1-3.206,3.838c-2.393-2-6.236-5.592-9.039-8.254a3.787,3.787,0,0,0-3.769-.852l-19.587,6.329C588.723,442.66,585.34,445.34,584.768,450.694Z" fill="url(#linear-gradient-2)"/>
      </g>
      <g id="组_39401" data-name="组 39401">
        <path id="路径_114012" data-name="路径 114012" d="M625.039,486.075h-.044a2.5,2.5,0,0,1-2.456-2.543l.08-4.7a19.3,19.3,0,0,1,2.811-9.7l9.947-16.342a3.054,3.054,0,0,0-.316-3.62l-4.015-4.564a1.02,1.02,0,0,0-1.367-.155l-15.887,11.442a1.6,1.6,0,0,0-.4,2.2l.868,1.3a1.6,1.6,0,0,0,2.166.483c8.014-4.866,9.168-5.71,9.318-5.829a2.5,2.5,0,1,1,3.119,3.908c-.314.25-1.147.915-9.843,6.2a6.588,6.588,0,0,1-8.917-1.98l-.868-1.3a6.581,6.581,0,0,1,1.632-9.032l15.887-11.442a6,6,0,0,1,8.044.909l4.014,4.564a8.034,8.034,0,0,1,.833,9.523L629.7,471.733a14.3,14.3,0,0,0-2.083,7.189l-.08,4.7A2.5,2.5,0,0,1,625.039,486.075Z" fill="url(#linear-gradient-3)"/>
      </g>
      <g id="组_39402" data-name="组 39402">
        <path id="路径_114013" data-name="路径 114013" d="M625.039,486.075h-.044a2.5,2.5,0,0,1-2.456-2.543l.08-4.7a19.3,19.3,0,0,1,2.811-9.7l9.947-16.342a3.054,3.054,0,0,0-.316-3.62l-4.015-4.564a1.02,1.02,0,0,0-1.367-.155l-15.887,11.442a1.6,1.6,0,0,0-.4,2.2l.868,1.3c1.381,2,4.089,5.114,8.758,2.316-1.1.678-2.422,1.484-4,2.441a6.588,6.588,0,0,1-8.917-1.98l-.868-1.3a6.581,6.581,0,0,1,1.632-9.032l15.887-11.442a6,6,0,0,1,8.044.909l4.014,4.564a8.034,8.034,0,0,1,.833,9.523L629.7,471.733a14.3,14.3,0,0,0-2.083,7.189l-.08,4.7A2.5,2.5,0,0,1,625.039,486.075Z" fill="url(#linear-gradient-4)"/>
      </g>
      <g id="组_39403" data-name="组 39403">
        <path id="路径_114014" data-name="路径 114014" d="M625.039,486.075h-.044a2.5,2.5,0,0,1-2.456-2.543l.08-4.7a19.3,19.3,0,0,1,2.811-9.7l9.947-16.342c3.006-5.472,2.5-7.99-.576-11.487l4.014,4.564a8.034,8.034,0,0,1,.833,9.523L629.7,471.733a14.3,14.3,0,0,0-2.083,7.189l-.08,4.7A2.5,2.5,0,0,1,625.039,486.075Z" fill="url(#linear-gradient-5)"/>
      </g>
    </g>
  </g>
</svg>
