<svg xmlns="http://www.w3.org/2000/svg" xmlns:xlink="http://www.w3.org/1999/xlink" width="70" height="70" viewBox="0 0 70 70">
  <defs>
    <linearGradient id="linear-gradient" x1="-0.307" y1="-0.265" x2="1.088" y2="1.067" gradientUnits="objectBoundingBox">
      <stop offset="0" stop-color="#ffd594"/>
      <stop offset="0.148" stop-color="#ffd594"/>
      <stop offset="1" stop-color="#ff4700"/>
    </linearGradient>
    <linearGradient id="linear-gradient-3" x1="0.179" y1="0.482" x2="0.551" y2="0.7" gradientUnits="objectBoundingBox">
      <stop offset="0" stop-color="#ffd594"/>
      <stop offset="1" stop-color="#ff4700"/>
    </linearGradient>
  </defs>
  <g id="icon6" transform="translate(-235 -980.998)">
    <rect id="矩形_28990" data-name="矩形 28990" width="70" height="70" transform="translate(235 980.998)" fill="none"/>
    <g id="组_38751" data-name="组 38751" transform="translate(-486.594 415.461)">
      <g id="组_38749" data-name="组 38749">
        <path id="路径_112930" data-name="路径 112930" d="M781.617,573.537a2.5,2.5,0,0,1,2.5,2.5v33.47A2.5,2.5,0,0,1,781.4,612l-34.666-3.018a2.5,2.5,0,0,1-2.283-2.49V582.4a2.5,2.5,0,0,1,2.049-2.459l34.666-6.361A2.455,2.455,0,0,1,781.617,573.537Zm-2.5,33.243V579.037l-29.666,5.444V604.2Z" fill="url(#linear-gradient)"/>
      </g>
      <g id="组_38750" data-name="组 38750">
        <path id="路径_112931" data-name="路径 112931" d="M731.093,628.1a2.5,2.5,0,0,1-2.5-2.5V592.131a2.5,2.5,0,0,1,2.717-2.49l34.666,3.018a2.5,2.5,0,0,1,2.283,2.491v24.091a2.5,2.5,0,0,1-2.049,2.459l-34.666,6.361A2.535,2.535,0,0,1,731.093,628.1Zm2.5-33.243V622.6l29.666-5.443V597.442Z" stroke="rgba(0,0,0,0)" stroke-width="1" fill="url(#linear-gradient)"/>
      </g>
      <path id="路径_112932" data-name="路径 112932" d="M733.593,622.6V594.859c0-2.519.672-4.961,5.54-4.537l-7.823-.681a2.5,2.5,0,0,0-2.717,2.49V625.6a2.5,2.5,0,0,0,2.5,2.5,2.535,2.535,0,0,0,.451-.041l2.049-.376,5.709-1.048C735.89,627.263,733.593,626.915,733.593,622.6Z" fill="url(#linear-gradient-3)"/>
      <path id="路径_112933" data-name="路径 112933" d="M765.976,592.659l-9.171-.8c5.348.466,6.454,2.777,6.454,5.581v19.716c0,1.544.4,5.01-6.248,6.23l9.2-1.688a2.5,2.5,0,0,0,2.049-2.459V595.15A2.5,2.5,0,0,0,765.976,592.659Z" fill="url(#linear-gradient-3)"/>
      <path id="路径_112934" data-name="路径 112934" d="M779.117,579.037V606.78c0,2.518-.672,4.96-5.54,4.536L781.4,612a2.5,2.5,0,0,0,2.717-2.49v-33.47a2.5,2.5,0,0,0-2.5-2.5,2.455,2.455,0,0,0-.451.041l-2.049.375L773.409,575C776.82,574.375,779.117,574.724,779.117,579.037Z" fill="url(#linear-gradient-3)"/>
      <path id="路径_112935" data-name="路径 112935" d="M746.734,608.979l9.171.8c-5.347-.465-6.454-2.777-6.454-5.58V584.481c0-1.545-.4-5.01,6.249-6.23l-9.2,1.688a2.5,2.5,0,0,0-2.049,2.459v24.091A2.5,2.5,0,0,0,746.734,608.979Z" fill="url(#linear-gradient-3)"/>
    </g>
  </g>
</svg>
