<svg xmlns="http://www.w3.org/2000/svg" width="85" height="85" viewBox="0 0 85 85">
  <g id="icon13" transform="translate(-91 -2056)">
    <rect id="矩形_29000" data-name="矩形 29000" width="85" height="85" transform="translate(91 2056)" fill="none"/>
    <g id="组_38844" data-name="组 38844" transform="translate(809.236 1903.103)">
      <path id="路径_113042" data-name="路径 113042" d="M-682.113,172.846a14.724,14.724,0,0,1,12.276-9.27c-2.928,2.918-1.823,6.75,2.77,7.4,4.516.641,12.931-.626,15.435-5.565,4.065-8.015,11.043-14.433,17.537-7.683a3.159,3.159,0,0,0,2.02,1.232c1,.1.454.188-.559,1.054-5.2,4.447-4.827,8-.543,9.052,5.506,1.346,12.947-.977,20.133-4.156a15.573,15.573,0,0,1-5.769,3.424c1.12.186,2.39-.7,3.841-1.169-1.656,1.554-4.615,2.886-8.319,4.1a19.514,19.514,0,0,0,5.858-1.805,28.776,28.776,0,0,1-7.843,4.072,27.069,27.069,0,0,0,9.051-3.861,10.288,10.288,0,0,1-4.124,3.552,22.74,22.74,0,0,0,2.871-1.214,14.64,14.64,0,0,1-5.235,3.584c.908-.143,1.965-.543,4.586-2.228-3.022,3.8-8.825,5.744-16.5,7.626-2.2.541-8.917.662-10.809,3.236-3.3,4.492.432,7.79,7.411,5.737a12.6,12.6,0,0,1-5.846,1.837,9.04,9.04,0,0,0,3.925-.334,9.133,9.133,0,0,1-2.543,1.211,8.924,8.924,0,0,0,3.171-.877,16.409,16.409,0,0,1-6.891,3.674l2.839-.5c-9.809,6.945-28.94,5.692-31.734-3.424,6.444.306,11.343-1.837,13.779-7.766C-671.878,187.261-686.951,184.467-682.113,172.846Z" transform="translate(-25.771)" fill="#fff" fill-rule="evenodd"/>
      <path id="路径_113043" data-name="路径 113043" d="M-641.518,355.589a11.118,11.118,0,0,0,4.23-2.706,19.386,19.386,0,0,1-8.8,3.092c4.053-1.134,6.656-2.619,8.267-4.343a20.573,20.573,0,0,1-7.349,3.508,14.92,14.92,0,0,0,4.013-2.371,17.513,17.513,0,0,1-3.336,1.59q.014-.226.028-.453l-4.128,1.651c2.3-.937,5.276-2.792,5.428-3.582a16.435,16.435,0,0,1-2.171,1.578,5.8,5.8,0,0,0,1.086-1.42,16.66,16.66,0,0,1-8.518,3.758c5.071-2.361,6.116-6.109,4.42-8.052-3.078-3.529-10.157-4.711-18.784-4.892-10.412-.219-13.37,3.826-9.437,5.929,5.522,2.952,14.343,2.044,22.3,7.432,6.132,4.154,9.511,10.762,5.345,16.535-5.313,7.363-19.819,3.13-25.093-3.389-3.422-4.23-5.85-10.252-10.733-14.9-4.855-4.621-8.577-3.266-12.944,5.094-3.176,6.08-15.408,9.843-17.871,3.925-3.828-9.2,9.409-20.154,23.132-22.3-11.253,5.345-16.047,14.988-12.276,16.034,2.887.8,6.737-.36,10.336-4.221,3.035-3.256,5.977-2.306,8.788-1.04,4.907,2.211,12.8,11.834,17.37,13.821,4.51,1.962,10.9,2.854,10.773-3.215-.091-4.336-6.716-8.16-12.456-9.889-3.984-1.2-8.843-2.4-9.34-5.811-.612-4.2,6.256-7.323,11.441-8.6,13.467-3.321,28.576-.983,32.485,6.347C-632.347,350.264-636.386,354.144-641.518,355.589Z" transform="translate(0 -141.29)" fill="#fff" fill-rule="evenodd"/>
    </g>
  </g>
</svg>
