<svg xmlns="http://www.w3.org/2000/svg" xmlns:xlink="http://www.w3.org/1999/xlink" width="90" height="90" viewBox="0 0 90 90">
  <defs>
    <linearGradient id="linear-gradient" x1="0.069" y1="-0.029" x2="0.85" y2="0.908" gradientUnits="objectBoundingBox">
      <stop offset="0" stop-color="#05bfff"/>
      <stop offset="0.057" stop-color="#05bbff"/>
      <stop offset="0.121" stop-color="#05b7ff"/>
      <stop offset="0.19" stop-color="#05b2ff"/>
      <stop offset="0.264" stop-color="#05adff"/>
      <stop offset="0.341" stop-color="#05a8ff"/>
      <stop offset="0.42" stop-color="#05a2ff"/>
      <stop offset="0.5" stop-color="#059cff"/>
      <stop offset="0.58" stop-color="#0595ff"/>
      <stop offset="0.659" stop-color="#058eff"/>
      <stop offset="0.736" stop-color="#0588ff"/>
      <stop offset="0.81" stop-color="#0581ff"/>
      <stop offset="0.879" stop-color="#057aff"/>
      <stop offset="0.943" stop-color="#0573ff"/>
      <stop offset="1" stop-color="#056dff"/>
    </linearGradient>
    <linearGradient id="linear-gradient-2" x1="0.5" x2="0.5" y2="1" gradientUnits="objectBoundingBox">
      <stop offset="0" stop-color="#fefeff"/>
      <stop offset="1" stop-color="#e2f5ff"/>
    </linearGradient>
  </defs>
  <g id="组_15391" data-name="组 15391" transform="translate(-608 -706)">
    <path id="路径_7569" data-name="路径 7569" d="M45,0A45,45,0,1,1,0,45,45,45,0,0,1,45,0Z" transform="translate(608 706)" fill="url(#linear-gradient)"/>
    <path id="减去_15" data-name="减去 15" d="M-4640.922-13638.329c-.056,0-.114,0-.178-.007h-30.132a4.945,4.945,0,0,1-2.591-.94,3.378,3.378,0,0,1-1.177-2.591v-28.011a3.76,3.76,0,0,1,1.177-2.588,3.526,3.526,0,0,1,2.413-.949c.054,0,.112,0,.178,0h2.825v2.592a3.659,3.659,0,0,0,3.67,3.529h.095c.081.006.164.009.246.009a3.532,3.532,0,0,0,3.512-3.29c.007-.083.007-.166.007-.247v-2.592h9.418v2.592a3.78,3.78,0,0,0,3.766,3.535c.083,0,.161,0,.233-.007a3.776,3.776,0,0,0,3.528-3.528v-2.592h2.828a4.9,4.9,0,0,1,2.591.944,3.365,3.365,0,0,1,1.177,2.588v28.011a3.767,3.767,0,0,1-1.177,2.591A3.523,3.523,0,0,1-4640.922-13638.329ZM-4665-13651a2,2,0,0,0-2,2,2,2,0,0,0,2,2h18a2,2,0,0,0,2-2,2,2,0,0,0-2-2Zm0-10a2,2,0,0,0-2,2,2,2,0,0,0,2,2h18a2,2,0,0,0,2-2,2,2,0,0,0-2-2Zm.354-7.932h0a2.032,2.032,0,0,1-1.884-1.888v-3.532a1.81,1.81,0,0,1,1.811-1.648h.146a1.808,1.808,0,0,1,1.808,1.648v3.532a1.763,1.763,0,0,1-.466,1.174,2.677,2.677,0,0,1-1.415.714Zm16.949,0h-.072a1.808,1.808,0,0,1-1.809-1.651v-3.769a1.9,1.9,0,0,1,1.878-1.647,1.876,1.876,0,0,1,.257.018,1.908,1.908,0,0,1,1.63,1.63v3.532a1.794,1.794,0,0,1-.47,1.174A2.035,2.035,0,0,1-4647.7-13668.931Z" transform="translate(5309.001 14407.999)" stroke="rgba(0,0,0,0)" stroke-miterlimit="10" stroke-width="1" fill="url(#linear-gradient-2)"/>
  </g>
</svg>
