<svg xmlns="http://www.w3.org/2000/svg" xmlns:xlink="http://www.w3.org/1999/xlink" width="70" height="70" viewBox="0 0 70 70">
  <defs>
    <linearGradient id="linear-gradient" x1="-0.732" y1="1.658" x2="-0.622" y2="1.221" gradientUnits="objectBoundingBox">
      <stop offset="0" stop-color="#ffd594"/>
      <stop offset="1" stop-color="#ff4700"/>
    </linearGradient>
    <linearGradient id="linear-gradient-2" x1="0.312" y1="0.853" x2="0.496" y2="0.601" xlink:href="#linear-gradient"/>
    <linearGradient id="linear-gradient-3" x1="0.15" y1="0.904" x2="0.741" y2="0.597" xlink:href="#linear-gradient"/>
    <linearGradient id="linear-gradient-4" x1="0.497" y1="0.049" x2="0.497" y2="0.736" xlink:href="#linear-gradient"/>
    <linearGradient id="linear-gradient-5" x1="-0.185" y1="2.366" x2="0.545" y2="1.749" xlink:href="#linear-gradient"/>
    <linearGradient id="linear-gradient-6" x1="0.641" y1="0.5" x2="0.249" y2="0.5" xlink:href="#linear-gradient"/>
    <linearGradient id="linear-gradient-7" x1="-0.88" y1="1.321" x2="-0.444" y2="0.962" xlink:href="#linear-gradient"/>
    <linearGradient id="linear-gradient-8" x1="0.529" y1="0.611" x2="0.384" y2="0.101" xlink:href="#linear-gradient"/>
  </defs>
  <g id="icon29" transform="translate(-290 -1090)">
    <rect id="矩形_28993" data-name="矩形 28993" width="70" height="70" transform="translate(290 1090)" fill="none"/>
    <g id="组_39445" data-name="组 39445" transform="translate(-287.054 812.15)">
      <g id="组_39440" data-name="组 39440">
        <path id="路径_114048" data-name="路径 114048" d="M619.612,328.483a2.4,2.4,0,0,1-1.7-4.1,15.965,15.965,0,0,0,.022-22.58,2.4,2.4,0,1,1,3.4-3.392,20.766,20.766,0,0,1-.027,29.37A2.4,2.4,0,0,1,619.612,328.483Z" fill="url(#linear-gradient)"/>
      </g>
      <g id="组_39441" data-name="组 39441">
        <path id="路径_114049" data-name="路径 114049" d="M611.816,339.323a2.351,2.351,0,0,1-1.247-.36L595.127,329.3l-8.719-.009a2.356,2.356,0,0,1-2.354-2.358l.026-27.743a2.357,2.357,0,0,1,2.359-2.354l8.719.008,15.459-9.636a2.357,2.357,0,0,1,3.6,2l-.045,47.76a2.358,2.358,0,0,1-2.359,2.354ZM588.769,324.58l7.038.007a2.352,2.352,0,0,1,1.248.359l12.411,7.769.037-39.26L597.078,301.2a2.348,2.348,0,0,1-1.249.357l-7.038-.006Z" fill="url(#linear-gradient-2)"/>
      </g>
      <path id="路径_114050" data-name="路径 114050" d="M588.791,301.55l7.038.006a2.348,2.348,0,0,0,1.249-.357l12.425-7.744-.016,17.643,4.712,0,.021-21.893a2.357,2.357,0,0,0-3.6-2l-15.459,9.636-8.719-.008a2.357,2.357,0,0,0-2.359,2.354l-.005,6.11C584.077,302.953,586.124,301.547,588.791,301.55Z" fill="url(#linear-gradient-3)"/>
      <path id="路径_114051" data-name="路径 114051" d="M613.008,287.147a2.354,2.354,0,0,0-2.391.06l-5.926,3.694c3.481-2.17,4.815-.531,4.812,2.554l-.025,27.028-.012,12.232-.005,5.555,1.108.693a2.356,2.356,0,0,0,3.606-1.994l.045-47.76A2.359,2.359,0,0,0,613.008,287.147Z" fill="url(#linear-gradient-4)"/>
      <g id="组_39442" data-name="组 39442">
        <path id="路径_114052" data-name="路径 114052" d="M620.644,305.4a16.041,16.041,0,0,0-2.7-3.6,2.4,2.4,0,1,1,3.4-3.392,20.627,20.627,0,0,1,6.07,14.69C627.414,305.377,620.973,306,620.644,305.4Z" fill="url(#linear-gradient-5)"/>
      </g>
      <path id="路径_114053" data-name="路径 114053" d="M609.466,332.715l-12.411-7.769a2.352,2.352,0,0,0-1.248-.359l-7.038-.007.012-12.78-4.712,0-.015,15.136a2.356,2.356,0,0,0,2.354,2.358l8.719.009,15.442,9.664a2.356,2.356,0,0,0,3.606-1.994l.006-6.916C614.178,333.241,611.284,333.853,609.466,332.715Z" fill="url(#linear-gradient-6)"/>
      <g id="组_39443" data-name="组 39443">
        <path id="路径_114054" data-name="路径 114054" d="M627.764,336.65a2.4,2.4,0,0,1-1.693-4.1,27.54,27.54,0,0,0,.036-38.9,2.4,2.4,0,0,1,3.4-3.391,32.344,32.344,0,0,1-.042,45.691A2.393,2.393,0,0,1,627.764,336.65Z" fill="url(#linear-gradient-7)"/>
      </g>
      <g id="组_39444" data-name="组 39444">
        <path id="路径_114055" data-name="路径 114055" d="M631.842,302.059a30.314,30.314,0,0,0-5.735-8.41,2.4,2.4,0,0,1,3.4-3.391,32.2,32.2,0,0,1,9.425,22.466C638.937,305.821,634.111,306.767,631.842,302.059Z" fill="url(#linear-gradient-8)"/>
      </g>
    </g>
  </g>
</svg>
