<svg xmlns="http://www.w3.org/2000/svg" width="36" height="36" viewBox="0 0 36 36">
  <path id="路径_7469" data-name="路径 7469" d="M12.3,28.836H29.245V11.9H12.3ZM16.539,16.13H25.01V24.6H16.539ZM31.363,11.9V28.836H48.3V11.9ZM44.069,24.6H35.6V16.13h8.471ZM18.657,22.483h4.235V18.248H18.657ZM12.3,47.9H29.245V30.954H12.3Zm4.235-12.706H25.01V43.66H16.539ZM41.951,18.248H37.716v4.235h4.235V18.248ZM31.363,47.9H35.6V43.66H31.363ZM35.6,35.189V43.66h4.235V35.189Zm8.471,8.471H39.834V47.9H48.3V39.424H44.069Zm0-8.471H48.3V30.954H44.069ZM31.363,30.954v4.235H35.6V30.954ZM18.657,41.542h4.235V37.307H18.657Z" transform="translate(-12.304 -11.895)" fill="#fff"/>
</svg>
