<svg xmlns="http://www.w3.org/2000/svg" xmlns:xlink="http://www.w3.org/1999/xlink" width="120" height="124" viewBox="0 0 120 124">
  <defs>
    <filter id="矩形_27282" x="8.002" y="0" width="105" height="121" filterUnits="userSpaceOnUse">
      <feOffset dy="3" input="SourceAlpha"/>
      <feGaussianBlur stdDeviation="5" result="blur"/>
      <feFlood flood-color="#508af0" flood-opacity="0.29"/>
      <feComposite operator="in" in2="blur"/>
      <feComposite in="SourceGraphic"/>
    </filter>
    <linearGradient id="linear-gradient" x1="0.5" x2="0.5" y2="1" gradientUnits="objectBoundingBox">
      <stop offset="0" stop-color="#fff"/>
      <stop offset="1" stop-color="#508af0"/>
    </linearGradient>
    <linearGradient id="linear-gradient-2" x1="0.5" x2="0.5" y2="1" gradientUnits="objectBoundingBox">
      <stop offset="0" stop-color="#cbdeff"/>
      <stop offset="1" stop-color="#7e9dff"/>
    </linearGradient>
    <linearGradient id="linear-gradient-3" x1="0.5" x2="0.5" y2="1" gradientUnits="objectBoundingBox">
      <stop offset="0" stop-color="#699cf6"/>
      <stop offset="1" stop-color="#587ef5"/>
    </linearGradient>
    <linearGradient id="linear-gradient-4" x1="-0.057" y1="-0.582" x2="0.945" y2="1" gradientUnits="objectBoundingBox">
      <stop offset="0" stop-color="#f63998"/>
      <stop offset="1" stop-color="#e61f54"/>
    </linearGradient>
  </defs>
  <g id="icon39" transform="translate(-95 -714)">
    <g id="组_39287" data-name="组 39287" transform="translate(95 718)">
      <g id="组_38906" data-name="组 38906">
        <circle id="椭圆_8378" data-name="椭圆 8378" cx="60" cy="60" r="60" fill="#ebf2ff"/>
        <g id="组_38880" data-name="组 38880" transform="translate(10.312 7.5)">
          <path id="路径_109063" data-name="路径 109063" d="M8.1,1.121H90.38c1.572,0,2.394,1.37,2.847,2.847l6.418,20.554A2.847,2.847,0,0,1,96.8,27.369H2.847A2.847,2.847,0,0,1,0,24.522L5.25,3.968C5.647,2.35,6.525,1.121,8.1,1.121Z" transform="translate(0.179 31.074)" fill="#4c6ef4"/>
          <g transform="matrix(1, 0, 0, 1, -10.31, -11.5)" filter="url(#矩形_27282)">
            <rect id="矩形_27282-2" data-name="矩形 27282" width="75" height="91" rx="8" transform="translate(23 12)" fill="#fff"/>
          </g>
          <rect id="矩形_27283" data-name="矩形 27283" width="75" height="47" rx="23.5" transform="translate(12.688 30.5)" opacity="0.79" fill="url(#linear-gradient)"/>
          <g id="组_38873" data-name="组 38873" transform="translate(0 45)">
            <rect id="矩形_27281" data-name="矩形 27281" width="100" height="47" rx="8" transform="translate(-0.313 0.5)" fill="url(#linear-gradient-2)"/>
            <rect id="矩形_27280" data-name="矩形 27280" width="100" height="49" rx="8" transform="translate(-0.313 5.5)" fill="url(#linear-gradient-3)"/>
          </g>
          <rect id="矩形_27284" data-name="矩形 27284" width="26" height="3" rx="1.5" transform="translate(25.688 10.5)" fill="#dce5f8"/>
          <rect id="矩形_27285" data-name="矩形 27285" width="48" height="2" rx="1" transform="translate(25.688 19.5)" fill="#dce5f8"/>
          <rect id="矩形_27286" data-name="矩形 27286" width="48" height="3" rx="1.5" transform="translate(25.688 27.5)" fill="#dce5f8"/>
          <rect id="矩形_27287" data-name="矩形 27287" width="48" height="2" rx="1" transform="translate(25.688 35.5)" fill="#dce5f8"/>
          <rect id="矩形_27288" data-name="矩形 27288" width="26" height="5" rx="2.5" transform="translate(36.688 60.5)" fill="#c6daff"/>
        </g>
      </g>
      <g id="组_39286" data-name="组 39286" transform="translate(71.25 15)">
        <g id="H5-图标_star-fill" transform="translate(3.75 3.75)">
          <path id="路径_109269" data-name="路径 109269" d="M9.075,4.127a.626.626,0,0,0,.18-.63.579.579,0,0,0-.5-.4l-2.3-.35a.456.456,0,0,1-.261-.193L5.161.37A.549.549,0,0,0,4.47.024.558.558,0,0,0,4.124.37L3.1,2.553a.454.454,0,0,1-.263.193L.533,3.1a.579.579,0,0,0-.5.4.622.622,0,0,0,.18.628l1.665,1.7a.487.487,0,0,1,.1.326l-.386,2.4a.618.618,0,0,0,.211.62.5.5,0,0,0,.307.1.666.666,0,0,0,.32-.094L4.489,8.048a.438.438,0,0,1,.321,0L6.869,9.18A.564.564,0,0,0,7.5,9.167a.616.616,0,0,0,.211-.62l-.386-2.4a.512.512,0,0,1,.1-.326l1.669-1.7Z" transform="translate(-0.01 0.105)" fill="url(#linear-gradient-4)"/>
          <rect id="矩形_35291" data-name="矩形 35291" width="9.25" height="9.25" rx="2" transform="translate(0.125)" opacity="0" fill="url(#linear-gradient-4)"/>
        </g>
        <g id="椭圆_8449" data-name="椭圆 8449" transform="translate(-0.25)" fill="none" stroke="#ea2564" stroke-width="1">
          <circle cx="8.5" cy="8.5" r="8.5" stroke="none"/>
          <circle cx="8.5" cy="8.5" r="8" fill="none"/>
        </g>
      </g>
    </g>
  </g>
</svg>
