<svg xmlns="http://www.w3.org/2000/svg" width="66" height="66" viewBox="0 0 66 66">
  <g id="icon14" transform="translate(-326 -2063)">
    <path id="路径_114173" data-name="路径 114173" d="M33,0A33,33,0,1,1,0,33,33,33,0,0,1,33,0Z" transform="translate(326 2063)" fill="rgba(255,255,255,0.2)"/>
    <path id="联合_121" data-name="联合 121" d="M13832.7-21647.354a77.461,77.461,0,0,1-12.092-12.342,7.508,7.508,0,0,1,.007-9.295,74.873,74.873,0,0,1,12.023-12.252,7.023,7.023,0,0,1,4.705-1.754,6.605,6.605,0,0,1,4.324,1.629,73.386,73.386,0,0,1,12.229,12.5,7.156,7.156,0,0,1-.237,9.258c-2.675,2.9-5.473,5.674-8.23,8.5-1.249,1.281-2.473,2.6-3.811,3.781a6.482,6.482,0,0,1-4.337,1.664A7.29,7.29,0,0,1,13832.7-21647.354Zm4.119-4.414c-.493,0-.987-.006-1.479-.02C13835.832-21651.773,13836.326-21651.768,13836.819-21651.768Zm-9.156-9.729h7.215v7.117h4.717v-7.17h7.141v-4.705h-7.2v-7.127h-4.711v7.146h-7.162Zm5.2,5.637c0-.818.009-1.639.008-2.461C13832.867-21657.5,13832.857-21656.678,13832.858-21655.859Zm12.3-3.707h0Zm-1.312-.006c-.737,0-1.491,0-2.272,0C13842.355-21659.576,13843.109-21659.574,13843.847-21659.572Zm-14.363,0h0Zm-1.878-8.633c-1.715.016-2.487.781-2.5,2.469-.006,1.125-.006,2.258-.006,3.393,0-1.135,0-2.268.006-3.393.011-1.687.783-2.453,2.5-2.469Zm19.031,0c1.971.006,2.69.73,2.7,2.721,0,.584.007,1.168.007,1.754,0-.586,0-1.17-.007-1.754-.011-1.99-.73-2.715-2.7-2.721q-.819,0-1.64,0Q13845.819-21668.211,13846.637-21668.209Zm-8.027-7.8c2.259.018,2.954.7,2.965,2.934,0,1.5.009,2.994.015,4.49a2.475,2.475,0,0,0,.1.377,2.475,2.475,0,0,1-.1-.377c-.006-1.5-.01-2.99-.015-4.49-.011-2.23-.706-2.916-2.965-2.934-.307,0-.61,0-.916,0C13838-21676.012,13838.3-21676.012,13838.609-21676.01Zm-5.737,7.8c-1.23,0-2.4-.006-3.551-.006C13830.472-21668.215,13831.642-21668.209,13832.872-21668.209Zm-4.411,0c.238,0,.479,0,.718,0C13828.938-21668.213,13828.7-21668.213,13828.461-21668.213Zm7.4-7.8c-2.339.012-2.986.67-2.991,3.012,0,.486,0,.973,0,1.463,0-.49,0-.977,0-1.463,0-2.342.652-3,2.991-3.012Z" transform="translate(-13478 23759.998)" fill="#fff" stroke="rgba(0,0,0,0)" stroke-miterlimit="10" stroke-width="1"/>
  </g>
</svg>
