<svg xmlns="http://www.w3.org/2000/svg" xmlns:xlink="http://www.w3.org/1999/xlink" width="70" height="70" viewBox="0 0 70 70">
  <defs>
    <linearGradient id="linear-gradient" x1="0.567" y1="0.385" x2="0.475" y2="0.533" gradientUnits="objectBoundingBox">
      <stop offset="0" stop-color="#b5e455"/>
      <stop offset="1" stop-color="#4aaa00"/>
    </linearGradient>
    <linearGradient id="linear-gradient-2" x1="0.497" y1="0.431" x2="0.241" y2="0.322" xlink:href="#linear-gradient"/>
    <linearGradient id="linear-gradient-3" x1="0.358" y1="0.634" x2="0.965" y2="0.368" xlink:href="#linear-gradient"/>
    <linearGradient id="linear-gradient-4" x1="0.542" y1="0.192" x2="0.459" y2="0.588" xlink:href="#linear-gradient"/>
    <linearGradient id="linear-gradient-5" x1="0.475" y1="0.312" x2="0.314" y2="0.758" xlink:href="#linear-gradient"/>
    <linearGradient id="linear-gradient-6" x1="0.632" y1="0.836" x2="0.433" y2="0.127" xlink:href="#linear-gradient"/>
  </defs>
  <g id="icon24" transform="translate(-160 -775)">
    <rect id="矩形_28988" data-name="矩形 28988" width="70" height="70" transform="translate(160 775)" fill="none"/>
    <g id="组_39428" data-name="组 39428" transform="translate(-272.711 353.667)">
      <g id="组_39424" data-name="组 39424">
        <path id="路径_114029" data-name="路径 114029" d="M459.43,485.076a2.494,2.494,0,0,1-2.46-2.056l-2.187-12.147a2.5,2.5,0,0,1,4.921-.886l1.148,6.376L468,466.516a2.5,2.5,0,0,1,2.84-.894l10.635,3.676,8.478-33.859L447.559,456.16l13.171,4.867,12.594-12.7a2.5,2.5,0,0,1,3.551,3.519l-13.726,13.847a2.5,2.5,0,0,1-2.642.585l-20.163-7.448a2.5,2.5,0,0,1-.231-4.591l52.473-25.649a2.5,2.5,0,0,1,3.523,2.854l-10.446,41.72a2.5,2.5,0,0,1-3.243,1.755l-11.462-3.963-9.505,13.093A2.5,2.5,0,0,1,459.43,485.076Z" fill="url(#linear-gradient)"/>
      </g>
      <g id="组_39425" data-name="组 39425">
        <path id="路径_114030" data-name="路径 114030" d="M459.43,485.076a2.494,2.494,0,0,1-2.46-2.056l-2.187-12.147a2.5,2.5,0,0,1,4.921-.886l1.148,6.376L468,466.516a2.5,2.5,0,0,1,2.84-.894l10.635,3.676,8.478-33.859L447.559,456.16s11.268,4.118,13.171,4.867,5.009,2.049,8.154-1.124l-5.735,5.786a2.5,2.5,0,0,1-2.642.585l-20.163-7.448a2.5,2.5,0,0,1-.231-4.591l52.473-25.649a2.5,2.5,0,0,1,3.523,2.854l-10.446,41.72a2.5,2.5,0,0,1-3.243,1.755l-11.462-3.963-9.505,13.093A2.5,2.5,0,0,1,459.43,485.076Z" fill="url(#linear-gradient-2)"/>
      </g>
      <g id="组_39426" data-name="组 39426">
        <path id="路径_114031" data-name="路径 114031" d="M459.43,485.076a2.494,2.494,0,0,1-2.46-2.056l-2.187-12.147a2.5,2.5,0,0,1,4.921-.886l1.148,6.376L468,466.516a2.5,2.5,0,0,1,2.84-.894l10.635,3.676,8.478-33.859s-39.368,19.414-42.394,20.721-4.439,3.691-.3,5.218l-6.91-2.552a2.5,2.5,0,0,1-.231-4.591l52.473-25.649a2.5,2.5,0,0,1,3.523,2.854l-10.446,41.72a2.5,2.5,0,0,1-3.243,1.755l-11.462-3.963-9.505,13.093A2.5,2.5,0,0,1,459.43,485.076Z" fill="url(#linear-gradient-3)"/>
      </g>
      <g id="组_39427" data-name="组 39427">
        <path id="路径_114032" data-name="路径 114032" d="M459.43,485.076a2.494,2.494,0,0,1-2.46-2.056l-2.187-12.147a2.5,2.5,0,0,1,4.921-.886l1.148,6.376L468,466.516a2.5,2.5,0,0,1,2.84-.894l10.635,3.676s7.854-31.45,8.478-33.859-1.294-4.933-8.143-1.586l10.776-5.267a2.5,2.5,0,0,1,3.523,2.854l-10.446,41.72a2.5,2.5,0,0,1-3.243,1.755l-11.462-3.963-9.505,13.093A2.5,2.5,0,0,1,459.43,485.076Z" fill="url(#linear-gradient-4)"/>
      </g>
      <path id="路径_114033" data-name="路径 114033" d="M481.475,469.3l-10.635-3.676a2.5,2.5,0,0,0-2.84.894l-7.148,9.847-1.148-6.376a2.5,2.5,0,0,0-4.921.886l2.187,12.147a2.5,2.5,0,0,0,4.483,1.025l9.505-13.093,11.462,3.963a2.5,2.5,0,0,0,3.243-1.755l1.584-6.329C486.08,471.492,483.094,469.858,481.475,469.3Z" fill="url(#linear-gradient-5)"/>
      <path id="路径_114034" data-name="路径 114034" d="M460.852,476.363c-.36-1.969-1.148-6.376-1.148-6.376a2.5,2.5,0,0,0-4.921.886l2.187,12.147a2.5,2.5,0,0,0,4.483,1.025l5.358-7.381C464.7,479.574,461.383,479.266,460.852,476.363Z" fill="url(#linear-gradient-6)"/>
    </g>
  </g>
</svg>
