<svg xmlns="http://www.w3.org/2000/svg" width="265" height="230" viewBox="0 0 265 230">
  <g id="Page-1" transform="translate(-14.2 -9.2)">
    <g id="空白页" transform="translate(14.2 9.2)">
      <g id="绑定手机号" transform="translate(0 0)">
        <g id="分组-11" transform="translate(0 0)">
          <g id="背景_线" data-name="背景/线" transform="translate(0 0)">
            <g id="_-" data-name="-">
              <g id="编组" transform="translate(0 0)">
                <path id="Path-2" d="M2.265,208.6a2.283,2.283,0,0,1,0-4.566H200.449a2.283,2.283,0,0,1,0,4.566Zm209.509,0a2.283,2.283,0,0,1,0-4.566h7.078a2.283,2.283,0,0,1,0,4.566Zm25.481,0a2.283,2.283,0,0,1,0-4.566h25.481a2.283,2.283,0,0,1,0,4.566ZM67.382,230a2.283,2.283,0,0,1,0-4.566H87.2a2.283,2.283,0,0,1,0,4.566Zm32.559,0a2.283,2.283,0,0,1,0-4.566h86.352a2.283,2.283,0,0,1,0,4.566ZM226.5,150.67a2.265,2.265,0,1,1,4.53,0v8.561a2.274,2.274,0,0,1-2.265,2.283h-8.494a2.283,2.283,0,0,1,0-4.566H226.5Zm4.53,17.122a2.265,2.265,0,1,1-4.53,0v-8.561a2.274,2.274,0,0,1,2.265-2.283h8.494a2.283,2.283,0,0,1,0,4.566h-6.229ZM11.325,82.184a2.265,2.265,0,1,1,4.53,0v8.561a2.274,2.274,0,0,1-2.265,2.283H5.1a2.283,2.283,0,0,1,0-4.566h6.229Zm209.792-72.2h7.644a2.283,2.283,0,0,1,0,4.566h-7.644v7.7a2.265,2.265,0,1,1-4.53,0v-7.7h-7.644a2.283,2.283,0,0,1,0-4.566h7.644v-7.7a2.265,2.265,0,1,1,4.53,0ZM15.855,99.305a2.265,2.265,0,1,1-4.53,0V90.744a2.274,2.274,0,0,1,2.265-2.283h8.494a2.283,2.283,0,0,1,0,4.566H15.855Z" transform="translate(0 0)" fill="#c3cbd6"/>
                <path id="Path复制" d="M18.266,157.377a1.417,1.417,0,0,1,2,2l-3,3a1.417,1.417,0,0,1-2,0l-3-3a1.417,1.417,0,0,1,2-2l2,2ZM14.26,165.39a1.417,1.417,0,0,1-2-2l3-3a1.417,1.417,0,0,1,2,0l3,3a1.417,1.417,0,0,1-2,2l-2-2ZM43.278,9.085a1.417,1.417,0,1,1,2,2l-3,3a1.417,1.417,0,0,1-2,0l-3-3a1.417,1.417,0,0,1,2-2l2,2ZM39.271,17.1a1.417,1.417,0,0,1-2-2l3-3a1.417,1.417,0,0,1,2,0l3,3a1.417,1.417,0,0,1-2,2l-2-2Z" transform="translate(21.66 15.846)" fill="#c3cbd6"/>
              </g>
            </g>
          </g>
          <g id="编组-2" data-name="编组" transform="translate(69.215 64.272)">
            <g id="Group-4-Copy" transform="translate(64.118 5.165) rotate(10)">
              <path id="Rectangle-6" d="M8.5,0H49.546a8.5,8.5,0,0,1,8.5,8.5V86.483a8.5,8.5,0,0,1-8.5,8.5H8.5a8.5,8.5,0,0,1-8.5-8.5V8.5A8.5,8.5,0,0,1,8.5,0Z" transform="translate(0 0)" fill="#d7dde4" fill-rule="evenodd"/>
              <path id="Rectangle-6-Copy" d="M2.833,0H42.02a2.833,2.833,0,0,1,2.833,2.833V65.765A2.833,2.833,0,0,1,42.02,68.6H2.833A2.833,2.833,0,0,1,0,65.765V2.833A2.833,2.833,0,0,1,2.833,0Z" transform="translate(4.859 8.413)" fill="#fff" fill-rule="evenodd"/>
            </g>
            <g id="Group-4" transform="translate(0 15.04) rotate(-13)">
              <path id="Rectangle-6-2" data-name="Rectangle-6" d="M6.516,0A6.516,6.516,0,0,0,0,6.516v96.325a6.516,6.516,0,0,0,6.516,6.516H60.345a6.516,6.516,0,0,0,6.516-6.516V6.516A6.516,6.516,0,0,0,60.345,0Z" fill="#fff" stroke="#c3cbd6" stroke-width="1.4" fill-rule="evenodd"/>
              <path id="Rectangle-6-Copy-2" data-name="Rectangle-6-Copy" d="M2.833,0H51a2.833,2.833,0,0,1,2.833,2.833V73.66A2.833,2.833,0,0,1,51,76.493H2.833A2.833,2.833,0,0,1,0,73.66V2.833A2.833,2.833,0,0,1,2.833,0Z" transform="translate(6.516 9.349)" fill="#e3e8ee" fill-rule="evenodd"/>
              <path id="Path-12" d="M11.42,0,0,11.42" transform="translate(16.344 23.515)" fill="none" stroke="#fff" stroke-linecap="round" stroke-linejoin="round" stroke-width="1" fill-rule="evenodd"/>
              <path id="Path-12-Copy" d="M5.754,0,0,5.754" transform="translate(13.511 20.681)" fill="none" stroke="#fff" stroke-linecap="round" stroke-linejoin="round" stroke-width="1" fill-rule="evenodd"/>
              <path id="Path-13" d="M0,0H18.415" transform="translate(24.931 95.758)" fill="none" stroke="#c3cbd6" stroke-linecap="round" stroke-linejoin="round" stroke-width="1" fill-rule="evenodd"/>
            </g>
          </g>
        </g>
      </g>
    </g>
  </g>
</svg>
