<svg xmlns="http://www.w3.org/2000/svg" xmlns:xlink="http://www.w3.org/1999/xlink" width="28" height="28" viewBox="0 0 28 28">
  <defs>
    <clipPath id="clip-path">
      <rect id="矩形_25183" data-name="矩形 25183" width="28" height="28" transform="translate(58 1002)" fill="#fff" stroke="#707070" stroke-width="1"/>
    </clipPath>
  </defs>
  <g id="蒙版组_277" data-name="蒙版组 277" transform="translate(-58 -1002)" clip-path="url(#clip-path)">
    <path id="减去_16" data-name="减去 16" d="M-2248.5,13531c-1.084,0-3.739-2.185-6.045-4.971-2.831-3.424-4.455-6.843-4.455-9.382a10.655,10.655,0,0,1,3.074-7.529,10.36,10.36,0,0,1,7.426-3.118,10.36,10.36,0,0,1,7.425,3.118,10.655,10.655,0,0,1,3.075,7.529c0,2.539-1.624,5.959-4.456,9.382C-2244.76,13528.816-2247.415,13531-2248.5,13531Zm0-19.447a5.065,5.065,0,0,0-5.023,5.095,5.064,5.064,0,0,0,5.023,5.091,5.062,5.062,0,0,0,5.021-5.091A5.064,5.064,0,0,0-2248.5,13511.554Z" transform="translate(2320.999 -12503)" fill="#c6c6c6"/>
  </g>
</svg>
