<svg xmlns="http://www.w3.org/2000/svg" xmlns:xlink="http://www.w3.org/1999/xlink" width="120" height="130" viewBox="0 0 120 130">
  <defs>
    <linearGradient id="linear-gradient" x1="0.86" y1="0.092" x2="0.146" y2="1.085" gradientUnits="objectBoundingBox">
      <stop offset="0" stop-color="#fc7e00"/>
      <stop offset="1" stop-color="#f20a0a"/>
    </linearGradient>
    <filter id="多边形_linear_lrgb_15" x="1" y="4" width="117.132" height="126" filterUnits="userSpaceOnUse">
      <feOffset dy="6" input="SourceAlpha"/>
      <feGaussianBlur stdDeviation="5" result="blur"/>
      <feFlood flood-color="#db0000" flood-opacity="0.2"/>
      <feComposite operator="in" in2="blur"/>
      <feComposite in="SourceGraphic"/>
    </filter>
    <filter id="路径_98300" x="29.103" y="33.258" width="39.904" height="54.513" filterUnits="userSpaceOnUse">
      <feOffset dy="3" input="SourceAlpha"/>
      <feGaussianBlur stdDeviation="3" result="blur-2"/>
      <feFlood flood-opacity="0.161"/>
      <feComposite operator="in" in2="blur-2"/>
      <feComposite in="SourceGraphic"/>
    </filter>
    <filter id="路径_98301" x="43.875" y="40.121" width="46.154" height="54.621" filterUnits="userSpaceOnUse">
      <feOffset dy="3" input="SourceAlpha"/>
      <feGaussianBlur stdDeviation="3" result="blur-3"/>
      <feFlood flood-opacity="0.161"/>
      <feComposite operator="in" in2="blur-3"/>
      <feComposite in="SourceGraphic"/>
    </filter>
    <linearGradient id="linear-gradient-2" x1="0.5" x2="0.5" y2="1" gradientUnits="objectBoundingBox">
      <stop offset="0" stop-color="#f76b00"/>
      <stop offset="1" stop-color="#f76b00" stop-opacity="0"/>
    </linearGradient>
  </defs>
  <g id="menu2" transform="translate(-232 -454)">
    <g id="组_29483" data-name="组 29483">
      <rect id="矩形_24810" data-name="矩形 24810" width="120" height="120" transform="translate(232 454)" fill="none"/>
      <g id="组_29447" data-name="组 29447" transform="translate(207 84.525)">
        <g id="获赞" transform="translate(41 386.475)">
          <g transform="matrix(1, 0, 0, 1, -16, -17)" filter="url(#多边形_linear_lrgb_15)">
            <path id="多边形_linear_lrgb_15-2" data-name="多边形 🌈linear;lrgb;15" d="M43.348,4.472a14.905,14.905,0,0,1,14.905,0L86.914,21.019a14.905,14.905,0,0,1,7.453,12.909V67.023a14.905,14.905,0,0,1-7.453,12.909L58.254,96.478a14.905,14.905,0,0,1-14.905,0L14.687,79.931A14.905,14.905,0,0,1,7.235,67.023V33.928a14.905,14.905,0,0,1,7.453-12.909Z" transform="translate(8.77 10.52)" fill="url(#linear-gradient)"/>
          </g>
        </g>
      </g>
      <g transform="matrix(1, 0, 0, 1, 232, 454)" filter="url(#路径_98300)">
        <path id="路径_98300-2" data-name="路径 98300" d="M31.362,12.145a8.325,8.325,0,0,1,1.972.238,9.712,9.712,0,0,1,1.845.64,8.343,8.343,0,0,1,1.535.914,5.538,5.538,0,0,1,1.042,1.024,8.072,8.072,0,0,1,1.31,2.577q.159.545.286,1.1a7.519,7.519,0,0,0-2.03,1.159,7.361,7.361,0,0,0-1.465,1.664,8.094,8.094,0,0,0-1.085,2.413,19.169,19.169,0,0,0-.493,2.522,16.728,16.728,0,0,0-.141,2.778,3.555,3.555,0,0,0-.451.768,4.168,4.168,0,0,0-.183.878,2.732,2.732,0,0,0,.155,1.127,3.618,3.618,0,0,0,.409.951,1.769,1.769,0,0,0,.93.768c.11.4.338,1.169.338,1.169s.211.523.38.932a2.085,2.085,0,0,0,.479.713s.565.511,1.07,1.006a2.061,2.061,0,0,1,.549,1.334,6.635,6.635,0,0,1,.042,1.061,1.952,1.952,0,0,1-.183.914,2.929,2.929,0,0,1-.549.878,4.8,4.8,0,0,1-1.1.914,6.856,6.856,0,0,1-2.127.951c-.8.2-1.381.415-2.324.749a7.11,7.11,0,0,0-1.805,1A3.221,3.221,0,0,0,28.6,47.478c.008-.086-.121.826-.157,1.175-.7-.044-1.407-.1-2.142-.166q-1.4-.128-2.8-.293-1.271-.148-2.536-.347c-.761-.121-1.395-.244-1.93-.366a2.536,2.536,0,0,1-.986-.366,3.217,3.217,0,0,1-.535-1.791,14.5,14.5,0,0,1,.155-3.875,3.08,3.08,0,0,1,1.014-2.065,6.609,6.609,0,0,1,1.958-1.127q1.144-.43,2.324-.749a7.2,7.2,0,0,0,2.127-.951,5.029,5.029,0,0,0,1.1-.914,3,3,0,0,0,.549-.878,2.267,2.267,0,0,0,.183-.914q0-.531-.042-1.061a2.05,2.05,0,0,0-.549-1.334q-.516-.523-1.07-1.006a2.255,2.255,0,0,1-.479-.713q-.19-.456-.38-.932-.179-.582-.338-1.169a1.533,1.533,0,0,1-.479-.256,2.867,2.867,0,0,1-.451-.511,3.059,3.059,0,0,1-.409-.951,2.563,2.563,0,0,1-.155-1.127,3.558,3.558,0,0,1,.183-.878,2.428,2.428,0,0,1,.451-.768,18.32,18.32,0,0,1,.141-2.778,17.058,17.058,0,0,1,.493-2.522,7.863,7.863,0,0,1,1.085-2.413,6.762,6.762,0,0,1,1.465-1.664,7.3,7.3,0,0,1,1.648-1.006,6.85,6.85,0,0,1,1.69-.493,10.811,10.811,0,0,1,1.634-.128v.006Zm0,0" transform="translate(20.65 27.12)" fill="#fff"/>
      </g>
      <g transform="matrix(1, 0, 0, 1, 232, 454)" filter="url(#路径_98301)">
        <path id="路径_98301-2" data-name="路径 98301" d="M371.431,170.144a8.324,8.324,0,0,1,1.972.238,9.712,9.712,0,0,1,1.845.64,8.345,8.345,0,0,1,1.535.914,5.538,5.538,0,0,1,1.042,1.024,8.072,8.072,0,0,1,1.31,2.577,18.842,18.842,0,0,1,.578,2.686,22.911,22.911,0,0,1,.183,2.958,1.393,1.393,0,0,1,.381.475,2.808,2.808,0,0,1,.211.658,3.175,3.175,0,0,1,.028.986,4.029,4.029,0,0,1-.3,1.224,2.546,2.546,0,0,1-.507.713,1.656,1.656,0,0,1-.648.4q-.159.587-.338,1.169c-.127.317-.254.627-.395.932a2.538,2.538,0,0,1-.507.713q-.544.456-1.07.933a2.269,2.269,0,0,0-.549,1.3,4.909,4.909,0,0,0-.07,1.114,3.384,3.384,0,0,0,.3,1.127,3.542,3.542,0,0,0,.789,1.078,4.974,4.974,0,0,0,1.507.914,15.758,15.758,0,0,0,1.874.658,20.289,20.289,0,0,1,1.972.676,7.015,7.015,0,0,1,1.7.951,3.083,3.083,0,0,1,1.057,1.549,8.2,8.2,0,0,1,.254,1.444q.084.859.085,1.737a10.087,10.087,0,0,1-.127,1.645,3.269,3.269,0,0,1-.352,1.169,2.022,2.022,0,0,1-.986.512,19.115,19.115,0,0,1-1.986.493c-.8.158-1.676.3-2.663.423s-1.951.226-2.93.311q-1.421.124-2.846.2c-.9.049-1.691.073-2.353.073s-1.437-.024-2.324-.073-1.789-.116-2.733-.2-1.87-.183-2.8-.293q-1.271-.148-2.536-.346c-.761-.121-1.395-.244-1.93-.366a2.536,2.536,0,0,1-.986-.366,3.217,3.217,0,0,1-.535-1.791,14.5,14.5,0,0,1,.155-3.875,3.08,3.08,0,0,1,1.014-2.065,6.609,6.609,0,0,1,1.958-1.127q1.144-.43,2.324-.749a7.2,7.2,0,0,0,2.127-.951,5.029,5.029,0,0,0,1.1-.914,3,3,0,0,0,.549-.878,2.267,2.267,0,0,0,.183-.914q0-.531-.042-1.061a2.05,2.05,0,0,0-.549-1.334q-.515-.523-1.07-1.006a2.255,2.255,0,0,1-.479-.713q-.19-.456-.38-.932-.179-.582-.338-1.169a1.533,1.533,0,0,1-.479-.256,2.869,2.869,0,0,1-.451-.511,3.059,3.059,0,0,1-.409-.951,2.563,2.563,0,0,1-.155-1.127,3.56,3.56,0,0,1,.183-.878,2.429,2.429,0,0,1,.451-.768,18.32,18.32,0,0,1,.141-2.778,17.057,17.057,0,0,1,.493-2.522,7.862,7.862,0,0,1,1.085-2.413,6.762,6.762,0,0,1,1.465-1.664,7.3,7.3,0,0,1,1.648-1.006,6.849,6.849,0,0,1,1.69-.493,10.811,10.811,0,0,1,1.634-.128v.006Zm0,0" transform="translate(-304.64 -124.02)" fill="#fff"/>
      </g>
      <path id="路径_98302" data-name="路径 98302" d="M31.362,12.145a8.325,8.325,0,0,1,1.972.238,9.712,9.712,0,0,1,1.845.64,8.343,8.343,0,0,1,1.535.914,5.538,5.538,0,0,1,1.042,1.024,8.072,8.072,0,0,1,1.31,2.577q.159.545.286,1.1a7.519,7.519,0,0,0-2.03,1.159,7.361,7.361,0,0,0-1.465,1.664,8.094,8.094,0,0,0-1.085,2.413,19.169,19.169,0,0,0-.493,2.522,16.728,16.728,0,0,0-.141,2.778,3.555,3.555,0,0,0-.451.768,4.168,4.168,0,0,0-.183.878,2.732,2.732,0,0,0,.155,1.127,3.618,3.618,0,0,0,.409.951,1.769,1.769,0,0,0,.93.768c.11.4.338,1.169.338,1.169s.211.523.38.932a2.085,2.085,0,0,0,.479.713s.565.511,1.07,1.006a2.061,2.061,0,0,1,.549,1.334,6.635,6.635,0,0,1,.042,1.061,1.952,1.952,0,0,1-.183.914,2.929,2.929,0,0,1-.549.878,4.8,4.8,0,0,1-1.1.914,6.856,6.856,0,0,1-2.127.951c-.8.2-1.381.415-2.324.749a7.11,7.11,0,0,0-1.805,1A3.221,3.221,0,0,0,28.6,47.478c.008-.086-.121.826-.157,1.175-.7-.044-1.407-.1-2.142-.166q-1.4-.128-2.8-.293-1.271-.148-2.536-.347c-.761-.121-1.395-.244-1.93-.366a2.536,2.536,0,0,1-.986-.366,3.217,3.217,0,0,1-.535-1.791,14.5,14.5,0,0,1,.155-3.875,3.08,3.08,0,0,1,1.014-2.065,6.609,6.609,0,0,1,1.958-1.127q1.144-.43,2.324-.749a7.2,7.2,0,0,0,2.127-.951,5.029,5.029,0,0,0,1.1-.914,3,3,0,0,0,.549-.878,2.267,2.267,0,0,0,.183-.914q0-.531-.042-1.061a2.05,2.05,0,0,0-.549-1.334q-.516-.523-1.07-1.006a2.255,2.255,0,0,1-.479-.713q-.19-.456-.38-.932-.179-.582-.338-1.169a1.533,1.533,0,0,1-.479-.256,2.867,2.867,0,0,1-.451-.511,3.059,3.059,0,0,1-.409-.951,2.563,2.563,0,0,1-.155-1.127,3.558,3.558,0,0,1,.183-.878,2.428,2.428,0,0,1,.451-.768,18.32,18.32,0,0,1,.141-2.778,17.058,17.058,0,0,1,.493-2.522,7.863,7.863,0,0,1,1.085-2.413,6.762,6.762,0,0,1,1.465-1.664,7.3,7.3,0,0,1,1.648-1.006,6.85,6.85,0,0,1,1.69-.493,10.811,10.811,0,0,1,1.634-.128v.006Zm0,0" transform="translate(252.654 481.118)" opacity="0.2" fill="url(#linear-gradient-2)"/>
      <path id="路径_98305" data-name="路径 98305" d="M2378.427,454.668a83.948,83.948,0,0,0,7.38,0,2.635,2.635,0,0,0,.024-3.727l-.024-.025-3.091-3.063a.839.839,0,0,0-1.187-.01l-.01.01-3.092,3.061a2.636,2.636,0,0,0-.027,3.727Z" transform="translate(2681.591 981.671) rotate(180)" fill="#f76b00" opacity="0.2"/>
    </g>
  </g>
</svg>
