<svg xmlns="http://www.w3.org/2000/svg" width="90" height="90" viewBox="0 0 90 90">
  <defs>
    <style>
      .cls-1 {
        fill: #fafafa;
      }

      .cls-2 {
        fill: #d0d1d6;
      }

      .cls-3 {
        fill: none;
        stroke: #7d8391;
        stroke-miterlimit: 10;
        stroke-width: 3px;
      }

      .cls-4 {
        fill: #7d8391;
      }
    </style>
  </defs>
  <g id="队伍管理" transform="translate(-227 -1210)">
    <circle id="椭圆_451" data-name="椭圆 451" class="cls-1" cx="45" cy="45" r="45" transform="translate(227 1210)"/>
    <g id="组_15382" data-name="组 15382" transform="translate(-11 228)">
      <path id="路径_7598" data-name="路径 7598" class="cls-2" d="M-857.438-128.346v-.025c4.339-3.337,4.339-9.55,4.339-11.61,0-5.612-3.376-8.964-9.029-8.964h-.293c-5.651,0-9.026,3.352-9.026,8.964,0,5.555,1.429,9.353,4.367,11.6v.031c-4.606.715-9.8,2.733-9.8,6.2,0,4.618,4.878,6.967,14.5,6.985h.11c9.691,0,14.6-2.351,14.6-6.986C-847.667-125.61-852.841-127.629-857.438-128.346Z" transform="translate(1151.559 1163.945)"/>
      <path id="路径_7597" data-name="路径 7597" class="cls-3" d="M-872.9-146.334c-4.469,0-7.245,2.859-7.245,7.462,0,1.946.353,6.7,3.571,9.436v.14c-3.739.817-7.564,3.084-7.564,5.837" transform="translate(1144.137 1161.834)"/>
      <path id="路径_7595" data-name="路径 7595" class="cls-4" d="M-861.249-136.027v-.028c4.827-3.713,4.827-10.625,4.827-12.917,0-6.244-3.756-9.973-10.046-9.973h-.326c-6.288,0-10.043,3.729-10.043,9.973,0,6.18,1.59,10.406,4.859,12.906v.034c-5.125.795-10.9,3.041-10.9,6.9,0,5.138,5.428,7.751,16.133,7.771h.122c10.782,0,16.249-2.616,16.249-7.773C-850.378-132.982-856.135-135.229-861.249-136.027Zm-7.338,1.637v-2.555a1.784,1.784,0,0,0-.826-1.529c-2.755-1.733-4.1-5.21-4.1-10.632,0-4.349,2.259-6.554,6.7-6.554l.343.008c4.457,0,6.717,2.2,6.717,6.554,0,5.518-1.285,8.9-4.05,10.636a1.8,1.8,0,0,0-.819,1.476l-.052,2.552a1.761,1.761,0,0,0,1.549,1.817c6.228.647,9.491,2.966,9.491,3.65,0,3.759-8.144,4.32-13,4.32s-13-.561-13-4.32c0-.684,3.264-3,9.5-3.652A1.754,1.754,0,0,0-868.587-134.39Z" transform="translate(1149.878 1168.945)"/>
      <path id="路径_7597-2" data-name="路径 7597" class="cls-3" d="M-859.9-128.07c0-2.753-3.825-5.02-7.564-5.837v-.14c3.218-2.736,3.571-7.49,3.571-9.436,0-4.6-2.776-7.462-7.245-7.462" transform="translate(1166.139 1166.445)"/>
    </g>
  </g>
</svg>
