<svg xmlns="http://www.w3.org/2000/svg" xmlns:xlink="http://www.w3.org/1999/xlink" width="120" height="128.525" viewBox="0 0 120 128.525">
  <defs>
    <linearGradient id="linear-gradient" x1="0.5" x2="0.5" y2="1" gradientUnits="objectBoundingBox">
      <stop offset="0" stop-color="#feca1b"/>
      <stop offset="1" stop-color="#fea137"/>
    </linearGradient>
    <linearGradient id="linear-gradient-3" x1="0.86" y1="0.092" x2="0.146" y2="1.085" gradientUnits="objectBoundingBox">
      <stop offset="0" stop-color="#45dcb7"/>
      <stop offset="1" stop-color="#3cbe9d"/>
    </linearGradient>
    <filter id="多边形_linear_lrgb_15" x="3" y="3" width="116.701" height="125.525" filterUnits="userSpaceOnUse">
      <feOffset dy="6" input="SourceAlpha"/>
      <feGaussianBlur stdDeviation="5" result="blur"/>
      <feFlood flood-color="#018e6a" flood-opacity="0.2"/>
      <feComposite operator="in" in2="blur"/>
      <feComposite in="SourceGraphic"/>
    </filter>
    <filter id="路径_7333" x="30.5" y="31.5" width="58.307" height="53.43" filterUnits="userSpaceOnUse">
      <feOffset dy="3" input="SourceAlpha"/>
      <feGaussianBlur stdDeviation="3" result="blur-2"/>
      <feFlood flood-opacity="0.161"/>
      <feComposite operator="in" in2="blur-2"/>
      <feComposite in="SourceGraphic"/>
    </filter>
    <filter id="路径_7334" x="25" y="31.481" width="43.573" height="41.889" filterUnits="userSpaceOnUse">
      <feOffset dy="6" input="SourceAlpha"/>
      <feGaussianBlur stdDeviation="5" result="blur-3"/>
      <feFlood flood-color="#018e6a" flood-opacity="0.2"/>
      <feComposite operator="in" in2="blur-3"/>
      <feComposite in="SourceGraphic"/>
    </filter>
  </defs>
  <g id="menu3" transform="translate(-399 -454)">
    <path id="路径_98304" data-name="路径 98304" d="M2378.833,458.318a127.3,127.3,0,0,0,11.193,0,4,4,0,0,0,.037-5.652l-.037-.038-4.688-4.646a1.273,1.273,0,0,0-1.8-.016l-.016.016-4.688,4.642a4,4,0,0,0-.042,5.652Z" transform="translate(-1938.641 46.878)" fill="url(#linear-gradient)"/>
    <path id="路径_98303" data-name="路径 98303" d="M2378.833,458.318a127.3,127.3,0,0,0,11.193,0,4,4,0,0,0,.037-5.652l-.037-.038-4.688-4.646a1.273,1.273,0,0,0-1.8-.016l-.016.016-4.688,4.642a4,4,0,0,0-.042,5.652Z" transform="translate(-1938.641 46.878)" fill="url(#linear-gradient)"/>
    <g id="组_29006" data-name="组 29006" transform="translate(-5 -99)">
      <rect id="矩形_24811" data-name="矩形 24811" width="120" height="120" transform="translate(404 553)" fill="none"/>
      <g id="组_29465" data-name="组 29465" transform="translate(2 -2)">
        <g id="评论" transform="translate(412 565)">
          <g transform="matrix(1, 0, 0, 1, -10, -10)" filter="url(#多边形_linear_lrgb_15)">
            <path id="多边形_linear_lrgb_15-2" data-name="多边形 🌈linear;lrgb;15" d="M43.169,4.462A14.832,14.832,0,0,1,58,4.462L86.52,20.928a14.832,14.832,0,0,1,7.416,12.845V66.7A14.832,14.832,0,0,1,86.52,79.548L58,96.013a14.832,14.832,0,0,1-14.832,0L14.65,79.548A14.832,14.832,0,0,1,7.235,66.7V33.772A14.832,14.832,0,0,1,14.65,20.928Z" transform="translate(10.77 9.52)" fill="url(#linear-gradient-3)"/>
          </g>
        </g>
      </g>
    </g>
    <g id="组_29475" data-name="组 29475" transform="translate(80.903 -6.256)">
      <g transform="matrix(1, 0, 0, 1, 318.1, 460.26)" filter="url(#路径_7333)">
        <path id="路径_7333-2" data-name="路径 7333" d="M2381.092,473.635a368.3,368.3,0,0,0,32.412,0,11.574,11.574,0,0,0,.108-16.367l-.108-.109-13.577-13.454a3.686,3.686,0,0,0-5.213-.046l-.046.046-13.577,13.441a11.575,11.575,0,0,0-.121,16.367Z" transform="translate(-2337.64 -404.6)" fill="#fff" stroke="rgba(0,0,0,0)" stroke-miterlimit="10" stroke-width="1"/>
      </g>
      <g transform="matrix(1, 0, 0, 1, 318.1, 460.26)" filter="url(#路径_7334)">
        <path id="路径_7334-2" data-name="路径 7334" d="M2378.833,458.318a127.3,127.3,0,0,0,11.193,0,4,4,0,0,0,.037-5.652l-.037-.038-4.688-4.646a1.273,1.273,0,0,0-1.8-.016l-.016.016-4.688,4.642a4,4,0,0,0-.042,5.652Z" transform="translate(-2337.64 -407.12)" fill="url(#linear-gradient-3)"/>
      </g>
      <path id="路径_7335" data-name="路径 7335" d="M2410.418,503h-3.969s1.488,10.915-6.45,14.388h16.868C2408.93,513.915,2410.418,503,2410.418,503Z" transform="translate(-2030.81 25.22)" fill="#fff"/>
      <path id="路径_7336" data-name="路径 7336" d="M2401.634,482.754,2386.5,494.7a219.938,219.938,0,0,1,30.384.1Z" transform="translate(-2024.01 35.422)" fill="rgba(68,218,181,0.12)" stroke="rgba(0,0,0,0)" stroke-miterlimit="10" stroke-width="1"/>
      <path id="路径_98295" data-name="路径 98295" d="M2410.418,503h-3.969s1.488,10.915-6.45,14.388h16.868C2408.93,513.915,2410.418,503,2410.418,503Z" transform="translate(-2030.81 25.22)" fill="rgba(68,218,181,0.12)" stroke="rgba(0,0,0,0)" stroke-miterlimit="10" stroke-width="1"/>
    </g>
  </g>
</svg>
