<svg xmlns="http://www.w3.org/2000/svg" xmlns:xlink="http://www.w3.org/1999/xlink" width="120" height="129" viewBox="0 0 120 129">
  <defs>
    <linearGradient id="linear-gradient" x1="0.069" y1="-0.029" x2="0.85" y2="0.908" gradientUnits="objectBoundingBox">
      <stop offset="0" stop-color="#05bfff"/>
      <stop offset="0.057" stop-color="#05bbff"/>
      <stop offset="0.121" stop-color="#05b7ff"/>
      <stop offset="0.19" stop-color="#05b2ff"/>
      <stop offset="0.264" stop-color="#05adff"/>
      <stop offset="0.341" stop-color="#05a8ff"/>
      <stop offset="0.42" stop-color="#05a2ff"/>
      <stop offset="0.5" stop-color="#059cff"/>
      <stop offset="0.58" stop-color="#0595ff"/>
      <stop offset="0.659" stop-color="#058eff"/>
      <stop offset="0.736" stop-color="#0588ff"/>
      <stop offset="0.81" stop-color="#0581ff"/>
      <stop offset="0.879" stop-color="#057aff"/>
      <stop offset="0.943" stop-color="#0573ff"/>
      <stop offset="1" stop-color="#056dff"/>
    </linearGradient>
    <filter id="å¤šè¾¹å½¢_linear_lrgb_15" x="1" y="3" width="118" height="126" filterUnits="userSpaceOnUse">
      <feOffset dy="6" input="SourceAlpha"/>
      <feGaussianBlur stdDeviation="5" result="blur"/>
      <feFlood flood-color="#0583ff" flood-opacity="0.2"/>
      <feComposite operator="in" in2="blur"/>
      <feComposite in="SourceGraphic"/>
    </filter>
    <filter id="å‡åŽ»_18" x="35.256" y="32.5" width="52.437" height="37.035" filterUnits="userSpaceOnUse">
      <feOffset dy="3" input="SourceAlpha"/>
      <feGaussianBlur stdDeviation="3" result="blur-2"/>
      <feFlood flood-opacity="0.161"/>
      <feComposite operator="in" in2="blur-2"/>
      <feComposite in="SourceGraphic"/>
    </filter>
    <filter id="å‡åŽ»_17" x="32.5" y="32.5" width="55.409" height="61.072" filterUnits="userSpaceOnUse">
      <feOffset dy="3" input="SourceAlpha"/>
      <feGaussianBlur stdDeviation="3" result="blur-3"/>
      <feFlood flood-opacity="0.161"/>
      <feComposite operator="in" in2="blur-3"/>
      <feComposite in="SourceGraphic"/>
    </filter>
  </defs>
  <g id="menu1" transform="translate(-64 -454)">
    <g id="ç»„_29004" data-name="ç»„ 29004" transform="translate(22 -99)">
      <rect id="çŸ©å½¢_24809" data-name="çŸ©å½¢ 24809" width="120" height="120" transform="translate(42 553)" fill="none"/>
      <g id="ç»„_29463" data-name="ç»„ 29463" transform="translate(3 -2)">
        <g transform="matrix(1, 0, 0, 1, 39, 555)" filter="url(#å¤šè¾¹å½¢_linear_lrgb_15)">
          <path id="å¤šè¾¹å½¢_linear_lrgb_15-2" data-name="å¤šè¾¹å½¢ ðŸŒˆlinear;lrgb;15" d="M43.708,4.472a15.184,15.184,0,0,1,15.054,0L87.708,21.019a14.879,14.879,0,0,1,7.527,12.908V67.022a14.879,14.879,0,0,1-7.527,12.908L58.762,96.478a15.184,15.184,0,0,1-15.054,0L14.762,79.931A14.879,14.879,0,0,1,7.235,67.022V33.928a14.879,14.879,0,0,1,7.527-12.908Z" transform="translate(8.77 9.52)" fill="url(#linear-gradient)"/>
        </g>
      </g>
    </g>
    <g id="ç»„_29473" data-name="ç»„ 29473" transform="translate(617.446 -624.224)">
      <g transform="matrix(1, 0, 0, 1, -553.45, 1078.22)" filter="url(#å‡åŽ»_18)">
        <path id="å‡åŽ»_18-2" data-name="å‡åŽ» 18" d="M9.029,18.031H0V6.01A6.07,6.07,0,0,1,1.708,1.766,5.681,5.681,0,0,1,5.815,0H29.8a3.658,3.658,0,0,1,3.634,3.757V18.03H23.592l-.009-.009a5.305,5.305,0,0,0-7.273-.16,5.305,5.305,0,0,0-7.273.16l0,0,0,0Z" transform="translate(44.76 39)" fill="none" stroke="rgba(0,0,0,0)" stroke-miterlimit="10" stroke-width="1"/>
      </g>
      <g transform="matrix(1, 0, 0, 1, -553.45, 1078.22)" filter="url(#å‡åŽ»_17)">
        <path id="å‡åŽ»_17-2" data-name="å‡åŽ» 17" d="M30.653,42.072H1.757A3.716,3.716,0,0,1-2,38.317V3.757A3.717,3.717,0,0,1,1.757,0H22.839L34.41,11.57V38.317A3.716,3.716,0,0,1,30.653,42.072ZM12.516,16.5a5.276,5.276,0,0,0-3.722,1.525,5.2,5.2,0,0,0-.048,7.345l.048.049,6.093,6.037a1.654,1.654,0,0,0,2.339.021l.022-.021,6.092-6.032a5.194,5.194,0,0,0,.054-7.345l-.054-.054a5.3,5.3,0,0,0-7.273-.16A5.293,5.293,0,0,0,12.516,16.5Z" transform="translate(44 39)" fill="#fff" stroke="rgba(0,0,0,0)" stroke-miterlimit="10" stroke-width="1"/>
      </g>
      <path id="è·¯å¾„_7444" data-name="è·¯å¾„ 7444" d="M127,12.109v8.715a2.853,2.853,0,0,0,2.855,2.855h8.715Z" transform="translate(-613.818 1105.115)" fill="#0589ff" opacity="0.2"/>
    </g>
  </g>
</svg>
