<svg xmlns="http://www.w3.org/2000/svg" xmlns:xlink="http://www.w3.org/1999/xlink" width="570" height="360" viewBox="0 0 570 360">
  <defs>
    <linearGradient id="linear-gradient" x1="0.082" y1="0.696" x2="0.982" y2="0.331" gradientUnits="objectBoundingBox">
      <stop offset="0" stop-color="#fbfbfb"/>
      <stop offset="1" stop-color="#f3f3f3"/>
    </linearGradient>
    <linearGradient id="linear-gradient-3" x1="0.5" y1="1.394" x2="0.5" gradientUnits="objectBoundingBox">
      <stop offset="0" stop-color="#e8e8e8"/>
      <stop offset="1" stop-color="#f5f5f5"/>
    </linearGradient>
    <linearGradient id="linear-gradient-4" x1="0.462" y1="1" x2="0.462" xlink:href="#linear-gradient-3"/>
    <linearGradient id="linear-gradient-5" y1="0.815" x2="0.933" y2="0.315" gradientUnits="objectBoundingBox">
      <stop offset="0" stop-color="#e8e8e8"/>
      <stop offset="1" stop-color="#f5f5f5"/>
    </linearGradient>
    <linearGradient id="linear-gradient-6" x1="1" y1="0.8" x2="0" y2="0.288" xlink:href="#linear-gradient-3"/>
    <linearGradient id="linear-gradient-7" x1="0.5" y1="0.217" x2="0.5" y2="1" gradientUnits="objectBoundingBox">
      <stop offset="0" stop-color="#e3e3e3"/>
      <stop offset="1" stop-color="#ededed"/>
    </linearGradient>
  </defs>
  <g id="null" transform="translate(-90 -612)">
    <rect id="Rectangle_11" data-name="Rectangle 11" width="570" height="360" transform="translate(90 612)" fill="#f9f8f8" opacity="0"/>
    <g id="Oval" transform="translate(219.425 844.182)">
      <ellipse id="Oval-2" data-name="Oval" cx="154.094" cy="43.409" rx="154.094" ry="43.409" fill="url(#linear-gradient)"/>
      <ellipse id="Oval-3" data-name="Oval" cx="154.094" cy="43.409" rx="154.094" ry="43.409" opacity="0.52" fill="url(#linear-gradient)"/>
    </g>
    <g id="Group_7" data-name="Group 7" transform="translate(224.445 664)">
      <g id="Group_51" data-name="Group 51" transform="translate(105.38)">
        <path id="Fill_1" data-name="Fill 1" d="M36.965,7.387S20.05,40.266,0,18.039l5.233-4.593S19.617,26.859,32.569,0Z" transform="translate(0 67.031)" fill="#ffdbd0"/>
        <path id="Fill_3" data-name="Fill 3" d="M0,6.867S16.915,39.745,36.964,17.519l-5.233-4.593S18.163,26.86,5.212,0Z" transform="translate(57.682 67.29)" fill="#ffdbd0"/>
        <path id="Fill_5" data-name="Fill 5" d="M2.035,0S6.277,7.355,12.554,11.007L5.923,19.874,0,14.35Z" transform="translate(61.819 68.131)" fill="#ffa987"/>
        <path id="Fill_7" data-name="Fill 7" d="M9.427,0S5.251,6.9,0,9.856L4.58,20.917,10.5,15.393Z" transform="translate(23.23 67.29)" fill="#ffa987"/>
        <path id="Fill_23" data-name="Fill 23" d="M18.591.011a63.045,63.045,0,0,1,8.9.377c6.564.878,7.6,3.218,7.562,6.83l.036,2.558.032.242-.059,12.145L37.8,35.312,0,34.893,2.417,20.635,2.163,10.124,2.17,7.561l-.03-.4c0-3.448,1.036-5.611,7.58-6.576A69.249,69.249,0,0,1,18.591.011Z" transform="translate(29.269 64.059)" fill="#ff4727"/>
        <path id="Fill_27" data-name="Fill 27" d="M.443,9.722,0,0,9.766,2.9l.444,7.031-1.3,1.766H1.867Z" transform="translate(42.159 56.437)" fill="#ffdbd0"/>
        <path id="Fill_36" data-name="Fill 36" d="M0,21.7c0,11.987,5.019,21.72,24.493,21.705,19.022-.017,24.492-9.718,24.492-21.705S38.019,0,24.493,0,0,9.716,0,21.7" transform="translate(23.231 11.414)" fill="#242022"/>
        <path id="Fill_37" data-name="Fill 37" d="M0,5.677c0,3.134,1.794,5.675,4.007,5.675S8.017,8.811,8.017,5.677,6.222,0,4.007,0,0,2.54,0,5.677" transform="translate(65.818 32.033)" fill="#ffdbd0"/>
        <path id="Fill_38" data-name="Fill 38" d="M0,5.677c0,3.134,1.692,5.675,3.777,5.675S7.556,8.811,7.556,5.677,5.864,0,3.777,0,0,2.54,0,5.677" transform="translate(21.79 32.033)" fill="#ffdbd0"/>
        <path id="Fill_39" data-name="Fill 39" d="M.294,24.554c1.423,12.6,5.925,22.4,25.7,22.382,19.321-.017,22.8-10.423,24.877-22.947C53.338,9.156,47.082-.023,25.6,0,3.889.025-1.4,9.513.294,24.554" transform="translate(22.268 4.895)" fill="#242022"/>
        <path id="Fill_40" data-name="Fill 40" d="M0,18.232C0,32.67,4.311,44.4,21.037,44.374c16.339-.02,21.036-11.7,21.036-26.142S35.573.215,20.524.008,0,3.794,0,18.232" transform="translate(26.686 19.037)" fill="#ffdbd0"/>
        <path id="Fill_47" data-name="Fill 47" d="M-.794,2.461A19.976,19.976,0,0,1-3.61,5.512a24.111,24.111,0,0,0,0-4.481,33.193,33.193,0,0,1-3.4,2.876c-.062.062.041-3.952.067-3.907a22.108,22.108,0,0,1-7.681,2.638c-2.912.561-15.912.639-20.369,1.51C-43.812,6.292-52.21,13.033-51.666,22.11l8.468,1.38c.383-.389.415-3.546,13.838-3.941,4.626.587,5.372,2.167,14.045,3.35,6.144.838,14.247-5.663,14.99-9.437.678-3.433.187-7.566-.468-11" transform="translate(73.52 0)" fill="#242022"/>
      </g>
      <g id="Group_3" data-name="Group 3" transform="translate(42.019 84.153)">
        <path id="Path_3" data-name="Path 3" d="M13.436,0,0,57.7H194.487L180.758,0Z" transform="translate(14.406 55.301)" fill="url(#linear-gradient-3)"/>
        <rect id="Rectangle_3" data-name="Rectangle 3" width="160.872" height="54.098" transform="translate(30.013 1.202)" fill="url(#linear-gradient-4)"/>
        <path id="Path_2" data-name="Path 2" d="M31.214,0,0,71.207V126.23L31.214,54.975Z" transform="translate(0)" fill="url(#linear-gradient-5)"/>
        <path id="Path_2_Copy" data-name="Path 2 Copy" d="M-33.615,0,0,69.972v52.651L-33.615,54.254Z" transform="translate(223.3 1.202)" fill="url(#linear-gradient-6)"/>
        <path id="Combined_Shape" data-name="Combined Shape" d="M224,64.919H0V0H87.116c0,.148,0,.3,0,.477a24.3,24.3,0,0,0,2.069,9.848,25.184,25.184,0,0,0,5.642,8.042,26.322,26.322,0,0,0,8.368,5.422,27.079,27.079,0,0,0,10.247,1.988,27.079,27.079,0,0,0,10.247-1.988,26.322,26.322,0,0,0,8.368-5.422,25.184,25.184,0,0,0,5.642-8.042A24.3,24.3,0,0,0,139.761.477c0-.157,0-.318,0-.477H224V64.918Z" transform="translate(0 70.929)" fill="url(#linear-gradient-7)"/>
      </g>
      <path id="Fill_49" data-name="Fill 49" d="M.122,6.6a5.7,5.7,0,0,0,6.817,4.14A5.51,5.51,0,0,0,11.4,4.271,5.7,5.7,0,0,0,4.587.128,5.512,5.512,0,0,0,.122,6.6" transform="translate(189.883 79.344)" fill="#ffdbd0"/>
      <path id="Fill_49_Copy" data-name="Fill 49 Copy" d="M.122,6.6a5.7,5.7,0,0,0,6.817,4.14A5.51,5.51,0,0,0,11.4,4.271,5.7,5.7,0,0,0,4.587.128,5.512,5.512,0,0,0,.122,6.6" transform="translate(104.645 79.344)" fill="#ffdbd0"/>
      <g id="Group_4" data-name="Group 4" transform="translate(0 56.503)">
        <path id="Path_4" data-name="Path 4" d="M271.321,1.754c-37.139-15.48-63.428,76.42-80.033,82.978S147.507,88.039,143.62,67.47c-1.971-10.43,8.052-16.557,19.658-13.493s18.838,26.933-12.1,39.244S86.716,48.935,53.334,48.935,0,75.291,0,75.291" transform="translate(0 0)" fill="none" stroke="#cfcfcf" stroke-miterlimit="10" stroke-width="1.202" stroke-dasharray="6.011"/>
        <g id="树叶-2" transform="matrix(0.391, 0.921, -0.921, 0.391, 43.256, 27.307)">
          <path id="Shape" d="M.584,4.3c4.669,1.8,7.2,6.671,7.9,8.255-.34-.048-.705-.1-1.094-.168l-.122.7c.1.024.17.024.267.048a33.886,33.886,0,0,1-4.5.576l.073.7c2.237-.192,5.325-.528,6.176-1.152l.219-.144-.1-.24c-.1-.264-2.5-6.551-8.049-9L5.107,0,4.085.144A19.037,19.037,0,0,1,.073.384L0,1.056a16.593,16.593,0,0,0,2.432-.024,13.528,13.528,0,0,1-1.556.7l.243.648c.413-.168.827-.336,1.192-.5L.146,4.1.584,4.3Z" transform="translate(33.679 2.462)" fill="#cdcdcd"/>
          <path id="Shape-2" data-name="Shape" d="M12.669,5.246q.146-1.224.365-2.376A6.562,6.562,0,0,0,8.681.039C6.76-.2,4.572.687,2.529,2.486L2.5,2.51a2.062,2.062,0,0,1-1.046.312A9.7,9.7,0,0,1,0,2.846c3.137,1.1,8.462,2.832,11.6,2.928h.778a.787.787,0,0,0,.17-.024l.1-.552Z" transform="translate(8.049 1.031)" fill="#cdcdcd"/>
          <path id="Shape-3" data-name="Shape" d="M26.989,0a6.074,6.074,0,0,0-.679.038,6.864,6.864,0,0,0-4.158,2.28c.217-.342.324-.588.286-.656a.036.036,0,0,0-.035-.02c-.129,0-.583.428-1.151,1.348A6.987,6.987,0,0,0,16.8.35,6.416,6.416,0,0,0,16.122.3a9.388,9.388,0,0,0-6.006,2.664,1.343,1.343,0,0,1-.681.192l.073.672a2,2,0,0,0,1.046-.312,8.713,8.713,0,0,1,5.589-2.5,5.269,5.269,0,0,1,.588.032,6.566,6.566,0,0,1,4.352,2.831c-.137.72-.26,1.52-.365,2.376l-.122.528a.557.557,0,0,0-.13.016l-.007,0a.157.157,0,0,1-.033.006,3.593,3.593,0,0,1-.371.018c-.132,0-.266-.006-.408-.018l-.024.7h.267C15.663,10.684,4.379,14.184,1.022,15.18c.864-1.86,3.354-6.378,7.83-8.111l.486-.193-.729-.743-.511.48C2.51,9.127.119,15.573.1,15.637l-.1.24.219.167c1.149.845,6.324,1.184,8.024,1.3A21.448,21.448,0,0,0,5.77,24.493a23.222,23.222,0,0,0-.347,3.755v.419l.413-.072a22.659,22.659,0,0,0,9.727-4.464,17.519,17.519,0,0,0,2.681,6.584,36.877,36.877,0,0,0,2.936,4.047l.024.552.584-.648.146-.12.094-.115a38.445,38.445,0,0,0,2.927-4.065A17.638,17.638,0,0,0,27.624,23.8a22.732,22.732,0,0,0,9.7,4.464l.413.072v-.42A23.787,23.787,0,0,0,34.919,17c.324-.017.753-.046,1.168-.075H36.1l.4-.027.263-.017-.073-.7c-.814.069-1.647.119-2.408.144l-.607.024.316.5A22.913,22.913,0,0,1,36.986,27.18C32.5,23.381,23.661,10.6,21.934,8.077c2.95,1.466,13.044,6.333,18.991,7.463l.122-.7c-5.792-1.108-16-6.011-18.992-7.487,3.1-.317,8.871-1.068,12.669-2.52l-.244-.648C30.5,5.7,23.988,6.454,21.374,6.709a26.091,26.091,0,0,1,.414-2.784l.146-.1A6.437,6.437,0,0,1,26.408.71a5.18,5.18,0,0,1,.629-.039A8.76,8.76,0,0,1,32.56,3.157a1.955,1.955,0,0,0,1.07.36l.073-.671a1.161,1.161,0,0,1-.657-.168A9.411,9.411,0,0,0,26.989,0ZM6.152,27.275A22.916,22.916,0,0,1,9.119,17.2l.316-.5-.608-.023A44.868,44.868,0,0,1,1.483,15.8c2.311-.683,14.077-4.269,18.722-7.63C18.1,13.349,8.13,24.994,6.152,27.275Zm15.66,6.24c-.031-.644-.753-15.868-.535-25.03a.213.213,0,0,0,.024-.12c2.977,4.346,10.38,14.887,14.785,18.91a23.451,23.451,0,0,1-8.472-4.389l-.064-.051-.535-.48-.049.72C26.887,24.414,26.223,28.111,21.812,33.515ZM6.687,27.732C9.3,24.709,18.018,14.431,20.57,9.09c-.164,8.068.354,20.216.524,24.208l.013.289c-1.4-1.754-4.688-6.253-4.936-10.151l-.049-.72-.535.48a21.606,21.606,0,0,1-2.635,1.872A20.865,20.865,0,0,1,6.687,27.732Z" transform="translate(0 0)" fill="#fff"/>
          <path id="Shape-4" data-name="Shape" d="M5.647,0V0h0L7.587,1.99l.729.744-.486.192C3.139,4.742.651,9.594,0,11.038,3.358,10.032,14.638,6.5,18.845,3.358h-.267C14.813,3.236,8.28.969,5.647,0ZM20.864,3.91l0,0c3.146,4.567,10.911,15.569,15.051,19.1a22.932,22.932,0,0,0-2.992-10.319l-.316-.5.608-.024c.419-.014.865-.044,1.337-.075l.09-.006h.008l.067,0,.054,0c.278-.019.565-.038.851-.054,1.651-.171,3.339-.361,4.5-.6a.884.884,0,0,0-.109-.02l-.022,0a.944.944,0,0,1-.137-.024c-5.952-1.126-16.039-6-18.988-7.462Zm-.632.288v0h0v.117c-.237,8.867.433,23.4.51,25.03a33.665,33.665,0,0,0,3.015-4.356,14.5,14.5,0,0,0,2.14-6.083l.049-.72.535.48a23.821,23.821,0,0,0,8.536,4.44C30.465,18.952,22.551,7.585,20.234,4.2Zm-.732.7C17.338,9.445,10.77,17.545,5.641,23.54a23.658,23.658,0,0,0,8.837-4.486l.063-.05.536-.48.049.72a14.043,14.043,0,0,0,1.972,5.8A32.89,32.89,0,0,0,20.037,29.4l-.012-.289c-.17-3.994-.688-16.147-.522-24.209Z" transform="translate(1.07 4.167)" fill="#cdcdcd"/>
          <path id="Shape-5" data-name="Shape" d="M25.513,0a5.285,5.285,0,0,0-.588.033A6.564,6.564,0,0,0,20.4,3.1a.129.129,0,0,1,.024.036.129.129,0,0,0,.024.036l-.146.1c-.185.96-.324,1.9-.414,2.784C22.509,5.8,29.024,5.04,33,3.536c.631-.26,1.149-.5,1.581-.72-.5.044-1.008.068-1.466.068a9.648,9.648,0,0,1-.966-.043A1.8,1.8,0,0,1,31.1,2.5l-.024-.023A8.783,8.783,0,0,0,25.513,0ZM18.724,7.5l0,0C14.093,10.865,2.314,14.444,0,15.127a41.864,41.864,0,0,0,7.368.84l.608.024-.316.5A22.8,22.8,0,0,0,4.669,26.574c1.7-1.941,4.609-5.408,7.237-8.792,3.648-4.7,5.941-8.157,6.816-10.283Z" transform="translate(1.483 0.677)" fill="#cdcdcd"/>
          <path id="Shape-6" data-name="Shape" d="M3.648,1.08a9.7,9.7,0,0,0,1.459-.024L5.034.384A22.933,22.933,0,0,1,1.021.144L0,0,3.745,3.864l.511-.48L2.31,1.392c2.869,1.056,9.24,3.24,12.937,3.36l.024-.7C12.134,3.912,6.809,2.208,3.648,1.08Z" transform="translate(4.401 2.798)" fill="#cdcdcd"/>
          <path id="Shape-7" data-name="Shape" d="M12.207,2.424l-.486-.192L13.861,0c-.365.168-.754.336-1.192.5C8.778,1.968,2.845,2.736,0,3.024c3.21,1.584,13.228,6.383,18.991,7.487.413.072.778.144,1.119.168C19.38,9.071,16.876,4.224,12.207,2.424Z" transform="translate(22.055 4.334)" fill="#cdcdcd"/>
        </g>
      </g>
    </g>
  </g>
</svg>
