<svg xmlns="http://www.w3.org/2000/svg" width="28" height="28" viewBox="0 0 28 28">
  <g id="刷新" transform="translate(-64.233 -1427.233)">
    <path id="路径_7559" data-name="路径 7559" d="M25.733,47.247a8.091,8.091,0,0,1-7.792-6l3.491.684a.816.816,0,0,0,.931-.691l.119-.815a.829.829,0,0,0-.693-.939L15.738,38.3a.835.835,0,0,0-.615.158,1.136,1.136,0,0,0-.315.533L12.7,44.9A.828.828,0,0,0,13.063,46l.732.37a.817.817,0,0,0,1.1-.367l1.047-2.686a10.6,10.6,0,0,0,18.191,2.34L31.605,44.7A8.039,8.039,0,0,1,25.733,47.247Zm12.6-15.058-.726-.37a.806.806,0,0,0-1.09.367l-1.038,2.685a10.461,10.461,0,0,0-18.031-2.34l2.506.965a7.936,7.936,0,0,1,5.82-2.551,8.032,8.032,0,0,1,7.723,6l-3.46-.684a.81.81,0,0,0-.922.691L29,37.767a.828.828,0,0,0,.687.939l6,1.186a.789.789,0,0,0,.548-.124s.193-.1.374-.567l2.09-5.9A.831.831,0,0,0,38.33,32.189Z" transform="translate(52.812 1402.185)" fill="#db0000"/>
    <rect id="矩形_2956" data-name="矩形 2956" width="28" height="28" transform="translate(64.233 1427.233)" fill="none"/>
  </g>
</svg>
