<svg xmlns="http://www.w3.org/2000/svg" width="45.108" height="37.915" viewBox="0 0 45.108 37.915">
  <g id="刷新" transform="translate(-48.143 -98.4)">
    <path id="路径_111922" data-name="路径 111922" d="M100.354,116.612a15.511,15.511,0,0,1,1.312-5.569,16.135,16.135,0,0,1,3.638-5.158,16.954,16.954,0,0,1,5.394-3.479,17.765,17.765,0,0,1,13.206,0,16.954,16.954,0,0,1,5.394,3.479c.29.277.565.558.831.853l2.354-.782A19.6,19.6,0,0,0,117.3,98.9c-10.657,0-19.3,8.262-19.3,18.458v.036Zm33.894,1.6a15.583,15.583,0,0,1-1.308,5.462,16.135,16.135,0,0,1-3.638,5.158,16.955,16.955,0,0,1-5.394,3.479,17.765,17.765,0,0,1-13.206,0,16.955,16.955,0,0,1-5.394-3.479c-.285-.272-.56-.554-.822-.844l-2.358.773a19.594,19.594,0,0,0,15.177,7.056c10.633,0,19.258-8.222,19.3-18.382l-2.358.777Z" transform="translate(-46.621)" fill="#333" stroke="#333" stroke-width="1"/>
    <path id="路径_111923" data-name="路径 111923" d="M84.935,468.466,88.57,464l3.63,4.466ZM49.2,464l3.663,4.466L56.535,464Z" transform="translate(0 -348.795)" fill="#333" stroke="#333" stroke-width="1"/>
  </g>
</svg>
