<svg xmlns="http://www.w3.org/2000/svg" width="17.033" height="15.969" viewBox="0 0 17.033 15.969">
  <path id="star" d="M2806.946,465.973l-3.826,1.635a1.023,1.023,0,0,1-1.336-.514.969.969,0,0,1-.08-.494l.4-4.069a.981.981,0,0,0-.25-.756l-2.769-3.059a.98.98,0,0,1,.063-1.384l.022-.019a1.008,1.008,0,0,1,.455-.227l4.075-.88a1.013,1.013,0,0,0,.657-.468l2.113-3.524a1.026,1.026,0,0,1,1.75,0l2.114,3.525a1.007,1.007,0,0,0,.657.467l4.074.88a.993.993,0,0,1,.772,1.185.979.979,0,0,1-.232.445l-2.77,3.06a.981.981,0,0,0-.25.756l.4,4.069a1,1,0,0,1-.905,1.085h0a1.029,1.029,0,0,1-.5-.077l-3.826-1.635a1.032,1.032,0,0,0-.811,0Z" transform="translate(-2798.835 -451.723)" fill="#fff" opacity="0.489"/>
</svg>
