<svg xmlns="http://www.w3.org/2000/svg" width="30" height="28.126" viewBox="0 0 30 28.126">
  <path id="star_4" d="M2813.12,476.82l-6.737,2.88a1.8,1.8,0,0,1-2.353-.9,1.7,1.7,0,0,1-.14-.871l.713-7.167a1.725,1.725,0,0,0-.441-1.332l-4.876-5.388a1.726,1.726,0,0,1,.112-2.437l.039-.034a1.776,1.776,0,0,1,.8-.4l7.178-1.55a1.785,1.785,0,0,0,1.157-.825l3.722-6.206a1.808,1.808,0,0,1,3.083,0l3.722,6.209a1.778,1.778,0,0,0,1.157.823l7.176,1.55a1.736,1.736,0,0,1,.953,2.871l-4.878,5.389a1.731,1.731,0,0,0-.441,1.331l.712,7.167a1.759,1.759,0,0,1-1.594,1.911h-.008a1.816,1.816,0,0,1-.889-.136l-6.738-2.88a1.819,1.819,0,0,0-1.428,0Z" transform="translate(-2798.835 -451.723)" fill="#d5d5d5"/>
</svg>
