<svg xmlns="http://www.w3.org/2000/svg" width="148" height="148" viewBox="0 0 148 148">
  <defs>
    <style>
      .cls-1 {
        fill: #f5222d;
      }

      .cls-2 {
        fill: #fff;
      }
    </style>
  </defs>
  <g id="审核未通过" transform="translate(-301 -812)">
    <g id="result_ic_fail" transform="translate(293 804)">
      <path id="Fill-" class="cls-1" d="M156,82.914A74.4,74.4,0,0,0,81.086,8C41.13,8,8,41.13,8,82.914,8,122.87,41.13,156,81.086,156,122.87,156,156,122.87,156,82.914Z"/>
    </g>
    <path id="关闭_2_" data-name="关闭 (2)" class="cls-2" d="M293.073,286.448l22.537,22.437a4.773,4.773,0,0,1,.091,6.633,4.5,4.5,0,0,1-6.48.1L286.5,292.99l-22.72,22.628a4.5,4.5,0,0,1-6.48-.092,4.773,4.773,0,0,1,.091-6.633l22.536-22.445-22.536-22.437a4.773,4.773,0,0,1-.091-6.633,4.5,4.5,0,0,1,6.48-.1l22.72,22.628,22.719-22.628a4.5,4.5,0,0,1,6.48.091,4.773,4.773,0,0,1-.091,6.633Z" transform="translate(88.994 599.055)"/>
  </g>
</svg>
