<svg xmlns="http://www.w3.org/2000/svg" width="40" height="40" viewBox="0 0 40 40">
  <g id="tabbar2" transform="translate(13464 -24447.5)">
    <rect id="矩形_29002" data-name="矩形 29002" width="40" height="40" transform="translate(-13464 24447.5)" fill="none"/>
    <g id="组_39359" data-name="组 39359" transform="translate(-16327.805 22735.973)">
      <path id="减去_94" data-name="减去 94" d="M15561.985-21067.307h-32.119a2,2,0,0,1-2-2v-23.559a2,2,0,0,1,2-2h32.119a2,2,0,0,1,2,2v23.559A2,2,0,0,1,15561.985-21067.307Zm-27.169-11.1v0a13.847,13.847,0,0,0,4.763,4.164,13.67,13.67,0,0,0,6.345,1.564,13.669,13.669,0,0,0,6.344-1.564,13.847,13.847,0,0,0,4.763-4.164h-22.214Zm19.557-11.549a3.794,3.794,0,0,0-3.791,3.791,3.794,3.794,0,0,0,3.791,3.789,3.793,3.793,0,0,0,3.79-3.789A3.794,3.794,0,0,0,15554.373-21089.955Zm-16.894,0a3.794,3.794,0,0,0-3.791,3.791,3.794,3.794,0,0,0,3.791,3.789,3.791,3.791,0,0,0,3.785-3.789A3.792,3.792,0,0,0,15537.479-21089.955Z" transform="translate(-12662.06 22809.391)" fill="#d4d4df" stroke="rgba(0,0,0,0)" stroke-miterlimit="10" stroke-width="1"/>
      <path id="路径_112944" data-name="路径 112944" d="M2891.626,1747.369l-4.226,5.253a1.4,1.4,0,0,1-2.183,0l-4.227-5.253Z" transform="translate(-2.443 -5.283)" fill="#d4d4df"/>
    </g>
  </g>
</svg>
