<svg xmlns="http://www.w3.org/2000/svg" xmlns:xlink="http://www.w3.org/1999/xlink" width="110" height="110" viewBox="0 0 110 110">
  <defs>
    <linearGradient id="linear-gradient" x1="0.5" x2="0.5" y2="1" gradientUnits="objectBoundingBox">
      <stop offset="0" stop-color="#fff"/>
      <stop offset="1" stop-color="#fff" stop-opacity="0.059"/>
    </linearGradient>
  </defs>
  <g id="组_33802" data-name="组 33802" transform="translate(-320.5 -1592)">
    <path id="路径_9278" data-name="路径 9278" d="M55,0A55,55,0,1,1,0,55,55,55,0,0,1,55,0Z" transform="translate(320.5 1592)" fill="#e9e9e9"/>
    <path id="交叉_4" data-name="交叉 4" d="M0,61.273V8.642C0,3.934,3.077.084,7.785.084a8,8,0,0,1,4.422,1.283L30.182,12.493a2.829,2.829,0,0,0,3,0L51.728,1.228c4-2.426,8.5-1.143,10.925,2.853A8,8,0,0,1,63.935,8.5V61.27A55.552,55.552,0,0,1,0,61.273Z" transform="translate(343 1630.609)" fill="url(#linear-gradient)"/>
    <g id="签到" transform="translate(196.455 1593.901)">
      <path id="路径_98298" data-name="路径 98298" d="M191.65,746.586a4.441,4.441,0,0,1,4.215,3.039l1.481,4.44a4.441,4.441,0,0,1-4.214,5.844H165.487a4.441,4.441,0,0,1-4.214-5.844l1.481-4.441a4.441,4.441,0,0,1,4.214-3.038l1.925,0q3.838,4.506,8.011,8.709l.833.839.209.186a2.22,2.22,0,0,0,2.933-.184l.835-.841q4.171-4.2,8.011-8.708Z" transform="translate(0 -687.505)" fill="#acafb5"/>
      <path id="路径_98299" data-name="路径 98299" d="M188.43,21.333A17.574,17.574,0,0,1,206.193,38.71q0,9.159-16.187,25.466a2.225,2.225,0,0,1-3.153,0l-.762-.773q-15.424-15.751-15.425-24.691A17.573,17.573,0,0,1,188.43,21.333Zm0,11.1a6.661,6.661,0,1,0,6.661,6.661A6.661,6.661,0,0,0,188.43,32.435Z" transform="translate(-9.121)" fill="#acafb5"/>
    </g>
  </g>
</svg>
