<svg xmlns="http://www.w3.org/2000/svg" xmlns:xlink="http://www.w3.org/1999/xlink" width="608" height="36.451" viewBox="0 0 608 36.451">
  <defs>
    <linearGradient id="linear-gradient" x1="0.03" y1="0.5" x2="0.97" y2="0.5" gradientUnits="objectBoundingBox">
      <stop offset="0" stop-color="#fff7f1" stop-opacity="0.2"/>
      <stop offset="1" stop-color="#db0000" stop-opacity="0.169"/>
    </linearGradient>
    <linearGradient id="linear-gradient-2" x1="0.97" x2="0.03" xlink:href="#linear-gradient"/>
  </defs>
  <g id="组_34682" data-name="组 34682" transform="translate(-73.424 -818.375)">
    <g id="组_29468" data-name="组 29468" transform="translate(5.424 280)">
      <path id="路径_98287" data-name="路径 98287" d="M0,0H191l-2.717,3.666L0,4Z" transform="translate(68 557)" fill="url(#linear-gradient)"/>
      <path id="路径_98288" data-name="路径 98288" d="M191,0H0L2.717,3.666,191,4Z" transform="translate(485 557)" fill="url(#linear-gradient-2)"/>
    </g>
    <g id="组_29471" data-name="组 29471" transform="translate(-0.137)">
      <g id="组_29469" data-name="组 29469" transform="translate(283.136 818.375)">
        <path id="路径_98289" data-name="路径 98289" d="M488.416-662.354h3.932l-3.176,15.83H485.24Zm4.739-1.361h-5.5l.66-4.789h5.546l1.462-10.386-.605-2.016h7.209l-1.765,12.4h4.79l-.656,4.789h-4.84l-2.672,19.006h-6.3Zm.706-15.326-.454,9.579h-3.983l.4-9.579Zm9.02,32.517h-4.13l1.059-15.83H504.1Zm4.34-32.568L505-669.462h-4.138l2.172-9.629Zm10.133,34.282,2.37-2.773.252-1.815h-8.571l-.655,4.588h-6.705l2.672-19.006h22.031l-2.218,15.679a4.787,4.787,0,0,1-.958,2.395,2.635,2.635,0,0,1-2.168.933Zm-2.117-28.938.2-1.462h-8.066l.5-3.882h8.02l-1.311-1.764h9.377l-.252,1.764h8.117l-.5,3.882h-8.167l-.2,1.462h8.167l-.555,3.832h-8.117l-.2,1.412h8.113l-.551,3.831h-23.9l.554-3.831h8.066l.2-1.412h-8.066l.554-3.832Zm-3.378,20.972h8.57l.252-1.865h-8.571Zm.756-5.243h8.57l.248-1.865h-8.571Z" transform="translate(-485.24 680.956)" fill="#db0000"/>
        <path id="路径_98290" data-name="路径 98290" d="M496.771-645.477l2.575-4.789,2.416-17.242H499.85l.655-4.789h10.532l-2.769,19.964,6.907,2.067h23.443l-.655,4.789H511.143l-4.941-1.462-.807,1.462Zm12.507-34.483,2.067,5.747h-7.663l-2.067-5.747Zm13.41,0-1.513,4.789h3.68l.555-3.832-1.664-1.916h9.579l-.807,5.747h6.7l-.6,4.285h-6.705l-.66,4.84h7.667l-.6,4.285h-4.789l-.555,3.831H536.8l2.218-1.916-1.113,7.663H524.5l1.361-9.579H522.94l-4.184,9.579h-7.663l4.185-9.579H511.5l.605-4.285H523.6l.655-4.84h-4.386l-.706,2.42h-6.705l3.025-9.831-1.412-1.664Z" transform="translate(-448.327 680.918)" fill="#db0000"/>
      </g>
      <g id="组_29470" data-name="组 29470" transform="translate(375.563 819.587)">
        <path id="路径_98291" data-name="路径 98291" d="M510.988-654.475l2.874-20.569h-2.773l.706-4.688h13.511l-.706,4.688h-2.672l-2.571,18.3,3.731-1.008-.807,5.9-14.973,4.033.806-5.9Zm31.005-12.4-1.412,10.083-.1.1L548.6-645.45h-8.923l-3.428-6.5-5.8,6.5h-8.621l11.192-11.343,1.412-10.083Zm12-13.813-.655,4.89H543l-1.109,2.42h9.982l-2.521,18H543.2l-1.008-1.159,1.714-12.352H533.07l-1.714,12.352-1.311,1.159h-6.15l2.521-18h7.966l1.109-2.42h-9.68l.655-4.89Z" transform="translate(-507.308 680.69)" fill="#333"/>
        <path id="路径_98292" data-name="路径 98292" d="M523.356-678.774l-1.664-1.916h40.231l-4.84,34.483H518.768ZM548.16-651l.706-5.243H529.708L529-651Zm-17.746-10.033h19.158l.756-5.293H531.17Zm1.412-10.083h19.158l.706-4.789H532.531Z" transform="translate(-470.622 680.69)" fill="#333"/>
      </g>
    </g>
  </g>
</svg>
