<svg xmlns="http://www.w3.org/2000/svg" width="32" height="32" viewBox="0 0 32 32">
  <defs>
    <style>
      .cls-1 {
        fill: #fff;
      }
    </style>
  </defs>
  <path id="Fill_1" data-name="Fill 1" class="cls-1" d="M16,32A16,16,0,0,1,4.687,4.686,16,16,0,0,1,27.314,27.314,15.9,15.9,0,0,1,16,32Zm-.014-11A1.979,1.979,0,0,0,13.993,23a1.869,1.869,0,0,0,.6,1.479A2.1,2.1,0,0,0,16.014,25a2.041,2.041,0,0,0,1.4-.535,1.882,1.882,0,0,0,.6-1.472,1.921,1.921,0,0,0-.591-1.412A1.981,1.981,0,0,0,15.987,21ZM14.437,7l.469,11H17l.562-11Z"/>
</svg>
