<svg xmlns="http://www.w3.org/2000/svg" xmlns:xlink="http://www.w3.org/1999/xlink" width="66" height="66" viewBox="0 0 66 66">
  <defs>
    <linearGradient id="linear-gradient" x1="0.5" x2="0.5" y2="0.913" gradientUnits="objectBoundingBox">
      <stop offset="0" stop-color="#ff9e1e"/>
      <stop offset="1" stop-color="#ffdb68"/>
    </linearGradient>
    <linearGradient id="linear-gradient-3" x1="0.093" y1="0.5" x2="1" y2="0.5" gradientUnits="objectBoundingBox">
      <stop offset="0" stop-color="#fff26c"/>
      <stop offset="1" stop-color="#ffdf61"/>
    </linearGradient>
    <clipPath id="clip-path">
      <rect id="矩形_23830" data-name="矩形 23830" width="66" height="66" transform="translate(263 3160)" fill="#fff" stroke="#707070" stroke-width="1"/>
    </clipPath>
    <linearGradient id="linear-gradient-4" x1="0.5" x2="0.5" y2="0.913" gradientUnits="objectBoundingBox">
      <stop offset="0" stop-color="#f6bfa5"/>
      <stop offset="1" stop-color="#ffd7d2"/>
    </linearGradient>
    <clipPath id="clip-path-2">
      <path id="多边形_36" data-name="多边形 36" d="M9.582.969a1,1,0,0,1,1.559,0L14.334,4.94a1,1,0,0,0,.429.31l4.78,1.785a1,1,0,0,1,.483,1.49L17.22,12.752a1,1,0,0,0-.166.507l-.232,5.064a1,1,0,0,1-1.263.919l-4.935-1.349a1,1,0,0,0-.527,0L5.163,19.242A1,1,0,0,1,3.9,18.323l-.232-5.064a1,1,0,0,0-.166-.507L.7,8.525a1,1,0,0,1,.483-1.49L5.959,5.25a1,1,0,0,0,.429-.31Z" transform="matrix(0.914, 0.407, -0.407, 0.914, 7.96, 0)" fill="url(#linear-gradient)"/>
    </clipPath>
    <clipPath id="clip-path-3">
      <path id="多边形_36-2" data-name="多边形 36" d="M9.582.969a1,1,0,0,1,1.559,0L14.334,4.94a1,1,0,0,0,.429.31l4.78,1.785a1,1,0,0,1,.483,1.49L17.22,12.752a1,1,0,0,0-.166.507l-.232,5.064a1,1,0,0,1-1.263.919l-4.935-1.349a1,1,0,0,0-.527,0L5.163,19.242A1,1,0,0,1,3.9,18.323l-.232-5.064a1,1,0,0,0-.166-.507L.7,8.525a1,1,0,0,1,.483-1.49L5.959,5.25a1,1,0,0,0,.429-.31Z" transform="matrix(0.914, -0.407, 0.407, 0.914, 0, 8.429)" fill="url(#linear-gradient)"/>
    </clipPath>
    <linearGradient id="linear-gradient-6" x1="0.5" x2="0.5" y2="1" gradientUnits="objectBoundingBox">
      <stop offset="0" stop-color="#dfa286"/>
      <stop offset="1" stop-color="#ffcab1"/>
    </linearGradient>
    <linearGradient id="linear-gradient-8" x1="0.093" y1="0.5" x2="1" y2="0.5" gradientUnits="objectBoundingBox">
      <stop offset="0" stop-color="#ffd8d4"/>
      <stop offset="0.378" stop-color="#ffc9aa"/>
      <stop offset="1" stop-color="#ffdbcf"/>
    </linearGradient>
    <clipPath id="clip-path-4">
      <path id="多边形_41" data-name="多边形 41" d="M27.383,0l9.128,16.149L27.383,32.3H9.128L0,16.149,9.128,0Z" transform="translate(32.298 0) rotate(90)" fill="url(#linear-gradient-3)"/>
    </clipPath>
    <linearGradient id="linear-gradient-10" x1="0.5" x2="0.5" y2="0.913" gradientUnits="objectBoundingBox">
      <stop offset="0" stop-color="#ffbc9f"/>
      <stop offset="1" stop-color="#d4856e"/>
    </linearGradient>
  </defs>
  <g id="蒙版组_97" data-name="蒙版组 97" transform="translate(-263 -3160)" clip-path="url(#clip-path)">
    <g id="组_29304" data-name="组 29304" transform="translate(260.319 3166.319)">
      <g id="组_29301" data-name="组 29301" transform="translate(43.532 18.329)">
        <path id="多边形_35" data-name="多边形 35" d="M9.582.969a1,1,0,0,1,1.559,0L14.334,4.94a1,1,0,0,0,.429.31l4.78,1.785a1,1,0,0,1,.483,1.49L17.22,12.752a1,1,0,0,0-.166.507l-.232,5.064a1,1,0,0,1-1.263.919l-4.935-1.349a1,1,0,0,0-.527,0L5.163,19.242A1,1,0,0,1,3.9,18.323l-.232-5.064a1,1,0,0,0-.166-.507L.7,8.525a1,1,0,0,1,.483-1.49L5.959,5.25a1,1,0,0,0,.429-.31Z" transform="matrix(0.914, 0.407, -0.407, 0.914, 7.96, 0)" fill="url(#linear-gradient-4)"/>
        <g id="蒙版组_95" data-name="蒙版组 95" transform="translate(0 0)" clip-path="url(#clip-path-2)">
          <circle id="椭圆_804" data-name="椭圆 804" cx="3.767" cy="3.767" r="3.767" transform="matrix(0.695, 0.719, -0.719, 0.695, 12.162, 0.304)" fill="#e6ab90"/>
          <circle id="椭圆_805" data-name="椭圆 805" cx="3.767" cy="3.767" r="3.767" transform="matrix(0.695, 0.719, -0.719, 0.695, 5.435, 4.182)" fill="#e6ab90"/>
          <circle id="椭圆_806" data-name="椭圆 806" cx="3.767" cy="3.767" r="3.767" transform="matrix(0.695, 0.719, -0.719, 0.695, 4.641, 11.494)" fill="#e6ab90"/>
          <circle id="椭圆_807" data-name="椭圆 807" cx="3.767" cy="3.767" r="3.767" transform="matrix(0.695, 0.719, -0.719, 0.695, 10.528, 17.591)" fill="#e6ab90"/>
        </g>
      </g>
      <g id="组_29316" data-name="组 29316" transform="translate(0 18.329)">
        <path id="多边形_35-2" data-name="多边形 35" d="M9.582.969a1,1,0,0,1,1.559,0L14.334,4.94a1,1,0,0,0,.429.31l4.78,1.785a1,1,0,0,1,.483,1.49L17.22,12.752a1,1,0,0,0-.166.507l-.232,5.064a1,1,0,0,1-1.263.919l-4.935-1.349a1,1,0,0,0-.527,0L5.163,19.242A1,1,0,0,1,3.9,18.323l-.232-5.064a1,1,0,0,0-.166-.507L.7,8.525a1,1,0,0,1,.483-1.49L5.959,5.25a1,1,0,0,0,.429-.31Z" transform="matrix(0.914, -0.407, 0.407, 0.914, 0, 8.429)" fill="url(#linear-gradient-4)"/>
        <g id="蒙版组_95-2" data-name="蒙版组 95" transform="translate(0 0)" clip-path="url(#clip-path-3)">
          <ellipse id="椭圆_804-2" data-name="椭圆 804" cx="3.767" cy="3.767" rx="3.767" ry="3.767" transform="matrix(-0.695, 0.719, -0.719, -0.695, 20.148, 5.537)" fill="#e6ab90"/>
          <ellipse id="椭圆_805-2" data-name="椭圆 805" cx="3.767" cy="3.767" rx="3.767" ry="3.767" transform="matrix(-0.695, 0.719, -0.719, -0.695, 26.876, 9.416)" fill="#e6ab90"/>
          <ellipse id="椭圆_806-2" data-name="椭圆 806" cx="3.767" cy="3.767" rx="3.767" ry="3.767" transform="matrix(-0.695, 0.719, -0.719, -0.695, 27.669, 16.727)" fill="#e6ab90"/>
          <ellipse id="椭圆_807-2" data-name="椭圆 807" cx="3.767" cy="3.767" rx="3.767" ry="3.767" transform="matrix(-0.695, 0.719, -0.719, -0.695, 21.782, 22.824)" fill="#e6ab90"/>
        </g>
      </g>
      <path id="多边形_37" data-name="多边形 37" d="M15.14,6.016a4,4,0,0,1,6.932,0L33.758,26.3a4,4,0,0,1-3.466,6H6.921a4,4,0,0,1-3.466-6Z" transform="translate(45.957 1.564) rotate(90)" fill="url(#linear-gradient-6)"/>
      <path id="多边形_38" data-name="多边形 38" d="M15.14,6.016a4,4,0,0,1,6.932,0L33.758,26.3a4,4,0,0,1-3.466,6H6.921a4,4,0,0,1-3.466-6Z" transform="translate(24.68 38.776) rotate(-90)" fill="url(#linear-gradient-6)"/>
      <g id="组_29303" data-name="组 29303" transform="translate(10.637 1.564)">
        <path id="多边形_39" data-name="多边形 39" d="M38.968,0,51.957,21.766,38.968,43.532H12.989L0,21.766,12.989,0Z" transform="translate(46.34 0) rotate(90)" fill="url(#linear-gradient-8)"/>
        <path id="多边形_40" data-name="多边形 40" d="M27.383,0l9.128,16.149L27.383,32.3H9.128L0,16.149,9.128,0Z" transform="translate(40.723 7.723) rotate(90)" fill="url(#linear-gradient-6)"/>
        <g id="蒙版组_96" data-name="蒙版组 96" transform="translate(7.723 7.723)" clip-path="url(#clip-path-4)">
          <path id="路径_97904" data-name="路径 97904" d="M38.291,2.567c12.6,0,7.347,8.414,7.347,21.017A22.819,22.819,0,1,1,0,23.584c0-7.1,11.583-4.92,21.115-8.671C28.218,12.117,32.784,2.567,38.291,2.567Z" transform="translate(-3.511 10.469)" fill="#d07965" opacity="0.2"/>
          <circle id="椭圆_808" data-name="椭圆 808" cx="6.67" cy="6.67" r="6.67" transform="translate(4.915 -3.511)" fill="#fff"/>
        </g>
        <path id="减去_24" data-name="减去 24" d="M16.5,39.319h0L0,29.489V9.83L16.5,0,33,9.83V29.489l-16.5,9.83Zm0-36.042h0L2.357,11.468V27.851L16.5,36.042l14.143-8.191V11.468L16.5,3.277Z" transform="translate(7.723 6.319)" fill="url(#linear-gradient-10)"/>
        <text id="文字标题" transform="translate(17.553 37.128)" fill="#a34e3a" font-size="29" font-family="Univeconbol"><tspan x="0" y="0">3</tspan></text>
        <g id="组_29302" data-name="组 29302" transform="translate(0 39.736)">
          <path id="路径_97905" data-name="路径 97905" d="M3.973-.059,42.638-.2c1.163,0,1.505.338,2.709,1.426a11.385,11.385,0,0,1,2.106,2.925A1.878,1.878,0,0,1,45.638,6.26H2.106A2.106,2.106,0,0,1,0,4.154,11.292,11.292,0,0,1,1.75,1.229C2.743.176,2.81-.059,3.973-.059Z" transform="translate(0 0.197)" fill="#ffd6ce"/>
          <rect id="矩形_23826" data-name="矩形 23826" width="47.745" height="7.021" rx="3" transform="translate(0 3.094)" fill="#de987c"/>
          <path id="矩形_23827" data-name="矩形 23827" d="M0,0H47.745a0,0,0,0,1,0,0V0a2.809,2.809,0,0,1-2.809,2.809H2.809A2.809,2.809,0,0,1,0,0V0A0,0,0,0,1,0,0Z" transform="translate(0 7.307)" fill="#d98467"/>
        </g>
      </g>
      <rect id="矩形_23828" data-name="矩形 23828" width="2.809" height="11.234" transform="translate(13.446 14.904)" fill="#fff"/>
      <rect id="矩形_23829" data-name="矩形 23829" width="2.809" height="11.234" transform="matrix(0.574, 0.819, -0.819, 0.574, 34.795, 0)" fill="#fff"/>
    </g>
  </g>
</svg>
